{"glyphs":{"0":{"ha":833,"x_min":86,"x_max":747,"o":"m 417 -11 q 235 46 308 -11 q 124 215 161 103 q 86 489 86 326 q 124 765 86 654 q 235 933 161 876 q 417 990 308 990 q 599 934 526 990 q 710 767 672 878 q 747 490 747 656 q 710 215 747 326 q 599 46 672 103 q 417 -11 525 -11 m 417 46 q 619 155 553 46 q 685 490 685 264 q 619 826 685 718 q 417 933 554 933 q 215 825 281 933 q 149 490 149 717 q 215 155 149 264 q 417 46 281 46 z "},"1":{"ha":833,"x_min":192,"x_max":686,"o":"m 192 0 l 192 54 l 417 54 l 417 926 l 454 926 l 236 781 l 206 826 l 432 979 l 475 979 l 475 54 l 686 54 l 686 0 l 192 0 z "},"2":{"ha":833,"x_min":106,"x_max":738,"o":"m 136 0 l 136 44 l 488 428 q 572 535 539 485 q 619 635 604 586 q 635 735 635 685 q 578 883 635 832 q 410 933 521 933 q 260 903 328 933 q 133 811 192 872 l 106 861 q 237 954 156 918 q 410 990 318 990 q 565 960 501 990 q 663 874 629 931 q 696 736 696 817 q 685 649 696 692 q 652 563 674 606 q 598 474 631 519 q 521 382 565 429 l 196 33 l 196 54 l 738 54 l 738 0 l 136 0 z "},"3":{"ha":833,"x_min":89,"x_max":719,"o":"m 413 -11 q 292 3 350 -11 q 182 44 233 17 q 89 110 131 71 l 117 160 q 258 73 186 100 q 413 46 329 46 q 547 71 492 46 q 630 144 601 96 q 658 261 658 192 q 592 417 658 364 q 400 471 526 471 l 267 471 l 267 525 l 397 525 q 522 552 469 525 q 603 628 574 579 q 632 746 632 678 q 574 885 632 836 q 410 933 517 933 q 261 903 329 933 q 133 811 193 874 l 106 861 q 240 956 158 922 q 410 990 321 990 q 562 961 499 990 q 659 877 625 932 q 693 746 693 822 q 642 588 693 654 q 504 497 592 521 l 504 511 q 622 465 574 499 q 694 380 669 432 q 719 261 719 328 q 683 117 719 178 q 577 22 646 56 q 413 -11 508 -11 z "},"4":{"ha":833,"x_min":83,"x_max":771,"o":"m 558 0 l 558 231 l 83 231 l 83 276 l 568 979 l 617 979 l 617 285 l 771 285 l 771 231 l 617 231 l 617 0 l 558 0 m 558 285 l 558 907 l 586 907 l 144 268 l 144 285 l 558 285 z "},"5":{"ha":833,"x_min":129,"x_max":757,"o":"m 449 -11 q 329 3 388 -11 q 220 44 271 17 q 129 110 169 71 l 157 160 q 297 73 226 100 q 449 46 367 46 q 630 113 564 46 q 696 289 696 181 q 633 474 696 401 q 458 547 569 547 q 318 514 378 547 q 214 408 258 481 l 163 408 l 163 979 l 700 979 l 700 925 l 221 925 l 221 467 l 201 467 q 307 568 239 532 q 461 604 375 604 q 619 565 553 604 q 721 457 685 526 q 757 294 757 388 q 719 137 757 206 q 613 28 682 68 q 449 -11 544 -11 z "},"6":{"ha":833,"x_min":103,"x_max":749,"o":"m 449 -11 q 260 44 338 -11 q 143 206 183 100 q 103 460 103 311 q 147 750 103 632 q 276 929 192 868 q 476 990 360 990 q 576 974 525 990 q 671 931 626 958 q 744 865 715 903 l 717 815 q 603 904 665 875 q 475 933 540 933 q 342 904 400 933 q 244 817 285 875 q 183 674 204 760 q 163 472 163 588 l 163 319 l 154 319 q 201 470 161 407 q 305 568 240 533 q 449 603 369 603 q 605 564 538 603 q 710 456 672 525 q 749 297 749 388 q 710 138 749 208 q 604 28 672 68 q 449 -11 536 -11 m 443 46 q 570 78 515 46 q 656 166 625 110 q 688 296 688 222 q 656 426 688 369 q 570 514 625 482 q 443 546 515 546 q 316 514 371 546 q 230 426 261 482 q 199 296 199 369 q 230 166 199 222 q 316 78 261 110 q 443 46 371 46 z "},"7":{"ha":833,"x_min":108,"x_max":724,"o":"m 188 0 l 675 964 l 675 925 l 108 925 l 108 979 l 724 979 l 724 936 l 253 0 l 188 0 z "},"8":{"ha":833,"x_min":81,"x_max":753,"o":"m 417 -11 q 169 59 257 -11 q 81 256 81 129 q 108 376 81 324 q 186 463 136 429 q 303 504 236 496 l 303 492 q 197 540 242 506 q 127 624 151 574 q 103 732 103 674 q 188 922 103 854 q 417 990 274 990 q 645 922 560 990 q 731 732 731 854 q 706 624 731 674 q 638 540 682 574 q 531 492 593 506 l 531 504 q 647 463 597 496 q 725 376 697 429 q 753 256 753 324 q 665 59 753 129 q 417 -11 576 -11 m 417 44 q 622 97 553 44 q 692 257 692 150 q 622 416 692 364 q 417 468 553 468 q 212 416 282 468 q 142 257 142 364 q 212 97 142 150 q 417 44 282 44 m 417 524 q 603 578 536 524 q 669 731 669 633 q 603 881 669 828 q 417 935 536 935 q 231 881 299 935 q 164 731 164 828 q 231 578 164 633 q 417 524 299 524 z "},"9":{"ha":833,"x_min":85,"x_max":731,"o":"m 357 -11 q 258 4 308 -11 q 163 48 207 19 q 89 114 119 76 l 117 164 q 231 75 168 104 q 358 46 293 46 q 491 75 433 46 q 589 162 549 104 q 650 306 629 219 q 671 507 671 393 l 671 660 l 679 660 q 633 510 672 574 q 529 411 593 446 q 385 376 465 376 q 228 415 296 376 q 123 524 161 454 q 85 682 85 593 q 124 842 85 772 q 230 951 163 911 q 385 990 297 990 q 573 935 496 990 q 690 774 650 879 q 731 519 731 668 q 686 230 731 349 q 558 50 642 111 q 357 -11 475 -11 m 390 433 q 517 465 463 433 q 603 553 572 497 q 635 683 635 610 q 603 813 635 757 q 517 901 572 869 q 390 933 463 933 q 263 901 318 933 q 177 813 208 869 q 146 683 146 757 q 177 553 146 610 q 263 465 208 497 q 390 433 318 433 z "},"A":{"ha":994,"x_min":49,"x_max":946,"o":"m 49 0 l 469 979 l 525 979 l 946 0 l 883 0 l 761 283 l 799 271 l 193 271 l 232 283 l 111 0 l 49 0 m 496 900 l 247 317 l 217 325 l 775 325 l 747 317 l 499 900 l 496 900 z "},"Á":{"ha":994,"x_min":49,"x_max":946,"o":"m 49 0 l 469 979 l 525 979 l 946 0 l 883 0 l 761 283 l 799 271 l 193 271 l 232 283 l 111 0 l 49 0 m 496 900 l 247 317 l 217 325 l 775 325 l 747 317 l 499 900 l 496 900 m 472 1063 l 636 1299 l 714 1299 l 525 1063 l 472 1063 z "},"Ă":{"ha":994,"x_min":49,"x_max":946,"o":"m 49 0 l 469 979 l 525 979 l 946 0 l 883 0 l 761 283 l 799 271 l 193 271 l 232 283 l 111 0 l 49 0 m 496 900 l 247 317 l 217 325 l 775 325 l 747 317 l 499 900 l 496 900 m 499 1056 q 350 1117 410 1056 q 281 1288 290 1179 l 326 1293 q 379 1155 333 1204 q 499 1106 425 1106 q 619 1155 572 1106 q 671 1293 665 1204 l 717 1288 q 647 1117 707 1179 q 499 1056 588 1056 z "},"Ắ":{"ha":994,"x_min":49,"x_max":946,"o":"m 49 0 l 469 979 l 525 979 l 946 0 l 883 0 l 761 283 l 799 271 l 193 271 l 232 283 l 111 0 l 49 0 m 496 900 l 247 317 l 217 325 l 775 325 l 747 317 l 499 900 l 496 900 m 499 1056 q 359 1110 413 1056 q 299 1260 306 1164 l 344 1265 q 390 1147 350 1189 q 499 1106 431 1106 q 608 1147 568 1106 q 653 1265 647 1189 l 699 1260 q 638 1110 692 1164 q 499 1056 585 1056 m 465 1199 l 601 1407 l 676 1407 l 515 1199 l 465 1199 z "},"Ặ":{"ha":994,"x_min":49,"x_max":946,"o":"m 49 0 l 469 979 l 525 979 l 946 0 l 883 0 l 761 283 l 799 271 l 193 271 l 232 283 l 111 0 l 49 0 m 496 900 l 247 317 l 217 325 l 775 325 l 747 317 l 499 900 l 496 900 m 454 -239 l 454 -151 l 543 -151 l 543 -239 l 454 -239 m 499 1056 q 350 1117 410 1056 q 281 1288 290 1179 l 326 1293 q 379 1155 333 1204 q 499 1106 425 1106 q 619 1155 572 1106 q 671 1293 665 1204 l 717 1288 q 647 1117 707 1179 q 499 1056 588 1056 z "},"Ằ":{"ha":994,"x_min":49,"x_max":946,"o":"m 49 0 l 469 979 l 525 979 l 946 0 l 883 0 l 761 283 l 799 271 l 193 271 l 232 283 l 111 0 l 49 0 m 496 900 l 247 317 l 217 325 l 775 325 l 747 317 l 499 900 l 496 900 m 499 1056 q 359 1110 413 1056 q 299 1260 306 1164 l 344 1265 q 390 1147 350 1189 q 499 1106 431 1106 q 608 1147 568 1106 q 653 1265 647 1189 l 699 1260 q 638 1110 692 1164 q 499 1056 585 1056 m 482 1199 l 321 1407 l 396 1407 l 532 1199 l 482 1199 z "},"Ẳ":{"ha":994,"x_min":49,"x_max":946,"o":"m 49 0 l 469 979 l 525 979 l 946 0 l 883 0 l 761 283 l 799 271 l 193 271 l 232 283 l 111 0 l 49 0 m 496 900 l 247 317 l 217 325 l 775 325 l 747 317 l 499 900 l 496 900 m 499 1056 q 359 1110 413 1056 q 299 1260 306 1164 l 344 1265 q 390 1147 350 1189 q 499 1106 431 1106 q 608 1147 568 1106 q 653 1265 647 1189 l 699 1260 q 638 1110 692 1165 q 499 1056 585 1056 m 475 1199 q 489 1251 475 1232 q 522 1283 503 1271 q 554 1306 540 1294 q 568 1336 568 1318 q 551 1360 568 1354 q 496 1367 533 1367 q 456 1363 478 1367 q 408 1350 435 1360 l 396 1390 q 445 1407 418 1401 q 501 1413 472 1413 q 591 1393 560 1413 q 622 1340 622 1374 q 607 1295 622 1311 q 572 1267 592 1279 q 538 1240 553 1256 q 522 1199 522 1225 l 475 1199 z "},"Ẵ":{"ha":994,"x_min":49,"x_max":946,"o":"m 49 0 l 469 979 l 525 979 l 946 0 l 883 0 l 761 283 l 799 271 l 193 271 l 232 283 l 111 0 l 49 0 m 496 900 l 247 317 l 217 325 l 775 325 l 747 317 l 499 900 l 496 900 m 499 1056 q 369 1095 422 1056 q 299 1204 317 1135 l 344 1210 q 400 1133 360 1160 q 499 1106 440 1106 q 597 1133 557 1106 q 653 1210 638 1160 l 699 1204 q 628 1096 681 1136 q 499 1056 575 1056 m 342 1275 l 296 1278 q 315 1352 300 1322 q 355 1397 331 1382 q 411 1411 379 1411 q 460 1400 438 1411 q 511 1365 482 1389 q 557 1335 542 1342 q 586 1328 572 1328 q 633 1348 618 1328 q 656 1414 649 1368 l 701 1411 q 666 1311 696 1344 q 588 1278 636 1278 q 538 1290 561 1278 q 479 1329 515 1301 q 448 1351 465 1340 q 411 1361 431 1361 q 365 1341 381 1361 q 342 1275 349 1321 z "},"Ǎ":{"ha":994,"x_min":49,"x_max":946,"o":"m 49 0 l 469 979 l 525 979 l 946 0 l 883 0 l 761 283 l 799 271 l 193 271 l 232 283 l 111 0 l 49 0 m 496 900 l 247 317 l 217 325 l 775 325 l 747 317 l 499 900 l 496 900 m 465 1063 l 297 1299 l 349 1299 l 499 1115 l 649 1299 l 700 1299 l 532 1063 l 465 1063 z "},"Â":{"ha":994,"x_min":49,"x_max":946,"o":"m 49 0 l 469 979 l 525 979 l 946 0 l 883 0 l 761 283 l 799 271 l 193 271 l 232 283 l 111 0 l 49 0 m 496 900 l 247 317 l 217 325 l 775 325 l 747 317 l 499 900 l 496 900 m 297 1063 l 465 1299 l 532 1299 l 700 1063 l 649 1063 l 499 1246 l 349 1063 l 297 1063 z "},"Ấ":{"ha":994,"x_min":49,"x_max":946,"o":"m 49 0 l 469 979 l 525 979 l 946 0 l 883 0 l 761 283 l 799 271 l 193 271 l 232 283 l 111 0 l 49 0 m 496 900 l 247 317 l 217 325 l 775 325 l 747 317 l 499 900 l 496 900 m 314 1063 l 465 1285 l 532 1285 l 683 1063 l 636 1063 l 499 1233 l 361 1063 l 314 1063 m 611 1203 l 733 1411 l 808 1411 l 661 1203 l 611 1203 z "},"Ậ":{"ha":994,"x_min":49,"x_max":946,"o":"m 49 0 l 469 979 l 525 979 l 946 0 l 883 0 l 761 283 l 799 271 l 193 271 l 232 283 l 111 0 l 49 0 m 496 900 l 247 317 l 217 325 l 775 325 l 747 317 l 499 900 l 496 900 m 454 -239 l 454 -151 l 543 -151 l 543 -239 l 454 -239 m 297 1063 l 465 1299 l 532 1299 l 700 1063 l 649 1063 l 499 1246 l 349 1063 l 297 1063 z "},"Ầ":{"ha":994,"x_min":49,"x_max":946,"o":"m 49 0 l 469 979 l 525 979 l 946 0 l 883 0 l 761 283 l 799 271 l 193 271 l 232 283 l 111 0 l 49 0 m 496 900 l 247 317 l 217 325 l 775 325 l 747 317 l 499 900 l 496 900 m 314 1063 l 465 1285 l 532 1285 l 683 1063 l 636 1063 l 499 1233 l 361 1063 l 314 1063 m 668 1203 l 521 1411 l 596 1411 l 718 1203 l 668 1203 z "},"Ẩ":{"ha":994,"x_min":49,"x_max":946,"o":"m 49 0 l 469 979 l 525 979 l 946 0 l 883 0 l 761 283 l 799 271 l 193 271 l 232 283 l 111 0 l 49 0 m 496 900 l 247 317 l 217 325 l 775 325 l 747 317 l 499 900 l 496 900 m 314 1063 l 465 1285 l 532 1285 l 683 1063 l 636 1063 l 499 1233 l 361 1063 l 314 1063 m 628 1203 q 642 1256 628 1236 q 674 1287 656 1275 q 707 1310 693 1299 q 721 1340 721 1322 q 703 1365 721 1358 q 649 1371 686 1371 q 609 1367 631 1371 q 561 1354 588 1364 l 549 1394 q 598 1411 571 1406 q 654 1417 625 1417 q 744 1397 713 1417 q 775 1344 775 1378 q 760 1299 775 1315 q 725 1272 744 1283 q 690 1244 706 1260 q 675 1203 675 1229 l 628 1203 z "},"Ẫ":{"ha":994,"x_min":49,"x_max":946,"o":"m 49 0 l 469 979 l 525 979 l 946 0 l 883 0 l 761 283 l 799 271 l 193 271 l 232 283 l 111 0 l 49 0 m 496 900 l 247 317 l 217 325 l 775 325 l 747 317 l 499 900 l 496 900 m 314 1063 l 465 1243 l 532 1243 l 683 1063 l 636 1063 l 499 1196 l 361 1063 l 314 1063 m 342 1275 l 296 1278 q 333 1378 303 1344 q 411 1411 364 1411 q 460 1400 438 1411 q 511 1365 482 1389 q 557 1335 542 1342 q 586 1328 572 1328 q 633 1348 618 1328 q 656 1414 649 1368 l 701 1411 q 666 1311 696 1344 q 588 1278 636 1278 q 538 1290 561 1278 q 479 1329 515 1301 q 448 1351 465 1340 q 411 1361 431 1361 q 365 1341 381 1361 q 342 1275 349 1321 z "},"Ȁ":{"ha":994,"x_min":49,"x_max":946,"o":"m 49 0 l 469 979 l 525 979 l 946 0 l 883 0 l 761 283 l 799 271 l 193 271 l 232 283 l 111 0 l 49 0 m 496 900 l 247 317 l 217 325 l 775 325 l 747 317 l 499 900 l 496 900 m 556 1063 l 401 1299 l 474 1299 l 593 1063 l 556 1063 m 404 1063 l 251 1299 l 324 1299 l 442 1063 l 404 1063 z "},"Ä":{"ha":994,"x_min":49,"x_max":946,"o":"m 49 0 l 469 979 l 525 979 l 946 0 l 883 0 l 761 283 l 799 271 l 193 271 l 232 283 l 111 0 l 49 0 m 496 900 l 247 317 l 217 325 l 775 325 l 747 317 l 499 900 l 496 900 m 568 1139 l 568 1222 l 653 1222 l 653 1139 l 568 1139 m 344 1139 l 344 1222 l 429 1222 l 429 1139 l 344 1139 z "},"Ȧ":{"ha":994,"x_min":49,"x_max":946,"o":"m 49 0 l 469 979 l 525 979 l 946 0 l 883 0 l 761 283 l 799 271 l 193 271 l 232 283 l 111 0 l 49 0 m 496 900 l 247 317 l 217 325 l 775 325 l 747 317 l 499 900 l 496 900 m 456 1136 l 456 1224 l 542 1224 l 542 1136 l 456 1136 z "},"Ạ":{"ha":994,"x_min":49,"x_max":946,"o":"m 49 0 l 469 979 l 525 979 l 946 0 l 883 0 l 761 283 l 799 271 l 193 271 l 232 283 l 111 0 l 49 0 m 496 900 l 247 317 l 217 325 l 775 325 l 747 317 l 499 900 l 496 900 m 454 -239 l 454 -151 l 543 -151 l 543 -239 l 454 -239 z "},"À":{"ha":994,"x_min":49,"x_max":946,"o":"m 49 0 l 469 979 l 525 979 l 946 0 l 883 0 l 761 283 l 799 271 l 193 271 l 232 283 l 111 0 l 49 0 m 496 900 l 247 317 l 217 325 l 775 325 l 747 317 l 499 900 l 496 900 m 472 1063 l 283 1299 l 361 1299 l 525 1063 l 472 1063 z "},"Ả":{"ha":994,"x_min":49,"x_max":946,"o":"m 49 0 l 469 979 l 525 979 l 946 0 l 883 0 l 761 283 l 799 271 l 193 271 l 232 283 l 111 0 l 49 0 m 496 900 l 247 317 l 217 325 l 775 325 l 747 317 l 499 900 l 496 900 m 472 1063 l 472 1082 q 487 1131 472 1113 q 520 1163 501 1150 q 553 1189 539 1176 q 568 1219 568 1201 q 551 1246 568 1236 q 496 1256 533 1256 q 453 1251 475 1256 q 406 1233 432 1246 l 393 1279 q 443 1299 415 1292 q 501 1306 471 1306 q 592 1283 560 1306 q 625 1222 625 1260 q 610 1176 625 1193 q 575 1147 594 1158 q 540 1119 556 1135 q 525 1076 525 1104 l 525 1063 l 472 1063 z "},"Ȃ":{"ha":994,"x_min":49,"x_max":946,"o":"m 49 0 l 469 979 l 525 979 l 946 0 l 883 0 l 761 283 l 799 271 l 193 271 l 232 283 l 111 0 l 49 0 m 496 900 l 247 317 l 217 325 l 775 325 l 747 317 l 499 900 l 496 900 m 326 1056 l 281 1061 q 350 1231 290 1169 q 499 1293 410 1293 q 647 1231 588 1293 q 717 1061 707 1169 l 671 1056 q 619 1194 665 1146 q 499 1243 572 1243 q 379 1194 425 1243 q 326 1056 333 1146 z "},"Ā":{"ha":994,"x_min":49,"x_max":946,"o":"m 49 0 l 469 979 l 525 979 l 946 0 l 883 0 l 761 283 l 799 271 l 193 271 l 232 283 l 111 0 l 49 0 m 496 900 l 247 317 l 217 325 l 775 325 l 747 317 l 499 900 l 496 900 m 283 1142 l 283 1194 l 714 1194 l 714 1142 l 283 1142 z "},"Ą":{"ha":994,"x_min":49,"x_max":1022,"o":"m 49 0 l 469 979 l 525 979 l 946 0 l 883 0 l 761 283 l 799 271 l 193 271 l 232 283 l 111 0 l 49 0 m 496 900 l 247 317 l 217 325 l 775 325 l 747 317 l 499 900 l 496 900 m 924 -264 q 830 -229 867 -264 q 793 -136 793 -194 q 826 -35 793 -83 q 918 43 858 13 l 947 0 q 903 -26 926 -8 q 864 -71 881 -44 q 847 -131 847 -97 q 872 -194 847 -174 q 931 -214 896 -214 q 967 -210 949 -214 q 1004 -196 985 -206 l 1022 -240 q 982 -257 1008 -250 q 924 -264 956 -264 z "},"Å":{"ha":994,"x_min":49,"x_max":946,"o":"m 49 0 l 469 979 l 525 979 l 946 0 l 883 0 l 761 283 l 799 271 l 193 271 l 232 283 l 111 0 l 49 0 m 496 900 l 247 317 l 217 325 l 775 325 l 747 317 l 499 900 l 496 900 m 499 1056 q 420 1076 456 1056 q 364 1132 385 1097 q 343 1208 343 1167 q 364 1285 343 1251 q 420 1340 385 1319 q 499 1361 456 1361 q 578 1340 543 1361 q 633 1285 613 1319 q 654 1208 654 1251 q 633 1132 654 1167 q 578 1076 613 1097 q 499 1056 543 1056 m 499 1100 q 577 1131 547 1100 q 607 1208 607 1163 q 577 1285 607 1254 q 499 1317 547 1317 q 421 1285 451 1317 q 390 1208 390 1254 q 421 1131 390 1163 q 499 1100 451 1100 z "},"Ǻ":{"ha":994,"x_min":49,"x_max":946,"o":"m 49 0 l 469 979 l 525 979 l 946 0 l 883 0 l 761 283 l 799 271 l 193 271 l 232 283 l 111 0 l 49 0 m 496 900 l 247 317 l 217 325 l 775 325 l 747 317 l 499 900 l 496 900 m 499 1056 q 420 1076 456 1056 q 364 1132 385 1097 q 343 1208 343 1167 q 364 1285 343 1251 q 420 1340 385 1319 q 499 1361 456 1361 q 550 1353 526 1361 q 593 1331 574 1346 l 699 1429 l 783 1429 l 626 1297 q 647 1256 640 1279 q 654 1208 654 1233 q 633 1132 654 1167 q 578 1076 613 1097 q 499 1056 543 1056 m 499 1100 q 577 1131 547 1100 q 607 1208 607 1163 q 577 1285 607 1254 q 499 1317 547 1317 q 421 1285 451 1317 q 390 1208 390 1254 q 421 1131 390 1163 q 499 1100 451 1100 z "},"Ã":{"ha":994,"x_min":49,"x_max":946,"o":"m 49 0 l 469 979 l 525 979 l 946 0 l 883 0 l 761 283 l 799 271 l 193 271 l 232 283 l 111 0 l 49 0 m 496 900 l 247 317 l 217 325 l 775 325 l 747 317 l 499 900 l 496 900 m 271 1100 l 226 1103 q 275 1227 236 1183 q 375 1271 314 1271 q 439 1256 407 1271 q 517 1207 471 1240 q 583 1165 561 1176 q 626 1153 606 1153 q 692 1184 668 1153 q 726 1274 717 1215 l 771 1271 q 723 1147 761 1190 q 624 1103 685 1103 q 560 1118 593 1103 q 476 1169 526 1133 q 414 1210 438 1199 q 371 1221 390 1221 q 305 1190 329 1221 q 271 1100 281 1158 z "},"Æ":{"ha":1349,"x_min":3,"x_max":1279,"o":"m 3 0 l 586 979 l 1279 979 l 1279 925 l 638 925 l 647 958 l 742 508 l 718 524 l 1251 524 l 1251 469 l 729 469 l 747 483 l 843 28 l 814 54 l 1279 54 l 1279 0 l 793 0 l 733 288 l 761 271 l 213 271 l 239 288 l 68 0 l 3 0 m 601 900 l 253 311 l 240 325 l 736 325 l 728 313 l 604 900 l 601 900 z "},"Ǽ":{"ha":1349,"x_min":3,"x_max":1279,"o":"m 3 0 l 586 979 l 1279 979 l 1279 925 l 638 925 l 647 958 l 742 508 l 718 524 l 1251 524 l 1251 469 l 729 469 l 747 483 l 843 28 l 814 54 l 1279 54 l 1279 0 l 793 0 l 733 288 l 761 271 l 213 271 l 239 288 l 68 0 l 3 0 m 601 900 l 253 311 l 240 325 l 736 325 l 728 313 l 604 900 l 601 900 m 649 1063 l 813 1299 l 890 1299 l 701 1063 l 649 1063 z "},"B":{"ha":925,"x_min":133,"x_max":826,"o":"m 133 0 l 133 979 l 492 979 q 722 913 640 979 q 804 722 804 846 q 749 568 804 629 q 599 488 693 507 l 599 507 q 719 469 668 500 q 799 388 771 439 q 826 265 826 336 q 790 119 826 178 q 682 30 753 60 q 510 0 611 0 l 133 0 m 192 54 l 508 54 q 601 62 560 54 q 672 86 642 69 q 724 127 703 103 q 755 185 744 151 q 765 261 765 218 q 755 338 765 304 q 724 395 744 371 q 672 436 703 419 q 601 460 642 453 q 508 468 560 468 l 192 468 l 192 54 m 192 522 l 488 522 q 678 574 613 522 q 743 724 743 626 q 678 874 743 822 q 488 925 613 925 l 192 925 l 192 522 z "},"Ɓ":{"ha":1065,"x_min":0,"x_max":967,"o":"m 274 0 l 274 925 l 221 925 q 95 885 136 925 q 54 761 54 846 l 54 703 l 0 703 l 0 765 q 57 926 0 872 q 236 979 114 979 l 632 979 q 863 913 781 979 q 944 722 944 846 q 889 568 944 629 q 739 488 833 507 l 739 507 q 860 469 808 500 q 939 388 911 439 q 967 265 967 336 q 930 119 967 178 q 822 30 893 60 q 650 0 751 0 l 274 0 m 332 54 l 649 54 q 841 105 776 54 q 906 261 906 156 q 841 418 906 368 q 649 468 776 468 l 332 468 l 332 54 m 332 522 l 628 522 q 818 574 753 522 q 883 724 883 626 q 818 874 883 822 q 628 925 753 925 l 332 925 l 332 522 z "},"C":{"ha":926,"x_min":93,"x_max":860,"o":"m 529 -11 q 294 49 392 -11 q 145 222 197 110 q 93 490 93 335 q 145 758 93 646 q 294 930 197 869 q 529 990 392 990 q 716 957 632 990 q 860 858 800 924 l 829 810 q 692 904 764 875 q 528 933 619 933 q 252 817 349 933 q 156 490 156 701 q 252 163 156 279 q 528 46 349 46 q 692 75 619 46 q 829 169 764 104 l 860 121 q 716 22 800 56 q 529 -11 632 -11 z "},"Ć":{"ha":926,"x_min":93,"x_max":860,"o":"m 529 -11 q 294 49 392 -11 q 145 222 197 110 q 93 490 93 335 q 145 758 93 646 q 294 930 197 869 q 529 990 392 990 q 716 957 632 990 q 860 858 800 924 l 829 810 q 692 904 764 875 q 528 933 619 933 q 252 817 349 933 q 156 490 156 701 q 252 163 156 279 q 528 46 349 46 q 692 75 619 46 q 829 169 764 104 l 860 121 q 716 22 800 56 q 529 -11 632 -11 m 504 1063 l 668 1299 l 746 1299 l 557 1063 l 504 1063 z "},"Č":{"ha":926,"x_min":93,"x_max":860,"o":"m 529 -11 q 294 49 392 -11 q 145 222 197 110 q 93 490 93 335 q 145 758 93 646 q 294 930 197 869 q 529 990 392 990 q 716 957 632 990 q 860 858 800 924 l 829 810 q 692 904 764 875 q 528 933 619 933 q 252 817 349 933 q 156 490 156 701 q 252 163 156 279 q 528 46 349 46 q 692 75 619 46 q 829 169 764 104 l 860 121 q 716 22 800 56 q 529 -11 632 -11 m 497 1063 l 329 1299 l 381 1299 l 531 1115 l 681 1299 l 732 1299 l 564 1063 l 497 1063 z "},"Ç":{"ha":926,"x_min":93,"x_max":860,"o":"m 529 -11 q 294 49 392 -11 q 145 222 197 110 q 93 490 93 335 q 145 758 93 646 q 294 930 197 869 q 529 990 392 990 q 716 957 632 990 q 860 858 800 924 l 829 810 q 692 904 764 875 q 528 933 619 933 q 252 817 349 933 q 156 490 156 701 q 252 163 156 279 q 528 46 349 46 q 692 75 619 46 q 829 169 764 104 l 860 121 q 716 22 800 56 q 529 -11 632 -11 m 535 -264 q 474 -257 503 -264 q 426 -239 446 -250 l 439 -192 q 486 -209 465 -204 q 540 -214 507 -214 q 602 -199 578 -214 q 626 -154 626 -183 q 613 -122 626 -133 q 572 -110 600 -110 q 541 -112 557 -110 q 501 -124 525 -115 l 481 -106 l 501 28 l 554 28 l 536 -76 l 511 -74 q 544 -67 528 -69 q 574 -64 560 -64 q 628 -74 604 -64 q 667 -105 653 -85 q 682 -154 682 -125 q 663 -211 682 -186 q 612 -250 644 -236 q 535 -264 579 -264 z "},"Ḉ":{"ha":926,"x_min":93,"x_max":860,"o":"m 529 -11 q 294 49 392 -11 q 145 222 197 110 q 93 490 93 335 q 145 758 93 646 q 294 930 197 869 q 529 990 392 990 q 716 957 632 990 q 860 858 800 924 l 829 810 q 692 904 764 875 q 528 933 619 933 q 252 817 349 933 q 156 490 156 701 q 252 163 156 279 q 528 46 349 46 q 692 75 619 46 q 829 169 764 104 l 860 121 q 716 22 800 56 q 529 -11 632 -11 m 535 -264 q 474 -257 503 -264 q 426 -239 446 -250 l 439 -192 q 486 -209 465 -204 q 540 -214 507 -214 q 602 -199 578 -214 q 626 -154 626 -183 q 613 -122 626 -133 q 572 -110 600 -110 q 541 -112 557 -110 q 501 -124 525 -115 l 481 -106 l 501 28 l 554 28 l 536 -76 l 511 -74 q 544 -67 528 -69 q 574 -64 560 -64 q 628 -74 604 -64 q 667 -105 653 -85 q 682 -154 682 -125 q 663 -211 682 -186 q 612 -250 644 -236 q 535 -264 579 -264 m 504 1063 l 668 1299 l 746 1299 l 557 1063 l 504 1063 z "},"Ĉ":{"ha":926,"x_min":93,"x_max":860,"o":"m 529 -11 q 294 49 392 -11 q 145 222 197 110 q 93 490 93 335 q 145 758 93 646 q 294 930 197 869 q 529 990 392 990 q 716 957 632 990 q 860 858 800 924 l 829 810 q 692 904 764 875 q 528 933 619 933 q 252 817 349 933 q 156 490 156 701 q 252 163 156 279 q 528 46 349 46 q 692 75 619 46 q 829 169 764 104 l 860 121 q 716 22 800 56 q 529 -11 632 -11 m 329 1063 l 497 1299 l 564 1299 l 732 1063 l 681 1063 l 531 1246 l 381 1063 l 329 1063 z "},"Ċ":{"ha":926,"x_min":93,"x_max":860,"o":"m 529 -11 q 294 49 392 -11 q 145 222 197 110 q 93 490 93 335 q 145 758 93 646 q 294 930 197 869 q 529 990 392 990 q 716 957 632 990 q 860 858 800 924 l 829 810 q 692 904 764 875 q 528 933 619 933 q 252 817 349 933 q 156 490 156 701 q 252 163 156 279 q 528 46 349 46 q 692 75 619 46 q 829 169 764 104 l 860 121 q 716 22 800 56 q 529 -11 632 -11 m 488 1136 l 488 1224 l 574 1224 l 574 1136 l 488 1136 z "},"D":{"ha":1007,"x_min":133,"x_max":914,"o":"m 133 0 l 133 979 l 435 979 q 696 924 589 979 q 858 759 803 868 q 914 490 914 650 q 858 222 914 331 q 696 56 803 113 q 435 0 589 0 l 133 0 m 192 54 l 429 54 q 746 164 640 54 q 851 490 851 274 q 746 816 851 707 q 429 925 640 925 l 192 925 l 192 54 z "},"Ǆ":{"ha":1785,"x_min":133,"x_max":1753,"o":"m 133 0 l 133 979 l 435 979 q 696 924 589 979 q 858 759 803 868 q 914 490 914 650 q 858 222 914 331 q 696 56 803 113 q 435 0 589 0 l 133 0 m 192 54 l 429 54 q 746 164 640 54 q 851 490 851 274 q 746 816 851 707 q 429 925 640 925 l 192 925 l 192 54 m 1054 0 l 1054 43 l 1679 957 l 1679 925 l 1054 925 l 1054 979 l 1733 979 l 1733 936 l 1108 22 l 1108 54 l 1753 54 l 1753 0 l 1054 0 m 1369 1063 l 1201 1299 l 1253 1299 l 1403 1115 l 1553 1299 l 1604 1299 l 1436 1063 l 1369 1063 z "},"Ð":{"ha":1007,"x_min":8,"x_max":914,"o":"m 133 0 l 133 979 l 435 979 q 696 924 589 979 q 858 759 803 868 q 914 490 914 650 q 858 222 914 331 q 696 56 803 113 q 435 0 589 0 l 133 0 m 192 54 l 429 54 q 746 164 640 54 q 851 490 851 274 q 746 816 851 707 q 429 925 640 925 l 192 925 l 192 54 m 8 472 l 8 524 l 472 524 l 472 472 l 8 472 z "},"Ď":{"ha":1007,"x_min":133,"x_max":914,"o":"m 133 0 l 133 979 l 435 979 q 696 924 589 979 q 858 759 803 868 q 914 490 914 650 q 858 222 914 331 q 696 56 803 113 q 435 0 589 0 l 133 0 m 192 54 l 429 54 q 746 164 640 54 q 851 490 851 274 q 746 816 851 707 q 429 925 640 925 l 192 925 l 192 54 m 469 1063 l 301 1299 l 353 1299 l 503 1115 l 653 1299 l 704 1299 l 536 1063 l 469 1063 z "},"Đ":{"ha":1007,"x_min":8,"x_max":914,"o":"m 133 0 l 133 979 l 435 979 q 696 924 589 979 q 858 759 803 868 q 914 490 914 650 q 858 222 914 331 q 696 56 803 113 q 435 0 589 0 l 133 0 m 192 54 l 429 54 q 746 164 640 54 q 851 490 851 274 q 746 816 851 707 q 429 925 640 925 l 192 925 l 192 54 m 8 472 l 8 524 l 472 524 l 472 472 l 8 472 z "},"Ḍ":{"ha":1007,"x_min":133,"x_max":914,"o":"m 133 0 l 133 979 l 435 979 q 696 924 589 979 q 858 759 803 868 q 914 490 914 650 q 858 222 914 331 q 696 56 803 113 q 435 0 589 0 l 133 0 m 192 54 l 429 54 q 746 164 640 54 q 851 490 851 274 q 746 816 851 707 q 429 925 640 925 l 192 925 l 192 54 m 460 -239 l 460 -151 l 549 -151 l 549 -239 l 460 -239 z "},"Ɗ":{"ha":1147,"x_min":0,"x_max":1054,"o":"m 274 0 l 274 925 l 221 925 q 95 885 136 925 q 54 761 54 846 l 54 703 l 0 703 l 0 765 q 56 926 0 872 q 222 979 111 979 l 575 979 q 836 924 729 979 q 999 759 943 868 q 1054 490 1054 650 q 999 222 1054 331 q 836 56 943 113 q 575 0 729 0 l 274 0 m 332 54 l 569 54 q 886 164 781 54 q 992 490 992 274 q 886 816 992 707 q 569 925 781 925 l 332 925 l 332 54 z "},"Ḏ":{"ha":1007,"x_min":133,"x_max":914,"o":"m 133 0 l 133 979 l 435 979 q 696 924 589 979 q 858 759 803 868 q 914 490 914 650 q 858 222 914 331 q 696 56 803 113 q 435 0 589 0 l 133 0 m 192 54 l 429 54 q 746 164 640 54 q 851 490 851 274 q 746 816 851 707 q 429 925 640 925 l 192 925 l 192 54 m 310 -206 l 310 -153 l 699 -153 l 699 -206 l 310 -206 z "},"ǅ":{"ha":1638,"x_min":133,"x_max":1592,"o":"m 133 0 l 133 979 l 435 979 q 696 924 589 979 q 858 759 803 868 q 914 490 914 650 q 858 222 914 331 q 696 56 803 113 q 435 0 589 0 l 133 0 m 192 54 l 429 54 q 746 164 640 54 q 851 490 851 274 q 746 816 851 707 q 429 925 640 925 l 192 925 l 192 54 m 1090 0 l 1090 42 l 1519 640 l 1519 622 l 1090 622 l 1090 672 l 1576 672 l 1576 631 l 1146 31 l 1146 50 l 1592 50 l 1592 0 l 1090 0 m 1300 763 l 1149 1040 l 1197 1040 l 1333 817 l 1469 1040 l 1518 1040 l 1367 763 l 1300 763 z "},"E":{"ha":792,"x_min":133,"x_max":722,"o":"m 133 0 l 133 979 l 722 979 l 722 925 l 192 925 l 192 524 l 694 524 l 694 469 l 192 469 l 192 54 l 722 54 l 722 0 l 133 0 z "},"É":{"ha":792,"x_min":133,"x_max":722,"o":"m 133 0 l 133 979 l 722 979 l 722 925 l 192 925 l 192 524 l 694 524 l 694 469 l 192 469 l 192 54 l 722 54 l 722 0 l 133 0 m 418 1063 l 582 1299 l 660 1299 l 471 1063 l 418 1063 z "},"Ĕ":{"ha":792,"x_min":133,"x_max":722,"o":"m 133 0 l 133 979 l 722 979 l 722 925 l 192 925 l 192 524 l 694 524 l 694 469 l 192 469 l 192 54 l 722 54 l 722 0 l 133 0 m 444 1056 q 296 1117 356 1056 q 226 1288 236 1179 l 272 1293 q 325 1155 279 1204 q 444 1106 371 1106 q 565 1155 518 1106 q 617 1293 611 1204 l 663 1288 q 593 1117 653 1179 q 444 1056 533 1056 z "},"Ě":{"ha":792,"x_min":133,"x_max":722,"o":"m 133 0 l 133 979 l 722 979 l 722 925 l 192 925 l 192 524 l 694 524 l 694 469 l 192 469 l 192 54 l 722 54 l 722 0 l 133 0 m 411 1063 l 243 1299 l 294 1299 l 444 1115 l 594 1299 l 646 1299 l 478 1063 l 411 1063 z "},"Ȩ":{"ha":792,"x_min":133,"x_max":722,"o":"m 133 0 l 133 979 l 722 979 l 722 925 l 192 925 l 192 524 l 694 524 l 694 469 l 192 469 l 192 54 l 722 54 l 722 0 l 133 0 m 451 -264 q 391 -257 419 -264 q 343 -239 363 -250 l 356 -192 q 403 -209 382 -204 q 457 -214 424 -214 q 519 -199 494 -214 q 543 -154 543 -183 q 530 -122 543 -133 q 489 -110 517 -110 q 458 -112 474 -110 q 418 -124 442 -115 l 397 -106 l 418 28 l 471 28 l 453 -76 l 428 -74 q 460 -67 444 -69 q 490 -64 476 -64 q 545 -74 521 -64 q 584 -105 569 -85 q 599 -154 599 -125 q 580 -211 599 -186 q 528 -250 561 -236 q 451 -264 496 -264 z "},"Ḝ":{"ha":792,"x_min":133,"x_max":722,"o":"m 133 0 l 133 979 l 722 979 l 722 925 l 192 925 l 192 524 l 694 524 l 694 469 l 192 469 l 192 54 l 722 54 l 722 0 l 133 0 m 451 -264 q 391 -257 419 -264 q 343 -239 363 -250 l 356 -192 q 403 -209 382 -204 q 457 -214 424 -214 q 519 -199 494 -214 q 543 -154 543 -183 q 530 -122 543 -133 q 489 -110 517 -110 q 458 -112 474 -110 q 418 -124 442 -115 l 397 -106 l 418 28 l 471 28 l 453 -76 l 428 -74 q 460 -67 444 -69 q 490 -64 476 -64 q 545 -74 521 -64 q 584 -105 569 -85 q 599 -154 599 -125 q 580 -211 599 -186 q 528 -250 561 -236 q 451 -264 496 -264 m 444 1056 q 296 1117 356 1056 q 226 1288 236 1179 l 272 1293 q 325 1155 279 1204 q 444 1106 371 1106 q 565 1155 518 1106 q 617 1293 611 1204 l 663 1288 q 593 1117 653 1179 q 444 1056 533 1056 z "},"Ê":{"ha":792,"x_min":133,"x_max":722,"o":"m 133 0 l 133 979 l 722 979 l 722 925 l 192 925 l 192 524 l 694 524 l 694 469 l 192 469 l 192 54 l 722 54 l 722 0 l 133 0 m 243 1063 l 411 1299 l 478 1299 l 646 1063 l 594 1063 l 444 1246 l 294 1063 l 243 1063 z "},"Ế":{"ha":792,"x_min":133,"x_max":754,"o":"m 133 0 l 133 979 l 722 979 l 722 925 l 192 925 l 192 524 l 694 524 l 694 469 l 192 469 l 192 54 l 722 54 l 722 0 l 133 0 m 260 1063 l 411 1285 l 478 1285 l 629 1063 l 582 1063 l 444 1233 l 307 1063 l 260 1063 m 557 1203 l 679 1411 l 754 1411 l 607 1203 l 557 1203 z "},"Ệ":{"ha":792,"x_min":133,"x_max":722,"o":"m 133 0 l 133 979 l 722 979 l 722 925 l 192 925 l 192 524 l 694 524 l 694 469 l 192 469 l 192 54 l 722 54 l 722 0 l 133 0 m 400 -239 l 400 -151 l 489 -151 l 489 -239 l 400 -239 m 243 1063 l 411 1299 l 478 1299 l 646 1063 l 594 1063 l 444 1246 l 294 1063 l 243 1063 z "},"Ề":{"ha":792,"x_min":133,"x_max":722,"o":"m 133 0 l 133 979 l 722 979 l 722 925 l 192 925 l 192 524 l 694 524 l 694 469 l 192 469 l 192 54 l 722 54 l 722 0 l 133 0 m 260 1063 l 411 1285 l 478 1285 l 629 1063 l 582 1063 l 444 1233 l 307 1063 l 260 1063 m 614 1203 l 467 1411 l 542 1411 l 664 1203 l 614 1203 z "},"Ể":{"ha":792,"x_min":133,"x_max":722,"o":"m 133 0 l 133 979 l 722 979 l 722 925 l 192 925 l 192 524 l 694 524 l 694 469 l 192 469 l 192 54 l 722 54 l 722 0 l 133 0 m 260 1063 l 411 1285 l 478 1285 l 629 1063 l 582 1063 l 444 1233 l 307 1063 l 260 1063 m 574 1203 q 588 1256 574 1236 q 620 1287 601 1275 q 653 1310 639 1299 q 667 1340 667 1322 q 649 1365 667 1358 q 594 1371 632 1371 q 555 1367 576 1371 q 507 1354 533 1364 l 494 1394 q 544 1411 517 1406 q 600 1417 571 1417 q 690 1397 658 1417 q 721 1344 721 1378 q 706 1299 721 1315 q 671 1272 690 1283 q 636 1244 651 1260 q 621 1203 621 1229 l 574 1203 z "},"Ễ":{"ha":792,"x_min":133,"x_max":722,"o":"m 133 0 l 133 979 l 722 979 l 722 925 l 192 925 l 192 524 l 694 524 l 694 469 l 192 469 l 192 54 l 722 54 l 722 0 l 133 0 m 260 1063 l 411 1243 l 478 1243 l 629 1063 l 582 1063 l 444 1196 l 307 1063 l 260 1063 m 288 1275 l 242 1278 q 279 1378 249 1344 q 357 1411 310 1411 q 406 1400 383 1411 q 457 1365 428 1389 q 503 1335 488 1342 q 532 1328 518 1328 q 579 1348 564 1328 q 601 1414 594 1368 l 647 1411 q 612 1311 642 1344 q 533 1278 582 1278 q 484 1290 507 1278 q 425 1329 461 1301 q 394 1351 411 1340 q 357 1361 376 1361 q 310 1341 326 1361 q 288 1275 294 1321 z "},"Ȅ":{"ha":792,"x_min":133,"x_max":722,"o":"m 133 0 l 133 979 l 722 979 l 722 925 l 192 925 l 192 524 l 694 524 l 694 469 l 192 469 l 192 54 l 722 54 l 722 0 l 133 0 m 501 1063 l 347 1299 l 419 1299 l 539 1063 l 501 1063 m 350 1063 l 197 1299 l 269 1299 l 388 1063 l 350 1063 z "},"Ë":{"ha":792,"x_min":133,"x_max":722,"o":"m 133 0 l 133 979 l 722 979 l 722 925 l 192 925 l 192 524 l 694 524 l 694 469 l 192 469 l 192 54 l 722 54 l 722 0 l 133 0 m 514 1139 l 514 1222 l 599 1222 l 599 1139 l 514 1139 m 290 1139 l 290 1222 l 375 1222 l 375 1139 l 290 1139 z "},"Ė":{"ha":792,"x_min":133,"x_max":722,"o":"m 133 0 l 133 979 l 722 979 l 722 925 l 192 925 l 192 524 l 694 524 l 694 469 l 192 469 l 192 54 l 722 54 l 722 0 l 133 0 m 401 1136 l 401 1224 l 488 1224 l 488 1136 l 401 1136 z "},"Ẹ":{"ha":792,"x_min":133,"x_max":722,"o":"m 133 0 l 133 979 l 722 979 l 722 925 l 192 925 l 192 524 l 694 524 l 694 469 l 192 469 l 192 54 l 722 54 l 722 0 l 133 0 m 400 -239 l 400 -151 l 489 -151 l 489 -239 l 400 -239 z "},"È":{"ha":792,"x_min":133,"x_max":722,"o":"m 133 0 l 133 979 l 722 979 l 722 925 l 192 925 l 192 524 l 694 524 l 694 469 l 192 469 l 192 54 l 722 54 l 722 0 l 133 0 m 418 1063 l 229 1299 l 307 1299 l 471 1063 l 418 1063 z "},"Ẻ":{"ha":792,"x_min":133,"x_max":722,"o":"m 133 0 l 133 979 l 722 979 l 722 925 l 192 925 l 192 524 l 694 524 l 694 469 l 192 469 l 192 54 l 722 54 l 722 0 l 133 0 m 418 1063 l 418 1082 q 433 1131 418 1113 q 466 1163 447 1150 q 499 1189 485 1176 q 514 1219 514 1201 q 497 1246 514 1236 q 442 1256 479 1256 q 399 1251 421 1256 q 351 1233 378 1246 l 339 1279 q 389 1299 361 1292 q 447 1306 417 1306 q 538 1283 506 1306 q 571 1222 571 1260 q 556 1176 571 1193 q 521 1147 540 1158 q 486 1119 501 1135 q 471 1076 471 1104 l 471 1063 l 418 1063 z "},"Ȇ":{"ha":792,"x_min":133,"x_max":722,"o":"m 133 0 l 133 979 l 722 979 l 722 925 l 192 925 l 192 524 l 694 524 l 694 469 l 192 469 l 192 54 l 722 54 l 722 0 l 133 0 m 272 1056 l 226 1061 q 296 1231 236 1169 q 444 1293 356 1293 q 593 1231 533 1293 q 663 1061 653 1169 l 617 1056 q 565 1194 611 1146 q 444 1243 518 1243 q 325 1194 371 1243 q 272 1056 279 1146 z "},"Ē":{"ha":792,"x_min":133,"x_max":722,"o":"m 133 0 l 133 979 l 722 979 l 722 925 l 192 925 l 192 524 l 694 524 l 694 469 l 192 469 l 192 54 l 722 54 l 722 0 l 133 0 m 229 1142 l 229 1194 l 660 1194 l 660 1142 l 229 1142 z "},"Ḗ":{"ha":792,"x_min":133,"x_max":722,"o":"m 133 0 l 133 979 l 722 979 l 722 925 l 192 925 l 192 524 l 694 524 l 694 469 l 192 469 l 192 54 l 722 54 l 722 0 l 133 0 m 250 1106 l 250 1158 l 639 1158 l 639 1106 l 250 1106 m 419 1210 l 556 1418 l 631 1418 l 469 1210 l 419 1210 z "},"Ḕ":{"ha":792,"x_min":133,"x_max":722,"o":"m 133 0 l 133 979 l 722 979 l 722 925 l 192 925 l 192 524 l 694 524 l 694 469 l 192 469 l 192 54 l 722 54 l 722 0 l 133 0 m 419 1210 l 258 1418 l 333 1418 l 469 1210 l 419 1210 m 250 1106 l 250 1158 l 639 1158 l 639 1106 l 250 1106 z "},"Ę":{"ha":792,"x_min":133,"x_max":756,"o":"m 133 0 l 133 979 l 722 979 l 722 925 l 192 925 l 192 524 l 694 524 l 694 469 l 192 469 l 192 54 l 722 54 l 722 0 l 133 0 m 657 -264 q 563 -229 600 -264 q 526 -136 526 -194 q 559 -35 526 -83 q 651 43 592 13 l 681 0 q 637 -26 660 -8 q 597 -71 614 -44 q 581 -131 581 -97 q 605 -194 581 -174 q 664 -214 629 -214 q 700 -210 682 -214 q 738 -196 718 -206 l 756 -240 q 715 -257 742 -250 q 657 -264 689 -264 z "},"Ẽ":{"ha":792,"x_min":133,"x_max":722,"o":"m 133 0 l 133 979 l 722 979 l 722 925 l 192 925 l 192 524 l 694 524 l 694 469 l 192 469 l 192 54 l 722 54 l 722 0 l 133 0 m 217 1100 l 172 1103 q 221 1227 182 1183 q 321 1271 260 1271 q 385 1256 353 1271 q 463 1207 417 1240 q 529 1165 507 1176 q 572 1153 551 1153 q 638 1184 614 1153 q 672 1274 663 1215 l 717 1271 q 669 1147 707 1190 q 569 1103 631 1103 q 506 1118 539 1103 q 422 1169 472 1133 q 360 1210 383 1199 q 317 1221 336 1221 q 251 1190 275 1221 q 217 1100 226 1158 z "},"Ə":{"ha":1043,"x_min":93,"x_max":950,"o":"m 528 -11 q 285 50 382 -11 q 141 222 189 111 q 93 483 93 333 l 93 522 l 894 522 l 894 468 l 138 468 l 154 490 q 247 160 154 275 q 526 46 339 46 q 792 163 696 46 q 888 490 888 281 q 784 817 888 701 q 492 933 681 933 q 360 921 418 933 q 254 881 303 908 q 158 810 206 854 l 129 858 q 230 932 175 903 q 351 976 285 961 q 493 990 417 990 q 737 930 635 990 q 894 758 839 869 q 950 490 950 646 q 921 281 950 374 q 836 123 892 188 q 703 24 781 58 q 528 -11 625 -11 z "},"F":{"ha":744,"x_min":133,"x_max":708,"o":"m 133 0 l 133 979 l 708 979 l 708 925 l 192 925 l 192 524 l 681 524 l 681 469 l 192 469 l 192 0 l 133 0 z "},"G":{"ha":997,"x_min":93,"x_max":872,"o":"m 558 -11 q 303 48 407 -11 q 146 219 199 107 q 93 490 93 332 q 145 758 93 646 q 294 930 197 869 q 529 990 392 990 q 660 976 599 990 q 773 932 721 961 q 867 858 825 903 l 836 810 q 695 904 768 875 q 528 933 622 933 q 252 817 349 933 q 156 490 156 701 q 256 160 156 274 q 557 46 356 46 q 704 60 635 46 q 833 101 774 75 l 817 49 l 817 439 l 547 439 l 547 493 l 872 493 l 872 56 q 786 22 839 38 q 674 -2 733 7 q 558 -11 614 -11 z "},"Ğ":{"ha":997,"x_min":93,"x_max":872,"o":"m 558 -11 q 303 48 407 -11 q 146 219 199 107 q 93 490 93 332 q 145 758 93 646 q 294 930 197 869 q 529 990 392 990 q 660 976 599 990 q 773 932 721 961 q 867 858 825 903 l 836 810 q 695 904 768 875 q 528 933 622 933 q 252 817 349 933 q 156 490 156 701 q 256 160 156 274 q 557 46 356 46 q 704 60 635 46 q 833 101 774 75 l 817 49 l 817 439 l 547 439 l 547 493 l 872 493 l 872 56 q 786 22 839 38 q 674 -2 733 7 q 558 -11 614 -11 m 532 1056 q 383 1117 443 1056 q 314 1288 324 1179 l 360 1293 q 413 1155 367 1204 q 532 1106 458 1106 q 652 1155 606 1106 q 704 1293 699 1204 l 750 1288 q 681 1117 740 1179 q 532 1056 621 1056 z "},"Ǧ":{"ha":997,"x_min":93,"x_max":872,"o":"m 558 -11 q 303 48 407 -11 q 146 219 199 107 q 93 490 93 332 q 145 758 93 646 q 294 930 197 869 q 529 990 392 990 q 660 976 599 990 q 773 932 721 961 q 867 858 825 903 l 836 810 q 695 904 768 875 q 528 933 622 933 q 252 817 349 933 q 156 490 156 701 q 256 160 156 274 q 557 46 356 46 q 704 60 635 46 q 833 101 774 75 l 817 49 l 817 439 l 547 439 l 547 493 l 872 493 l 872 56 q 786 22 839 38 q 674 -2 733 7 q 558 -11 614 -11 m 499 1063 l 331 1299 l 382 1299 l 532 1115 l 682 1299 l 733 1299 l 565 1063 l 499 1063 z "},"Ĝ":{"ha":997,"x_min":93,"x_max":872,"o":"m 558 -11 q 303 48 407 -11 q 146 219 199 107 q 93 490 93 332 q 145 758 93 646 q 294 930 197 869 q 529 990 392 990 q 660 976 599 990 q 773 932 721 961 q 867 858 825 903 l 836 810 q 695 904 768 875 q 528 933 622 933 q 252 817 349 933 q 156 490 156 701 q 256 160 156 274 q 557 46 356 46 q 704 60 635 46 q 833 101 774 75 l 817 49 l 817 439 l 547 439 l 547 493 l 872 493 l 872 56 q 786 22 839 38 q 674 -2 733 7 q 558 -11 614 -11 m 331 1063 l 499 1299 l 565 1299 l 733 1063 l 682 1063 l 532 1246 l 382 1063 l 331 1063 z "},"Ģ":{"ha":997,"x_min":93,"x_max":872,"o":"m 558 -11 q 303 48 407 -11 q 146 219 199 107 q 93 490 93 332 q 145 758 93 646 q 294 930 197 869 q 529 990 392 990 q 660 976 599 990 q 773 932 721 961 q 867 858 825 903 l 836 810 q 695 904 768 875 q 528 933 622 933 q 252 817 349 933 q 156 490 156 701 q 256 160 156 274 q 557 46 356 46 q 704 60 635 46 q 833 101 774 75 l 817 49 l 817 439 l 547 439 l 547 493 l 872 493 l 872 56 q 786 22 839 38 q 674 -2 733 7 q 558 -11 614 -11 m 525 -360 l 489 -332 q 531 -265 521 -296 q 542 -200 542 -235 l 563 -210 l 493 -210 l 493 -119 l 590 -119 l 590 -194 q 574 -284 590 -242 q 525 -360 557 -326 z "},"Ġ":{"ha":997,"x_min":93,"x_max":872,"o":"m 558 -11 q 303 48 407 -11 q 146 219 199 107 q 93 490 93 332 q 145 758 93 646 q 294 930 197 869 q 529 990 392 990 q 660 976 599 990 q 773 932 721 961 q 867 858 825 903 l 836 810 q 695 904 768 875 q 528 933 622 933 q 252 817 349 933 q 156 490 156 701 q 256 160 156 274 q 557 46 356 46 q 704 60 635 46 q 833 101 774 75 l 817 49 l 817 439 l 547 439 l 547 493 l 872 493 l 872 56 q 786 22 839 38 q 674 -2 733 7 q 558 -11 614 -11 m 489 1136 l 489 1224 l 575 1224 l 575 1136 l 489 1136 z "},"Ḡ":{"ha":997,"x_min":93,"x_max":872,"o":"m 558 -11 q 303 48 407 -11 q 146 219 199 107 q 93 490 93 332 q 145 758 93 646 q 294 930 197 869 q 529 990 392 990 q 660 976 599 990 q 773 932 721 961 q 867 858 825 903 l 836 810 q 695 904 768 875 q 528 933 622 933 q 252 817 349 933 q 156 490 156 701 q 256 160 156 274 q 557 46 356 46 q 704 60 635 46 q 833 101 774 75 l 817 49 l 817 439 l 547 439 l 547 493 l 872 493 l 872 56 q 786 22 839 38 q 674 -2 733 7 q 558 -11 614 -11 m 317 1142 l 317 1194 l 747 1194 l 747 1142 l 317 1142 z "},"H":{"ha":1043,"x_min":133,"x_max":910,"o":"m 133 0 l 133 979 l 192 979 l 192 524 l 851 524 l 851 979 l 910 979 l 910 0 l 851 0 l 851 469 l 192 469 l 192 0 l 133 0 z "},"Ħ":{"ha":1085,"x_min":21,"x_max":1064,"o":"m 154 0 l 154 732 l 21 732 l 21 785 l 154 785 l 154 979 l 213 979 l 213 785 l 872 785 l 872 979 l 931 979 l 931 785 l 1064 785 l 1064 732 l 931 732 l 931 0 l 872 0 l 872 469 l 213 469 l 213 0 l 154 0 m 213 524 l 872 524 l 872 732 l 213 732 l 213 524 z "},"Ḫ":{"ha":1043,"x_min":133,"x_max":910,"o":"m 133 0 l 133 979 l 192 979 l 192 524 l 851 524 l 851 979 l 910 979 l 910 0 l 851 0 l 851 469 l 192 469 l 192 0 l 133 0 m 522 -299 q 383 -244 436 -299 q 322 -94 329 -190 l 368 -89 q 414 -207 374 -165 q 522 -249 454 -249 q 631 -207 592 -249 q 676 -89 671 -165 l 722 -94 q 662 -244 715 -190 q 522 -299 608 -299 z "},"Ĥ":{"ha":1043,"x_min":133,"x_max":910,"o":"m 133 0 l 133 979 l 192 979 l 192 524 l 851 524 l 851 979 l 910 979 l 910 0 l 851 0 l 851 469 l 192 469 l 192 0 l 133 0 m 319 1063 l 488 1299 l 554 1299 l 722 1063 l 671 1063 l 521 1246 l 371 1063 l 319 1063 z "},"Ḥ":{"ha":1043,"x_min":133,"x_max":910,"o":"m 133 0 l 133 979 l 192 979 l 192 524 l 851 524 l 851 979 l 910 979 l 910 0 l 851 0 l 851 469 l 192 469 l 192 0 l 133 0 m 478 -239 l 478 -151 l 567 -151 l 567 -239 l 478 -239 z "},"I":{"ha":325,"x_min":133,"x_max":192,"o":"m 133 0 l 133 979 l 192 979 l 192 0 l 133 0 z "},"Ĳ":{"ha":738,"x_min":133,"x_max":604,"o":"m 133 0 l 133 979 l 192 979 l 192 0 l 133 0 m 317 -8 l 311 44 l 382 50 q 471 79 435 54 q 526 148 507 104 q 546 249 546 192 l 546 979 l 604 979 l 604 246 q 579 118 604 172 q 506 33 554 64 q 386 -3 457 3 l 317 -8 z "},"Í":{"ha":325,"x_min":133,"x_max":378,"o":"m 133 0 l 133 979 l 192 979 l 192 0 l 133 0 m 136 1063 l 300 1299 l 378 1299 l 189 1063 l 136 1063 z "},"Ĭ":{"ha":325,"x_min":-56,"x_max":381,"o":"m 133 0 l 133 979 l 192 979 l 192 0 l 133 0 m 163 1056 q 14 1117 74 1056 q -56 1288 -46 1179 l -10 1293 q 43 1155 -3 1204 q 163 1106 89 1106 q 283 1155 236 1106 q 335 1293 329 1204 l 381 1288 q 311 1117 371 1179 q 163 1056 251 1056 z "},"Î":{"ha":325,"x_min":-39,"x_max":364,"o":"m 133 0 l 133 979 l 192 979 l 192 0 l 133 0 m -39 1063 l 129 1299 l 196 1299 l 364 1063 l 313 1063 l 163 1246 l 13 1063 l -39 1063 z "},"Ȉ":{"ha":325,"x_min":-85,"x_max":257,"o":"m 133 0 l 133 979 l 192 979 l 192 0 l 133 0 m 219 1063 l 65 1299 l 138 1299 l 257 1063 l 219 1063 m 68 1063 l -85 1299 l -12 1299 l 106 1063 l 68 1063 z "},"Ï":{"ha":325,"x_min":8,"x_max":317,"o":"m 133 0 l 133 979 l 192 979 l 192 0 l 133 0 m 232 1139 l 232 1222 l 317 1222 l 317 1139 l 232 1139 m 8 1139 l 8 1222 l 93 1222 l 93 1139 l 8 1139 z "},"Ḯ":{"ha":325,"x_min":8,"x_max":349,"o":"m 133 0 l 133 979 l 192 979 l 192 0 l 133 0 m 138 1210 l 274 1418 l 349 1418 l 188 1210 l 138 1210 m 8 1071 l 8 1154 l 93 1154 l 93 1071 l 8 1071 m 232 1071 l 232 1154 l 317 1154 l 317 1071 l 232 1071 z "},"İ":{"ha":325,"x_min":119,"x_max":206,"o":"m 133 0 l 133 979 l 192 979 l 192 0 l 133 0 m 119 1136 l 119 1224 l 206 1224 l 206 1136 l 119 1136 z "},"Ị":{"ha":325,"x_min":118,"x_max":207,"o":"m 133 0 l 133 979 l 192 979 l 192 0 l 133 0 m 118 -239 l 118 -151 l 207 -151 l 207 -239 l 118 -239 z "},"Ì":{"ha":325,"x_min":-53,"x_max":192,"o":"m 133 0 l 133 979 l 192 979 l 192 0 l 133 0 m 136 1063 l -53 1299 l 25 1299 l 189 1063 l 136 1063 z "},"Ỉ":{"ha":325,"x_min":57,"x_max":289,"o":"m 133 0 l 133 979 l 192 979 l 192 0 l 133 0 m 136 1063 l 136 1082 q 151 1131 136 1113 q 184 1163 165 1150 q 217 1189 203 1176 q 232 1219 232 1201 q 215 1246 232 1236 q 160 1256 197 1256 q 117 1251 139 1256 q 69 1233 96 1246 l 57 1279 q 107 1299 79 1292 q 165 1306 135 1306 q 256 1283 224 1306 q 289 1222 289 1260 q 274 1176 289 1193 q 239 1147 258 1158 q 204 1119 219 1135 q 189 1076 189 1104 l 189 1063 l 136 1063 z "},"Ȋ":{"ha":325,"x_min":-56,"x_max":381,"o":"m 133 0 l 133 979 l 192 979 l 192 0 l 133 0 m -10 1056 l -56 1061 q 14 1231 -46 1169 q 163 1293 74 1293 q 311 1231 251 1293 q 381 1061 371 1169 l 335 1056 q 283 1194 329 1146 q 163 1243 236 1243 q 43 1194 89 1243 q -10 1056 -3 1146 z "},"Ī":{"ha":325,"x_min":-53,"x_max":378,"o":"m 133 0 l 133 979 l 192 979 l 192 0 l 133 0 m -53 1142 l -53 1194 l 378 1194 l 378 1142 l -53 1142 z "},"Į":{"ha":325,"x_min":38,"x_max":267,"o":"m 133 0 l 133 979 l 192 979 l 192 0 l 133 0 m 168 -264 q 74 -229 111 -264 q 38 -136 38 -194 q 70 -35 38 -83 q 163 43 103 13 l 192 0 q 148 -26 171 -8 q 108 -71 125 -44 q 92 -131 92 -97 q 116 -194 92 -174 q 175 -214 140 -214 q 211 -210 193 -214 q 249 -196 229 -206 l 267 -240 q 226 -257 253 -250 q 168 -264 200 -264 z "},"Ĩ":{"ha":325,"x_min":-110,"x_max":435,"o":"m 133 0 l 133 979 l 192 979 l 192 0 l 133 0 m -65 1100 l -110 1103 q -61 1227 -100 1183 q 39 1271 -22 1271 q 103 1256 71 1271 q 181 1207 135 1240 q 247 1165 225 1176 q 290 1153 269 1153 q 356 1184 332 1153 q 390 1274 381 1215 l 435 1271 q 387 1147 425 1190 q 288 1103 349 1103 q 224 1118 257 1103 q 140 1169 190 1133 q 78 1210 101 1199 q 35 1221 54 1221 q -31 1190 -7 1221 q -65 1100 -56 1158 z "},"J":{"ha":413,"x_min":-14,"x_max":279,"o":"m -8 -8 l -14 44 l 57 50 q 146 79 110 54 q 201 148 182 104 q 221 249 221 192 l 221 979 l 279 979 l 279 246 q 254 118 279 172 q 181 33 229 64 q 61 -3 132 3 l -8 -8 z "},"Ĵ":{"ha":413,"x_min":-14,"x_max":451,"o":"m -8 -8 l -14 44 l 57 50 q 146 79 110 54 q 201 148 182 104 q 221 249 221 192 l 221 979 l 279 979 l 279 246 q 254 118 279 172 q 181 33 229 64 q 61 -3 132 3 l -8 -8 m 49 1063 l 217 1299 l 283 1299 l 451 1063 l 400 1063 l 250 1246 l 100 1063 l 49 1063 z "},"K":{"ha":819,"x_min":133,"x_max":825,"o":"m 133 0 l 133 979 l 192 979 l 192 524 l 194 524 l 707 979 l 789 979 l 219 475 l 222 519 l 825 0 l 739 0 l 194 469 l 192 469 l 192 0 l 133 0 z "},"Ķ":{"ha":819,"x_min":133,"x_max":825,"o":"m 133 0 l 133 979 l 192 979 l 192 524 l 194 524 l 707 979 l 789 979 l 219 475 l 222 519 l 825 0 l 739 0 l 194 469 l 192 469 l 192 0 l 133 0 m 403 -360 l 367 -332 q 409 -265 399 -296 q 419 -200 419 -235 l 440 -210 l 371 -210 l 371 -119 l 468 -119 l 468 -194 q 451 -284 468 -242 q 403 -360 435 -326 z "},"L":{"ha":732,"x_min":133,"x_max":714,"o":"m 133 0 l 133 979 l 192 979 l 192 54 l 714 54 l 714 0 l 133 0 z "},"Ǉ":{"ha":1200,"x_min":133,"x_max":1067,"o":"m 133 0 l 133 979 l 192 979 l 192 54 l 714 54 l 714 0 l 133 0 m 779 -8 l 774 44 l 844 50 q 933 79 897 54 q 989 148 969 104 q 1008 249 1008 192 l 1008 979 l 1067 979 l 1067 246 q 1042 118 1067 172 q 968 33 1017 64 q 849 -3 919 3 l 779 -8 z "},"Ĺ":{"ha":732,"x_min":133,"x_max":714,"o":"m 133 0 l 133 979 l 192 979 l 192 54 l 714 54 l 714 0 l 133 0 m 136 1063 l 300 1299 l 378 1299 l 189 1063 l 136 1063 z "},"Ľ":{"ha":732,"x_min":133,"x_max":714,"o":"m 133 0 l 133 979 l 192 979 l 192 54 l 714 54 l 714 0 l 133 0 m 361 679 l 361 979 l 429 979 l 403 679 l 361 679 z "},"Ļ":{"ha":732,"x_min":133,"x_max":714,"o":"m 133 0 l 133 979 l 192 979 l 192 54 l 714 54 l 714 0 l 133 0 m 407 -360 l 371 -332 q 413 -265 403 -296 q 424 -200 424 -235 l 444 -210 l 375 -210 l 375 -119 l 472 -119 l 472 -194 q 456 -284 472 -242 q 407 -360 439 -326 z "},"Ŀ":{"ha":732,"x_min":133,"x_max":714,"o":"m 133 0 l 133 979 l 192 979 l 192 54 l 714 54 l 714 0 l 133 0 m 486 489 l 486 583 l 581 583 l 581 489 l 486 489 z "},"Ḷ":{"ha":732,"x_min":133,"x_max":714,"o":"m 133 0 l 133 979 l 192 979 l 192 54 l 714 54 l 714 0 l 133 0 m 379 -239 l 379 -151 l 468 -151 l 468 -239 l 379 -239 z "},"ǈ":{"ha":1031,"x_min":133,"x_max":928,"o":"m 133 0 l 133 979 l 192 979 l 192 54 l 714 54 l 714 0 l 133 0 m 839 860 l 839 947 l 928 947 l 928 860 l 839 860 m 656 -268 l 651 -215 l 708 -211 q 817 -160 779 -206 q 854 -31 854 -114 l 854 672 l 913 672 l 913 -29 q 899 -125 913 -83 q 860 -197 886 -167 q 799 -244 835 -226 q 715 -264 763 -261 l 656 -268 z "},"Ḻ":{"ha":732,"x_min":133,"x_max":714,"o":"m 133 0 l 133 979 l 192 979 l 192 54 l 714 54 l 714 0 l 133 0 m 229 -206 l 229 -153 l 618 -153 l 618 -206 l 229 -206 z "},"Ł":{"ha":732,"x_min":-17,"x_max":714,"o":"m 133 0 l 133 979 l 192 979 l 192 54 l 714 54 l 714 0 l 133 0 m 11 385 l -17 432 l 433 690 l 461 644 l 11 385 z "},"M":{"ha":1172,"x_min":136,"x_max":1036,"o":"m 136 0 l 136 979 l 186 979 l 607 176 l 568 176 l 986 979 l 1036 979 l 1036 0 l 982 0 l 982 924 l 1015 924 l 613 153 l 564 153 l 156 925 l 190 925 l 190 0 l 136 0 z "},"Ṃ":{"ha":1172,"x_min":136,"x_max":1036,"o":"m 136 0 l 136 979 l 186 979 l 607 176 l 568 176 l 986 979 l 1036 979 l 1036 0 l 982 0 l 982 924 l 1015 924 l 613 153 l 564 153 l 156 925 l 190 925 l 190 0 l 136 0 m 542 -239 l 542 -151 l 631 -151 l 631 -239 l 542 -239 z "},"N":{"ha":1017,"x_min":133,"x_max":883,"o":"m 133 0 l 133 979 l 182 979 l 860 58 l 829 58 l 829 979 l 883 979 l 883 0 l 836 0 l 158 921 l 188 921 l 188 0 l 133 0 z "},"Ǌ":{"ha":1429,"x_min":133,"x_max":1296,"o":"m 133 0 l 133 979 l 182 979 l 860 58 l 829 58 l 829 979 l 883 979 l 883 0 l 836 0 l 158 921 l 188 921 l 188 0 l 133 0 m 1008 -8 l 1003 44 l 1074 50 q 1163 79 1126 54 q 1218 148 1199 104 q 1238 249 1238 192 l 1238 979 l 1296 979 l 1296 246 q 1271 118 1296 172 q 1197 33 1246 64 q 1078 -3 1149 3 l 1008 -8 z "},"Ń":{"ha":1017,"x_min":133,"x_max":883,"o":"m 133 0 l 133 979 l 182 979 l 860 58 l 829 58 l 829 979 l 883 979 l 883 0 l 836 0 l 158 921 l 188 921 l 188 0 l 133 0 m 482 1063 l 646 1299 l 724 1299 l 535 1063 l 482 1063 z "},"Ň":{"ha":1017,"x_min":133,"x_max":883,"o":"m 133 0 l 133 979 l 182 979 l 860 58 l 829 58 l 829 979 l 883 979 l 883 0 l 836 0 l 158 921 l 188 921 l 188 0 l 133 0 m 475 1063 l 307 1299 l 358 1299 l 508 1115 l 658 1299 l 710 1299 l 542 1063 l 475 1063 z "},"Ņ":{"ha":1017,"x_min":133,"x_max":883,"o":"m 133 0 l 133 979 l 182 979 l 860 58 l 829 58 l 829 979 l 883 979 l 883 0 l 836 0 l 158 921 l 188 921 l 188 0 l 133 0 m 492 -360 l 456 -332 q 498 -265 488 -296 q 508 -200 508 -235 l 529 -210 l 460 -210 l 460 -119 l 557 -119 l 557 -194 q 540 -284 557 -242 q 492 -360 524 -326 z "},"Ṅ":{"ha":1017,"x_min":133,"x_max":883,"o":"m 133 0 l 133 979 l 182 979 l 860 58 l 829 58 l 829 979 l 883 979 l 883 0 l 836 0 l 158 921 l 188 921 l 188 0 l 133 0 m 465 1136 l 465 1224 l 551 1224 l 551 1136 l 465 1136 z "},"Ṇ":{"ha":1017,"x_min":133,"x_max":883,"o":"m 133 0 l 133 979 l 182 979 l 860 58 l 829 58 l 829 979 l 883 979 l 883 0 l 836 0 l 158 921 l 188 921 l 188 0 l 133 0 m 464 -239 l 464 -151 l 553 -151 l 553 -239 l 464 -239 z "},"ǋ":{"ha":1315,"x_min":133,"x_max":1213,"o":"m 133 0 l 133 979 l 182 979 l 860 58 l 829 58 l 829 979 l 883 979 l 883 0 l 836 0 l 158 921 l 188 921 l 188 0 l 133 0 m 1124 860 l 1124 947 l 1213 947 l 1213 860 l 1124 860 m 940 -268 l 936 -215 l 993 -211 q 1101 -160 1064 -206 q 1139 -31 1139 -114 l 1139 672 l 1197 672 l 1197 -29 q 1184 -125 1197 -83 q 1145 -197 1171 -167 q 1083 -244 1119 -226 q 1000 -264 1047 -261 l 940 -268 z "},"Ṉ":{"ha":1017,"x_min":133,"x_max":883,"o":"m 133 0 l 133 979 l 182 979 l 860 58 l 829 58 l 829 979 l 883 979 l 883 0 l 836 0 l 158 921 l 188 921 l 188 0 l 133 0 m 314 -206 l 314 -153 l 703 -153 l 703 -206 l 314 -206 z "},"Ñ":{"ha":1017,"x_min":133,"x_max":883,"o":"m 133 0 l 133 979 l 182 979 l 860 58 l 829 58 l 829 979 l 883 979 l 883 0 l 836 0 l 158 921 l 188 921 l 188 0 l 133 0 m 281 1100 l 236 1103 q 285 1227 246 1183 q 385 1271 324 1271 q 449 1256 417 1271 q 526 1207 481 1240 q 593 1165 571 1176 q 636 1153 615 1153 q 702 1184 678 1153 q 736 1274 726 1215 l 781 1271 q 733 1147 771 1190 q 633 1103 694 1103 q 569 1118 603 1103 q 486 1169 536 1133 q 424 1210 447 1199 q 381 1221 400 1221 q 315 1190 339 1221 q 281 1100 290 1158 z "},"Ŋ":{"ha":1017,"x_min":133,"x_max":883,"o":"m 626 -268 l 622 -215 l 679 -211 q 791 -160 753 -206 q 829 -31 829 -114 l 829 35 l 836 0 l 158 921 l 188 921 l 188 0 l 133 0 l 133 979 l 182 979 l 860 58 l 829 58 l 829 979 l 883 979 l 883 -29 q 875 -108 883 -72 q 850 -171 867 -143 q 810 -219 833 -199 q 755 -250 786 -239 q 686 -264 724 -261 l 626 -268 z "},"O":{"ha":1043,"x_min":93,"x_max":950,"o":"m 521 -11 q 343 24 422 -11 q 208 124 264 58 q 123 281 153 189 q 93 490 93 374 q 122 699 93 607 q 207 856 151 792 q 342 956 263 921 q 521 990 421 990 q 700 956 621 990 q 835 857 779 922 q 921 699 892 792 q 950 492 950 607 q 920 282 950 375 q 835 124 890 189 q 700 24 779 58 q 521 -11 621 -11 m 521 46 q 719 98 638 46 q 844 249 801 150 q 888 490 888 349 q 844 731 888 632 q 720 881 801 829 q 521 933 639 933 q 324 881 406 933 q 199 730 242 829 q 156 490 156 631 q 199 251 156 350 q 324 99 242 151 q 521 46 406 46 z "},"Ó":{"ha":1043,"x_min":93,"x_max":950,"o":"m 521 -11 q 343 24 422 -11 q 208 124 264 58 q 123 281 153 189 q 93 490 93 374 q 122 699 93 607 q 207 856 151 792 q 342 956 263 921 q 521 990 421 990 q 700 956 621 990 q 835 857 779 922 q 921 699 892 792 q 950 492 950 607 q 920 282 950 375 q 835 124 890 189 q 700 24 779 58 q 521 -11 621 -11 m 521 46 q 719 98 638 46 q 844 249 801 150 q 888 490 888 349 q 844 731 888 632 q 720 881 801 829 q 521 933 639 933 q 324 881 406 933 q 199 730 242 829 q 156 490 156 631 q 199 251 156 350 q 324 99 242 151 q 521 46 406 46 m 494 1063 l 658 1299 l 736 1299 l 547 1063 l 494 1063 z "},"Ŏ":{"ha":1043,"x_min":93,"x_max":950,"o":"m 521 -11 q 343 24 422 -11 q 208 124 264 58 q 123 281 153 189 q 93 490 93 374 q 122 699 93 607 q 207 856 151 792 q 342 956 263 921 q 521 990 421 990 q 700 956 621 990 q 835 857 779 922 q 921 699 892 792 q 950 492 950 607 q 920 282 950 375 q 835 124 890 189 q 700 24 779 58 q 521 -11 621 -11 m 521 46 q 719 98 638 46 q 844 249 801 150 q 888 490 888 349 q 844 731 888 632 q 720 881 801 829 q 521 933 639 933 q 324 881 406 933 q 199 730 242 829 q 156 490 156 631 q 199 251 156 350 q 324 99 242 151 q 521 46 406 46 m 521 1056 q 372 1117 432 1056 q 303 1288 313 1179 l 349 1293 q 401 1155 356 1204 q 521 1106 447 1106 q 641 1155 594 1106 q 693 1293 688 1204 l 739 1288 q 669 1117 729 1179 q 521 1056 610 1056 z "},"Ô":{"ha":1043,"x_min":93,"x_max":950,"o":"m 521 -11 q 343 24 422 -11 q 208 124 264 58 q 123 281 153 189 q 93 490 93 374 q 122 699 93 607 q 207 856 151 792 q 342 956 263 921 q 521 990 421 990 q 700 956 621 990 q 835 857 779 922 q 921 699 892 792 q 950 492 950 607 q 920 282 950 375 q 835 124 890 189 q 700 24 779 58 q 521 -11 621 -11 m 521 46 q 719 98 638 46 q 844 249 801 150 q 888 490 888 349 q 844 731 888 632 q 720 881 801 829 q 521 933 639 933 q 324 881 406 933 q 199 730 242 829 q 156 490 156 631 q 199 251 156 350 q 324 99 242 151 q 521 46 406 46 m 319 1063 l 488 1299 l 554 1299 l 722 1063 l 671 1063 l 521 1246 l 371 1063 l 319 1063 z "},"Ố":{"ha":1043,"x_min":93,"x_max":950,"o":"m 521 -11 q 343 24 422 -11 q 208 124 264 58 q 123 281 153 189 q 93 490 93 374 q 122 699 93 607 q 207 856 151 792 q 342 956 263 921 q 521 990 421 990 q 700 956 621 990 q 835 857 779 922 q 921 699 892 792 q 950 492 950 607 q 920 282 950 375 q 835 124 890 189 q 700 24 779 58 q 521 -11 621 -11 m 521 46 q 719 98 638 46 q 844 249 801 150 q 888 490 888 349 q 844 731 888 632 q 720 881 801 829 q 521 933 639 933 q 324 881 406 933 q 199 730 242 829 q 156 490 156 631 q 199 251 156 350 q 324 99 242 151 q 521 46 406 46 m 336 1063 l 488 1285 l 554 1285 l 706 1063 l 658 1063 l 521 1233 l 383 1063 l 336 1063 m 633 1203 l 756 1411 l 831 1411 l 683 1203 l 633 1203 z "},"Ộ":{"ha":1043,"x_min":93,"x_max":950,"o":"m 521 -11 q 343 24 422 -11 q 208 124 264 58 q 123 281 153 189 q 93 490 93 374 q 122 699 93 607 q 207 856 151 792 q 342 956 263 921 q 521 990 421 990 q 700 956 621 990 q 835 857 779 922 q 921 699 892 792 q 950 492 950 607 q 920 282 950 375 q 835 124 890 189 q 700 24 779 58 q 521 -11 621 -11 m 521 46 q 719 98 638 46 q 844 249 801 150 q 888 490 888 349 q 844 731 888 632 q 720 881 801 829 q 521 933 639 933 q 324 881 406 933 q 199 730 242 829 q 156 490 156 631 q 199 251 156 350 q 324 99 242 151 q 521 46 406 46 m 476 -239 l 476 -151 l 565 -151 l 565 -239 l 476 -239 m 319 1063 l 488 1299 l 554 1299 l 722 1063 l 671 1063 l 521 1246 l 371 1063 l 319 1063 z "},"Ồ":{"ha":1043,"x_min":93,"x_max":950,"o":"m 521 -11 q 343 24 422 -11 q 208 124 264 58 q 123 281 153 189 q 93 490 93 374 q 122 699 93 607 q 207 856 151 792 q 342 956 263 921 q 521 990 421 990 q 700 956 621 990 q 835 857 779 922 q 921 699 892 792 q 950 492 950 607 q 920 282 950 375 q 835 124 890 189 q 700 24 779 58 q 521 -11 621 -11 m 521 46 q 719 98 638 46 q 844 249 801 150 q 888 490 888 349 q 844 731 888 632 q 720 881 801 829 q 521 933 639 933 q 324 881 406 933 q 199 730 242 829 q 156 490 156 631 q 199 251 156 350 q 324 99 242 151 q 521 46 406 46 m 336 1063 l 488 1285 l 554 1285 l 706 1063 l 658 1063 l 521 1233 l 383 1063 l 336 1063 m 690 1203 l 543 1411 l 618 1411 l 740 1203 l 690 1203 z "},"Ổ":{"ha":1043,"x_min":93,"x_max":950,"o":"m 521 -11 q 343 24 422 -11 q 208 124 264 58 q 123 281 153 189 q 93 490 93 374 q 122 699 93 607 q 207 856 151 792 q 342 956 263 921 q 521 990 421 990 q 700 956 621 990 q 835 857 779 922 q 921 699 892 792 q 950 492 950 607 q 920 282 950 375 q 835 124 890 189 q 700 24 779 58 q 521 -11 621 -11 m 521 46 q 719 98 638 46 q 844 249 801 150 q 888 490 888 349 q 844 731 888 632 q 720 881 801 829 q 521 933 639 933 q 324 881 406 933 q 199 730 242 829 q 156 490 156 631 q 199 251 156 350 q 324 99 242 151 q 521 46 406 46 m 336 1063 l 488 1285 l 554 1285 l 706 1063 l 658 1063 l 521 1233 l 383 1063 l 336 1063 m 650 1203 q 664 1256 650 1236 q 697 1287 678 1275 q 729 1310 715 1299 q 743 1340 743 1322 q 726 1365 743 1358 q 671 1371 708 1371 q 631 1367 653 1371 q 583 1354 610 1364 l 571 1394 q 620 1411 593 1406 q 676 1417 647 1417 q 766 1397 735 1417 q 797 1344 797 1378 q 782 1299 797 1315 q 747 1272 767 1283 q 713 1244 728 1260 q 697 1203 697 1229 l 650 1203 z "},"Ỗ":{"ha":1043,"x_min":93,"x_max":950,"o":"m 521 -11 q 343 24 422 -11 q 208 124 264 58 q 123 281 153 189 q 93 490 93 374 q 122 699 93 607 q 207 856 151 792 q 342 956 263 921 q 521 990 421 990 q 700 956 621 990 q 835 857 779 922 q 921 699 892 792 q 950 492 950 607 q 920 282 950 375 q 835 124 890 189 q 700 24 779 58 q 521 -11 621 -11 m 521 46 q 719 98 638 46 q 844 249 801 150 q 888 490 888 349 q 844 731 888 632 q 720 881 801 829 q 521 933 639 933 q 324 881 406 933 q 199 730 242 829 q 156 490 156 631 q 199 251 156 350 q 324 99 242 151 q 521 46 406 46 m 336 1063 l 488 1243 l 554 1243 l 706 1063 l 658 1063 l 521 1196 l 383 1063 l 336 1063 m 364 1275 l 318 1278 q 356 1378 325 1344 q 433 1411 386 1411 q 482 1400 460 1411 q 533 1365 504 1389 q 579 1335 564 1342 q 608 1328 594 1328 q 656 1348 640 1328 q 678 1414 671 1368 l 724 1411 q 688 1311 718 1344 q 610 1278 658 1278 q 560 1290 583 1278 q 501 1329 538 1301 q 470 1351 488 1340 q 433 1361 453 1361 q 387 1341 403 1361 q 364 1275 371 1321 z "},"Ȍ":{"ha":1043,"x_min":93,"x_max":950,"o":"m 521 -11 q 343 24 422 -11 q 208 124 264 58 q 123 281 153 189 q 93 490 93 374 q 122 699 93 607 q 207 856 151 792 q 342 956 263 921 q 521 990 421 990 q 700 956 621 990 q 835 857 779 922 q 921 699 892 792 q 950 492 950 607 q 920 282 950 375 q 835 124 890 189 q 700 24 779 58 q 521 -11 621 -11 m 521 46 q 719 98 638 46 q 844 249 801 150 q 888 490 888 349 q 844 731 888 632 q 720 881 801 829 q 521 933 639 933 q 324 881 406 933 q 199 730 242 829 q 156 490 156 631 q 199 251 156 350 q 324 99 242 151 q 521 46 406 46 m 578 1063 l 424 1299 l 496 1299 l 615 1063 l 578 1063 m 426 1063 l 274 1299 l 346 1299 l 464 1063 l 426 1063 z "},"Ö":{"ha":1043,"x_min":93,"x_max":950,"o":"m 521 -11 q 343 24 422 -11 q 208 124 264 58 q 123 281 153 189 q 93 490 93 374 q 122 699 93 607 q 207 856 151 792 q 342 956 263 921 q 521 990 421 990 q 700 956 621 990 q 835 857 779 922 q 921 699 892 792 q 950 492 950 607 q 920 282 950 375 q 835 124 890 189 q 700 24 779 58 q 521 -11 621 -11 m 521 46 q 719 98 638 46 q 844 249 801 150 q 888 490 888 349 q 844 731 888 632 q 720 881 801 829 q 521 933 639 933 q 324 881 406 933 q 199 730 242 829 q 156 490 156 631 q 199 251 156 350 q 324 99 242 151 q 521 46 406 46 m 590 1139 l 590 1222 l 675 1222 l 675 1139 l 590 1139 m 367 1139 l 367 1222 l 451 1222 l 451 1139 l 367 1139 z "},"Ȫ":{"ha":1043,"x_min":93,"x_max":950,"o":"m 521 -11 q 343 24 422 -11 q 208 124 264 58 q 123 281 153 189 q 93 490 93 374 q 122 699 93 607 q 207 856 151 792 q 342 956 263 921 q 521 990 421 990 q 700 956 621 990 q 835 857 779 922 q 921 699 892 792 q 950 492 950 607 q 920 282 950 375 q 835 124 890 189 q 700 24 779 58 q 521 -11 621 -11 m 521 46 q 719 98 638 46 q 844 249 801 150 q 888 490 888 349 q 844 731 888 632 q 720 881 801 829 q 521 933 639 933 q 324 881 406 933 q 199 730 242 829 q 156 490 156 631 q 199 251 156 350 q 324 99 242 151 q 521 46 406 46 m 326 1288 l 326 1340 l 715 1340 l 715 1288 l 326 1288 m 367 1119 l 367 1203 l 451 1203 l 451 1119 l 367 1119 m 590 1119 l 590 1203 l 675 1203 l 675 1119 l 590 1119 z "},"Ȱ":{"ha":1043,"x_min":93,"x_max":950,"o":"m 521 -11 q 343 24 422 -11 q 208 124 264 58 q 123 281 153 189 q 93 490 93 374 q 122 699 93 607 q 207 856 151 792 q 342 956 263 921 q 521 990 421 990 q 700 956 621 990 q 835 857 779 922 q 921 699 892 792 q 950 492 950 607 q 920 282 950 375 q 835 124 890 189 q 700 24 779 58 q 521 -11 621 -11 m 521 46 q 719 98 638 46 q 844 249 801 150 q 888 490 888 349 q 844 731 888 632 q 720 881 801 829 q 521 933 639 933 q 324 881 406 933 q 199 730 242 829 q 156 490 156 631 q 199 251 156 350 q 324 99 242 151 q 521 46 406 46 m 326 1288 l 326 1340 l 715 1340 l 715 1288 l 326 1288 m 479 1119 l 479 1203 l 564 1203 l 564 1119 l 479 1119 z "},"Ọ":{"ha":1043,"x_min":93,"x_max":950,"o":"m 521 -11 q 343 24 422 -11 q 208 124 264 58 q 123 281 153 189 q 93 490 93 374 q 122 699 93 607 q 207 856 151 792 q 342 956 263 921 q 521 990 421 990 q 700 956 621 990 q 835 857 779 922 q 921 699 892 792 q 950 492 950 607 q 920 282 950 375 q 835 124 890 189 q 700 24 779 58 q 521 -11 621 -11 m 521 46 q 719 98 638 46 q 844 249 801 150 q 888 490 888 349 q 844 731 888 632 q 720 881 801 829 q 521 933 639 933 q 324 881 406 933 q 199 730 242 829 q 156 490 156 631 q 199 251 156 350 q 324 99 242 151 q 521 46 406 46 m 476 -239 l 476 -151 l 565 -151 l 565 -239 l 476 -239 z "},"Ò":{"ha":1043,"x_min":93,"x_max":950,"o":"m 521 -11 q 343 24 422 -11 q 208 124 264 58 q 123 281 153 189 q 93 490 93 374 q 122 699 93 607 q 207 856 151 792 q 342 956 263 921 q 521 990 421 990 q 700 956 621 990 q 835 857 779 922 q 921 699 892 792 q 950 492 950 607 q 920 282 950 375 q 835 124 890 189 q 700 24 779 58 q 521 -11 621 -11 m 521 46 q 719 98 638 46 q 844 249 801 150 q 888 490 888 349 q 844 731 888 632 q 720 881 801 829 q 521 933 639 933 q 324 881 406 933 q 199 730 242 829 q 156 490 156 631 q 199 251 156 350 q 324 99 242 151 q 521 46 406 46 m 494 1063 l 306 1299 l 383 1299 l 547 1063 l 494 1063 z "},"Ỏ":{"ha":1043,"x_min":93,"x_max":950,"o":"m 521 -11 q 343 24 422 -11 q 208 124 264 58 q 123 281 153 189 q 93 490 93 374 q 122 699 93 607 q 207 856 151 792 q 342 956 263 921 q 521 990 421 990 q 700 956 621 990 q 835 857 779 922 q 921 699 892 792 q 950 492 950 607 q 920 282 950 375 q 835 124 890 189 q 700 24 779 58 q 521 -11 621 -11 m 521 46 q 719 98 638 46 q 844 249 801 150 q 888 490 888 349 q 844 731 888 632 q 720 881 801 829 q 521 933 639 933 q 324 881 406 933 q 199 730 242 829 q 156 490 156 631 q 199 251 156 350 q 324 99 242 151 q 521 46 406 46 m 494 1063 l 494 1082 q 509 1131 494 1113 q 542 1163 524 1150 q 576 1189 561 1176 q 590 1219 590 1201 q 573 1246 590 1236 q 518 1256 556 1256 q 476 1251 497 1256 q 428 1233 454 1246 l 415 1279 q 465 1299 438 1292 q 524 1306 493 1306 q 615 1283 582 1306 q 647 1222 647 1260 q 632 1176 647 1193 q 597 1147 617 1158 q 563 1119 578 1135 q 547 1076 547 1104 l 547 1063 l 494 1063 z "},"Ơ":{"ha":1043,"x_min":93,"x_max":950,"o":"m 521 -11 q 343 24 422 -11 q 208 124 264 58 q 123 281 153 189 q 93 490 93 374 q 122 699 93 607 q 207 856 151 792 q 342 956 263 921 q 521 990 421 990 q 700 956 621 990 q 835 857 779 922 q 921 699 892 792 q 950 492 950 607 q 920 282 950 375 q 835 124 890 189 q 700 24 779 58 q 521 -11 621 -11 m 521 46 q 719 98 638 46 q 844 249 801 150 q 888 490 888 349 q 844 731 888 632 q 720 881 801 829 q 521 933 639 933 q 324 881 406 933 q 199 730 242 829 q 156 490 156 631 q 199 251 156 350 q 324 99 242 151 q 521 46 406 46 m 671 926 l 596 985 q 666 981 636 982 q 726 979 696 979 q 830 998 794 979 q 879 1054 865 1017 q 893 1146 893 1092 l 893 1163 l 949 1163 l 949 1135 q 925 1023 949 1069 q 857 951 901 976 q 749 926 813 926 l 671 926 z "},"Ớ":{"ha":1043,"x_min":93,"x_max":950,"o":"m 521 -11 q 343 24 422 -11 q 208 124 264 58 q 123 281 153 189 q 93 490 93 374 q 122 699 93 607 q 207 856 151 792 q 342 956 263 921 q 521 990 421 990 q 700 956 621 990 q 835 857 779 922 q 921 699 892 792 q 950 492 950 607 q 920 282 950 375 q 835 124 890 189 q 700 24 779 58 q 521 -11 621 -11 m 521 46 q 719 98 638 46 q 844 249 801 150 q 888 490 888 349 q 844 731 888 632 q 720 881 801 829 q 521 933 639 933 q 324 881 406 933 q 199 730 242 829 q 156 490 156 631 q 199 251 156 350 q 324 99 242 151 q 521 46 406 46 m 671 926 l 596 985 q 666 981 636 982 q 726 979 696 979 q 830 998 794 979 q 879 1054 865 1017 q 893 1146 893 1092 l 893 1163 l 949 1163 l 949 1135 q 925 1023 949 1069 q 857 951 901 976 q 749 926 813 926 l 671 926 m 494 1063 l 658 1299 l 736 1299 l 547 1063 l 494 1063 z "},"Ợ":{"ha":1043,"x_min":93,"x_max":950,"o":"m 521 -11 q 343 24 422 -11 q 208 124 264 58 q 123 281 153 189 q 93 490 93 374 q 122 699 93 607 q 207 856 151 792 q 342 956 263 921 q 521 990 421 990 q 700 956 621 990 q 835 857 779 922 q 921 699 892 792 q 950 492 950 607 q 920 282 950 375 q 835 124 890 189 q 700 24 779 58 q 521 -11 621 -11 m 521 46 q 719 98 638 46 q 844 249 801 150 q 888 490 888 349 q 844 731 888 632 q 720 881 801 829 q 521 933 639 933 q 324 881 406 933 q 199 730 242 829 q 156 490 156 631 q 199 251 156 350 q 324 99 242 151 q 521 46 406 46 m 671 926 l 596 985 q 666 981 636 982 q 726 979 696 979 q 830 998 794 979 q 879 1054 865 1017 q 893 1146 893 1092 l 893 1163 l 949 1163 l 949 1135 q 925 1023 949 1069 q 857 951 901 976 q 749 926 813 926 l 671 926 m 478 -239 l 478 -151 l 567 -151 l 567 -239 l 478 -239 z "},"Ờ":{"ha":1043,"x_min":93,"x_max":950,"o":"m 521 -11 q 343 24 422 -11 q 208 124 264 58 q 123 281 153 189 q 93 490 93 374 q 122 699 93 607 q 207 856 151 792 q 342 956 263 921 q 521 990 421 990 q 700 956 621 990 q 835 857 779 922 q 921 699 892 792 q 950 492 950 607 q 920 282 950 375 q 835 124 890 189 q 700 24 779 58 q 521 -11 621 -11 m 521 46 q 719 98 638 46 q 844 249 801 150 q 888 490 888 349 q 844 731 888 632 q 720 881 801 829 q 521 933 639 933 q 324 881 406 933 q 199 730 242 829 q 156 490 156 631 q 199 251 156 350 q 324 99 242 151 q 521 46 406 46 m 671 926 l 596 985 q 666 981 636 982 q 726 979 696 979 q 830 998 794 979 q 879 1054 865 1017 q 893 1146 893 1092 l 893 1163 l 949 1163 l 949 1135 q 925 1023 949 1069 q 857 951 901 976 q 749 926 813 926 l 671 926 m 494 1063 l 306 1299 l 383 1299 l 547 1063 l 494 1063 z "},"Ở":{"ha":1043,"x_min":93,"x_max":950,"o":"m 521 -11 q 343 24 422 -11 q 208 124 264 58 q 123 281 153 189 q 93 490 93 374 q 122 699 93 607 q 207 856 151 792 q 342 956 263 921 q 521 990 421 990 q 700 956 621 990 q 835 857 779 922 q 921 699 892 792 q 950 492 950 607 q 920 282 950 375 q 835 124 890 189 q 700 24 779 58 q 521 -11 621 -11 m 521 46 q 719 98 638 46 q 844 249 801 150 q 888 490 888 349 q 844 731 888 632 q 720 881 801 829 q 521 933 639 933 q 324 881 406 933 q 199 730 242 829 q 156 490 156 631 q 199 251 156 350 q 324 99 242 151 q 521 46 406 46 m 671 926 l 596 985 q 666 981 636 982 q 726 979 696 979 q 830 998 794 979 q 879 1054 865 1017 q 893 1146 893 1092 l 893 1163 l 949 1163 l 949 1135 q 925 1023 949 1069 q 857 951 901 976 q 749 926 813 926 l 671 926 m 494 1063 l 494 1082 q 509 1131 494 1113 q 542 1163 524 1150 q 576 1189 561 1176 q 590 1219 590 1201 q 573 1246 590 1236 q 518 1256 556 1256 q 476 1251 497 1256 q 428 1233 454 1246 l 415 1279 q 465 1299 438 1292 q 524 1306 493 1306 q 615 1283 582 1306 q 647 1222 647 1260 q 632 1176 647 1193 q 597 1147 617 1158 q 563 1119 578 1135 q 547 1076 547 1104 l 547 1063 l 494 1063 z "},"Ỡ":{"ha":1043,"x_min":93,"x_max":950,"o":"m 521 -11 q 343 24 422 -11 q 208 124 264 58 q 123 281 153 189 q 93 490 93 374 q 122 699 93 607 q 207 856 151 792 q 342 956 263 921 q 521 990 421 990 q 700 956 621 990 q 835 857 779 922 q 921 699 892 792 q 950 492 950 607 q 920 282 950 375 q 835 124 890 189 q 700 24 779 58 q 521 -11 621 -11 m 521 46 q 719 98 638 46 q 844 249 801 150 q 888 490 888 349 q 844 731 888 632 q 720 881 801 829 q 521 933 639 933 q 324 881 406 933 q 199 730 242 829 q 156 490 156 631 q 199 251 156 350 q 324 99 242 151 q 521 46 406 46 m 671 926 l 596 985 q 666 981 636 982 q 726 979 696 979 q 830 998 794 979 q 879 1054 865 1017 q 893 1146 893 1092 l 893 1163 l 949 1163 l 949 1135 q 925 1023 949 1069 q 857 951 901 976 q 749 926 813 926 l 671 926 m 307 1100 l 263 1103 q 289 1194 269 1157 q 340 1251 308 1232 q 411 1271 371 1271 q 473 1255 443 1271 q 538 1207 503 1239 q 591 1166 569 1179 q 635 1153 613 1153 q 701 1184 676 1153 q 735 1274 725 1215 l 779 1271 q 753 1180 774 1218 q 703 1122 733 1142 q 632 1103 672 1103 q 567 1120 597 1103 q 504 1167 538 1138 q 449 1208 472 1196 q 407 1221 426 1221 q 341 1190 365 1221 q 307 1100 317 1158 z "},"Ő":{"ha":1043,"x_min":93,"x_max":950,"o":"m 521 -11 q 343 24 422 -11 q 208 124 264 58 q 123 281 153 189 q 93 490 93 374 q 122 699 93 607 q 207 856 151 792 q 342 956 263 921 q 521 990 421 990 q 700 956 621 990 q 835 857 779 922 q 921 699 892 792 q 950 492 950 607 q 920 282 950 375 q 835 124 890 189 q 700 24 779 58 q 521 -11 621 -11 m 521 46 q 719 98 638 46 q 844 249 801 150 q 888 490 888 349 q 844 731 888 632 q 720 881 801 829 q 521 933 639 933 q 324 881 406 933 q 199 730 242 829 q 156 490 156 631 q 199 251 156 350 q 324 99 242 151 q 521 46 406 46 m 426 1063 l 546 1299 l 618 1299 l 464 1063 l 426 1063 m 578 1063 l 696 1299 l 768 1299 l 615 1063 l 578 1063 z "},"Ȏ":{"ha":1043,"x_min":93,"x_max":950,"o":"m 521 -11 q 343 24 422 -11 q 208 124 264 58 q 123 281 153 189 q 93 490 93 374 q 122 699 93 607 q 207 856 151 792 q 342 956 263 921 q 521 990 421 990 q 700 956 621 990 q 835 857 779 922 q 921 699 892 792 q 950 492 950 607 q 920 282 950 375 q 835 124 890 189 q 700 24 779 58 q 521 -11 621 -11 m 521 46 q 719 98 638 46 q 844 249 801 150 q 888 490 888 349 q 844 731 888 632 q 720 881 801 829 q 521 933 639 933 q 324 881 406 933 q 199 730 242 829 q 156 490 156 631 q 199 251 156 350 q 324 99 242 151 q 521 46 406 46 m 349 1056 l 303 1061 q 372 1231 313 1169 q 521 1293 432 1293 q 669 1231 610 1293 q 739 1061 729 1169 l 693 1056 q 641 1194 688 1146 q 521 1243 594 1243 q 401 1194 447 1243 q 349 1056 356 1146 z "},"Ō":{"ha":1043,"x_min":93,"x_max":950,"o":"m 521 -11 q 343 24 422 -11 q 208 124 264 58 q 123 281 153 189 q 93 490 93 374 q 122 699 93 607 q 207 856 151 792 q 342 956 263 921 q 521 990 421 990 q 700 956 621 990 q 835 857 779 922 q 921 699 892 792 q 950 492 950 607 q 920 282 950 375 q 835 124 890 189 q 700 24 779 58 q 521 -11 621 -11 m 521 46 q 719 98 638 46 q 844 249 801 150 q 888 490 888 349 q 844 731 888 632 q 720 881 801 829 q 521 933 639 933 q 324 881 406 933 q 199 730 242 829 q 156 490 156 631 q 199 251 156 350 q 324 99 242 151 q 521 46 406 46 m 306 1142 l 306 1194 l 736 1194 l 736 1142 l 306 1142 z "},"Ṓ":{"ha":1043,"x_min":93,"x_max":950,"o":"m 521 -11 q 343 24 422 -11 q 208 124 264 58 q 123 281 153 189 q 93 490 93 374 q 122 699 93 607 q 207 856 151 792 q 342 956 263 921 q 521 990 421 990 q 700 956 621 990 q 835 857 779 922 q 921 699 892 792 q 950 492 950 607 q 920 282 950 375 q 835 124 890 189 q 700 24 779 58 q 521 -11 621 -11 m 521 46 q 719 98 638 46 q 844 249 801 150 q 888 490 888 349 q 844 731 888 632 q 720 881 801 829 q 521 933 639 933 q 324 881 406 933 q 199 730 242 829 q 156 490 156 631 q 199 251 156 350 q 324 99 242 151 q 521 46 406 46 m 326 1106 l 326 1158 l 715 1158 l 715 1106 l 326 1106 m 496 1210 l 632 1418 l 707 1418 l 546 1210 l 496 1210 z "},"Ṑ":{"ha":1043,"x_min":93,"x_max":950,"o":"m 521 -11 q 343 24 422 -11 q 208 124 264 58 q 123 281 153 189 q 93 490 93 374 q 122 699 93 607 q 207 856 151 792 q 342 956 263 921 q 521 990 421 990 q 700 956 621 990 q 835 857 779 922 q 921 699 892 792 q 950 492 950 607 q 920 282 950 375 q 835 124 890 189 q 700 24 779 58 q 521 -11 621 -11 m 521 46 q 719 98 638 46 q 844 249 801 150 q 888 490 888 349 q 844 731 888 632 q 720 881 801 829 q 521 933 639 933 q 324 881 406 933 q 199 730 242 829 q 156 490 156 631 q 199 251 156 350 q 324 99 242 151 q 521 46 406 46 m 496 1210 l 335 1418 l 410 1418 l 546 1210 l 496 1210 m 326 1106 l 326 1158 l 715 1158 l 715 1106 l 326 1106 z "},"Ǫ":{"ha":1043,"x_min":93,"x_max":950,"o":"m 521 -11 q 343 24 422 -11 q 208 124 264 58 q 123 281 153 189 q 93 490 93 374 q 122 699 93 607 q 207 856 151 792 q 342 956 263 921 q 521 990 421 990 q 700 956 621 990 q 835 857 779 922 q 921 699 892 792 q 950 492 950 607 q 920 282 950 375 q 835 124 890 189 q 700 24 779 58 q 521 -11 621 -11 m 521 46 q 719 98 638 46 q 844 249 801 150 q 888 490 888 349 q 844 731 888 632 q 720 881 801 829 q 521 933 639 933 q 324 881 406 933 q 199 730 242 829 q 156 490 156 631 q 199 251 156 350 q 324 99 242 151 q 521 46 406 46 m 574 -264 q 480 -229 517 -264 q 443 -136 443 -194 q 476 -35 443 -83 q 568 43 508 13 l 597 0 q 553 -26 576 -8 q 514 -71 531 -44 q 497 -131 497 -97 q 522 -194 497 -174 q 581 -214 546 -214 q 617 -210 599 -214 q 654 -196 635 -206 l 672 -240 q 632 -257 658 -250 q 574 -264 606 -264 z "},"Ø":{"ha":1043,"x_min":93,"x_max":950,"o":"m 521 -11 q 343 24 422 -11 q 208 124 264 58 q 123 281 153 189 q 93 490 93 374 q 122 699 93 607 q 207 856 151 792 q 342 956 263 921 q 521 990 421 990 q 700 956 621 990 q 835 857 779 922 q 921 699 892 792 q 950 492 950 607 q 920 282 950 375 q 835 124 890 189 q 700 24 779 58 q 521 -11 621 -11 m 521 46 q 719 98 638 46 q 844 249 801 150 q 888 490 888 349 q 844 731 888 632 q 720 881 801 829 q 521 933 639 933 q 324 881 406 933 q 199 730 242 829 q 156 490 156 631 q 199 251 156 350 q 324 99 242 151 q 521 46 406 46 m 238 -49 l 192 -24 l 256 86 l 274 117 l 724 889 l 742 919 l 806 1028 l 851 1003 l 788 893 l 769 863 l 319 90 l 301 60 l 238 -49 z "},"Ǿ":{"ha":1043,"x_min":93,"x_max":950,"o":"m 521 -11 q 343 24 422 -11 q 208 124 264 58 q 123 281 153 189 q 93 490 93 374 q 122 699 93 607 q 207 856 151 792 q 342 956 263 921 q 521 990 421 990 q 700 956 621 990 q 835 857 779 922 q 921 699 892 792 q 950 492 950 607 q 920 282 950 375 q 835 124 890 189 q 700 24 779 58 q 521 -11 621 -11 m 521 46 q 719 98 638 46 q 844 249 801 150 q 888 490 888 349 q 844 731 888 632 q 720 881 801 829 q 521 933 639 933 q 324 881 406 933 q 199 730 242 829 q 156 490 156 631 q 199 251 156 350 q 324 99 242 151 q 521 46 406 46 m 238 -49 l 192 -24 l 256 86 l 274 117 l 724 889 l 742 919 l 806 1028 l 851 1003 l 788 893 l 769 863 l 319 90 l 301 60 l 238 -49 m 494 1063 l 658 1299 l 736 1299 l 547 1063 l 494 1063 z "},"Õ":{"ha":1043,"x_min":93,"x_max":950,"o":"m 521 -11 q 343 24 422 -11 q 208 124 264 58 q 123 281 153 189 q 93 490 93 374 q 122 699 93 607 q 207 856 151 792 q 342 956 263 921 q 521 990 421 990 q 700 956 621 990 q 835 857 779 922 q 921 699 892 792 q 950 492 950 607 q 920 282 950 375 q 835 124 890 189 q 700 24 779 58 q 521 -11 621 -11 m 521 46 q 719 98 638 46 q 844 249 801 150 q 888 490 888 349 q 844 731 888 632 q 720 881 801 829 q 521 933 639 933 q 324 881 406 933 q 199 730 242 829 q 156 490 156 631 q 199 251 156 350 q 324 99 242 151 q 521 46 406 46 m 293 1100 l 249 1103 q 297 1227 258 1183 q 397 1271 336 1271 q 461 1256 429 1271 q 539 1207 493 1240 q 606 1165 583 1176 q 649 1153 628 1153 q 715 1184 690 1153 q 749 1274 739 1215 l 793 1271 q 745 1147 783 1190 q 646 1103 707 1103 q 582 1118 615 1103 q 499 1169 549 1133 q 436 1210 460 1199 q 393 1221 413 1221 q 327 1190 351 1221 q 293 1100 303 1158 z "},"Ṍ":{"ha":1043,"x_min":93,"x_max":950,"o":"m 521 -11 q 343 24 422 -11 q 208 124 264 58 q 123 281 153 189 q 93 490 93 374 q 122 699 93 607 q 207 856 151 792 q 342 956 263 921 q 521 990 421 990 q 700 956 621 990 q 835 857 779 922 q 921 699 892 792 q 950 492 950 607 q 920 282 950 375 q 835 124 890 189 q 700 24 779 58 q 521 -11 621 -11 m 521 46 q 719 98 638 46 q 844 249 801 150 q 888 490 888 349 q 844 731 888 632 q 720 881 801 829 q 521 933 639 933 q 324 881 406 933 q 199 730 242 829 q 156 490 156 631 q 199 251 156 350 q 324 99 242 151 q 521 46 406 46 m 496 1210 l 632 1418 l 707 1418 l 546 1210 l 496 1210 m 610 1067 q 562 1078 585 1067 q 507 1114 539 1089 q 463 1144 479 1138 q 433 1150 447 1150 q 387 1130 403 1150 q 364 1064 371 1110 l 318 1067 q 338 1141 322 1111 q 377 1185 353 1171 q 433 1200 401 1200 q 478 1190 457 1200 q 529 1157 499 1181 q 576 1125 560 1133 q 608 1117 593 1117 q 656 1137 640 1117 q 678 1203 671 1157 l 724 1200 q 688 1100 718 1133 q 610 1067 657 1067 z "},"Ṏ":{"ha":1043,"x_min":93,"x_max":950,"o":"m 521 -11 q 343 24 422 -11 q 208 124 264 58 q 123 281 153 189 q 93 490 93 374 q 122 699 93 607 q 207 856 151 792 q 342 956 263 921 q 521 990 421 990 q 700 956 621 990 q 835 857 779 922 q 921 699 892 792 q 950 492 950 607 q 920 282 950 375 q 835 124 890 189 q 700 24 779 58 q 521 -11 621 -11 m 521 46 q 719 98 638 46 q 844 249 801 150 q 888 490 888 349 q 844 731 888 632 q 720 881 801 829 q 521 933 639 933 q 324 881 406 933 q 199 730 242 829 q 156 490 156 631 q 199 251 156 350 q 324 99 242 151 q 521 46 406 46 m 610 1067 q 562 1078 585 1067 q 507 1114 539 1089 q 463 1144 479 1138 q 433 1150 447 1150 q 387 1130 403 1150 q 364 1064 371 1110 l 318 1067 q 338 1141 322 1111 q 377 1185 353 1171 q 433 1200 401 1200 q 478 1190 457 1200 q 529 1157 499 1181 q 576 1125 560 1133 q 608 1117 593 1117 q 656 1137 640 1117 q 678 1203 671 1157 l 724 1200 q 688 1100 718 1133 q 610 1067 657 1067 m 367 1264 l 367 1347 l 451 1347 l 451 1264 l 367 1264 m 590 1264 l 590 1347 l 675 1347 l 675 1264 l 590 1264 z "},"Ȭ":{"ha":1043,"x_min":93,"x_max":950,"o":"m 521 -11 q 343 24 422 -11 q 208 124 264 58 q 123 281 153 189 q 93 490 93 374 q 122 699 93 607 q 207 856 151 792 q 342 956 263 921 q 521 990 421 990 q 700 956 621 990 q 835 857 779 922 q 921 699 892 792 q 950 492 950 607 q 920 282 950 375 q 835 124 890 189 q 700 24 779 58 q 521 -11 621 -11 m 521 46 q 719 98 638 46 q 844 249 801 150 q 888 490 888 349 q 844 731 888 632 q 720 881 801 829 q 521 933 639 933 q 324 881 406 933 q 199 730 242 829 q 156 490 156 631 q 199 251 156 350 q 324 99 242 151 q 521 46 406 46 m 326 1288 l 326 1340 l 715 1340 l 715 1288 l 326 1288 m 610 1067 q 562 1078 585 1067 q 507 1114 539 1089 q 463 1144 479 1138 q 433 1150 447 1150 q 387 1130 403 1150 q 364 1064 371 1110 l 318 1067 q 338 1141 322 1111 q 377 1185 353 1171 q 433 1200 401 1200 q 478 1190 457 1200 q 529 1157 499 1181 q 576 1125 560 1133 q 608 1117 593 1117 q 656 1137 640 1117 q 678 1203 671 1157 l 724 1200 q 688 1100 718 1133 q 610 1067 657 1067 z "},"Œ":{"ha":1442,"x_min":93,"x_max":1372,"o":"m 572 0 q 368 32 457 0 q 218 126 279 64 q 125 279 157 188 q 93 490 93 371 q 125 701 93 610 q 218 855 157 793 q 368 948 279 917 q 572 979 457 979 l 1372 979 l 1372 925 l 842 925 l 842 524 l 1344 524 l 1344 469 l 842 469 l 842 54 l 1372 54 l 1372 0 l 572 0 m 578 54 l 783 54 l 783 925 l 578 925 q 261 816 367 925 q 156 490 156 707 q 261 164 156 274 q 578 54 367 54 z "},"P":{"ha":856,"x_min":133,"x_max":806,"o":"m 133 0 l 133 979 l 488 979 q 661 947 590 979 q 769 851 732 914 q 806 696 806 788 q 769 542 806 606 q 661 445 732 478 q 488 413 590 413 l 192 413 l 192 0 l 133 0 m 192 467 l 486 467 q 680 525 615 467 q 744 696 744 583 q 680 867 744 808 q 486 925 615 925 l 192 925 l 192 467 z "},"Þ":{"ha":856,"x_min":133,"x_max":806,"o":"m 133 0 l 133 979 l 192 979 l 192 790 l 488 790 q 661 758 590 790 q 769 662 732 725 q 806 507 806 599 q 769 353 806 417 q 661 256 732 289 q 488 224 590 224 l 192 224 l 192 0 l 133 0 m 192 278 l 486 278 q 680 336 615 278 q 744 507 744 394 q 680 678 744 619 q 486 736 615 736 l 192 736 l 192 278 z "},"Q":{"ha":1043,"x_min":93,"x_max":950,"o":"m 796 -264 l 696 -103 q 625 -35 669 -58 q 521 -11 581 -11 l 576 17 q 651 7 621 17 q 706 -26 682 -3 q 756 -94 731 -50 l 842 -233 l 796 -264 m 521 -11 q 343 24 422 -11 q 208 124 264 58 q 123 281 153 189 q 93 490 93 374 q 122 699 93 607 q 207 856 151 792 q 342 956 263 921 q 521 990 421 990 q 700 956 621 990 q 835 857 779 922 q 921 699 892 792 q 950 492 950 607 q 920 282 950 375 q 835 124 890 189 q 700 24 779 58 q 521 -11 621 -11 m 521 46 q 719 98 638 46 q 844 249 801 150 q 888 490 888 349 q 844 731 888 632 q 720 881 801 829 q 521 933 639 933 q 324 881 406 933 q 199 730 242 829 q 156 490 156 631 q 199 251 156 350 q 324 99 242 151 q 521 46 406 46 z "},"R":{"ha":908,"x_min":133,"x_max":858,"o":"m 133 0 l 133 979 l 488 979 q 724 908 642 979 q 806 706 806 838 q 768 560 806 621 q 659 469 731 500 q 488 438 588 438 l 503 454 l 514 454 q 605 426 567 454 q 676 336 643 399 l 858 0 l 794 0 l 625 314 q 571 388 600 363 q 503 424 542 414 q 410 433 464 433 l 192 433 l 192 0 l 133 0 m 192 488 l 482 488 q 679 543 614 488 q 744 707 744 599 q 679 869 744 814 q 482 925 614 925 l 192 925 l 192 488 z "},"Ŕ":{"ha":908,"x_min":133,"x_max":858,"o":"m 133 0 l 133 979 l 488 979 q 724 908 642 979 q 806 706 806 838 q 768 560 806 621 q 659 469 731 500 q 488 438 588 438 l 503 454 l 514 454 q 605 426 567 454 q 676 336 643 399 l 858 0 l 794 0 l 625 314 q 571 388 600 363 q 503 424 542 414 q 410 433 464 433 l 192 433 l 192 0 l 133 0 m 192 488 l 482 488 q 679 543 614 488 q 744 707 744 599 q 679 869 744 814 q 482 925 614 925 l 192 925 l 192 488 m 438 1063 l 601 1299 l 679 1299 l 490 1063 l 438 1063 z "},"Ř":{"ha":908,"x_min":133,"x_max":858,"o":"m 133 0 l 133 979 l 488 979 q 724 908 642 979 q 806 706 806 838 q 768 560 806 621 q 659 469 731 500 q 488 438 588 438 l 503 454 l 514 454 q 605 426 567 454 q 676 336 643 399 l 858 0 l 794 0 l 625 314 q 571 388 600 363 q 503 424 542 414 q 410 433 464 433 l 192 433 l 192 0 l 133 0 m 192 488 l 482 488 q 679 543 614 488 q 744 707 744 599 q 679 869 744 814 q 482 925 614 925 l 192 925 l 192 488 m 431 1063 l 263 1299 l 314 1299 l 464 1115 l 614 1299 l 665 1299 l 497 1063 l 431 1063 z "},"Ŗ":{"ha":908,"x_min":133,"x_max":858,"o":"m 133 0 l 133 979 l 488 979 q 724 908 642 979 q 806 706 806 838 q 768 560 806 621 q 659 469 731 500 q 488 438 588 438 l 503 454 l 514 454 q 605 426 567 454 q 676 336 643 399 l 858 0 l 794 0 l 625 314 q 571 388 600 363 q 503 424 542 414 q 410 433 464 433 l 192 433 l 192 0 l 133 0 m 192 488 l 482 488 q 679 543 614 488 q 744 707 744 599 q 679 869 744 814 q 482 925 614 925 l 192 925 l 192 488 m 447 -360 l 411 -332 q 453 -265 443 -296 q 464 -200 464 -235 l 485 -210 l 415 -210 l 415 -119 l 513 -119 l 513 -194 q 496 -284 513 -242 q 447 -360 479 -326 z "},"Ȑ":{"ha":908,"x_min":133,"x_max":858,"o":"m 133 0 l 133 979 l 488 979 q 724 908 642 979 q 806 706 806 838 q 768 560 806 621 q 659 469 731 500 q 488 438 588 438 l 503 454 l 514 454 q 605 426 567 454 q 676 336 643 399 l 858 0 l 794 0 l 625 314 q 571 388 600 363 q 503 424 542 414 q 410 433 464 433 l 192 433 l 192 0 l 133 0 m 192 488 l 482 488 q 679 543 614 488 q 744 707 744 599 q 679 869 744 814 q 482 925 614 925 l 192 925 l 192 488 m 521 1063 l 367 1299 l 439 1299 l 558 1063 l 521 1063 m 369 1063 l 217 1299 l 289 1299 l 407 1063 l 369 1063 z "},"Ṛ":{"ha":908,"x_min":133,"x_max":858,"o":"m 133 0 l 133 979 l 488 979 q 724 908 642 979 q 806 706 806 838 q 768 560 806 621 q 659 469 731 500 q 488 438 588 438 l 503 454 l 514 454 q 605 426 567 454 q 676 336 643 399 l 858 0 l 794 0 l 625 314 q 571 388 600 363 q 503 424 542 414 q 410 433 464 433 l 192 433 l 192 0 l 133 0 m 192 488 l 482 488 q 679 543 614 488 q 744 707 744 599 q 679 869 744 814 q 482 925 614 925 l 192 925 l 192 488 m 419 -239 l 419 -151 l 508 -151 l 508 -239 l 419 -239 z "},"Ȓ":{"ha":908,"x_min":133,"x_max":858,"o":"m 133 0 l 133 979 l 488 979 q 724 908 642 979 q 806 706 806 838 q 768 560 806 621 q 659 469 731 500 q 488 438 588 438 l 503 454 l 514 454 q 605 426 567 454 q 676 336 643 399 l 858 0 l 794 0 l 625 314 q 571 388 600 363 q 503 424 542 414 q 410 433 464 433 l 192 433 l 192 0 l 133 0 m 192 488 l 482 488 q 679 543 614 488 q 744 707 744 599 q 679 869 744 814 q 482 925 614 925 l 192 925 l 192 488 m 292 1056 l 246 1061 q 315 1231 256 1169 q 464 1293 375 1293 q 613 1231 553 1293 q 682 1061 672 1169 l 636 1056 q 584 1194 631 1146 q 464 1243 538 1243 q 344 1194 390 1243 q 292 1056 299 1146 z "},"Ṟ":{"ha":908,"x_min":133,"x_max":858,"o":"m 133 0 l 133 979 l 488 979 q 724 908 642 979 q 806 706 806 838 q 768 560 806 621 q 659 469 731 500 q 488 438 588 438 l 503 454 l 514 454 q 605 426 567 454 q 676 336 643 399 l 858 0 l 794 0 l 625 314 q 571 388 600 363 q 503 424 542 414 q 410 433 464 433 l 192 433 l 192 0 l 133 0 m 192 488 l 482 488 q 679 543 614 488 q 744 707 744 599 q 679 869 744 814 q 482 925 614 925 l 192 925 l 192 488 m 269 -206 l 269 -153 l 658 -153 l 658 -206 l 269 -206 z "},"S":{"ha":833,"x_min":72,"x_max":771,"o":"m 431 -11 q 290 3 354 -11 q 171 44 225 17 q 72 110 117 71 l 100 160 q 197 95 149 121 q 301 58 244 69 q 431 46 358 46 q 640 101 569 46 q 710 249 710 157 q 688 333 710 299 q 617 392 665 368 q 490 432 568 417 l 353 460 q 158 547 222 486 q 94 713 94 608 q 137 858 94 796 q 255 956 179 921 q 428 990 331 990 q 552 976 494 990 q 660 934 610 963 q 749 864 710 906 l 721 814 q 586 906 656 878 q 428 933 517 933 q 285 906 346 933 q 190 829 224 879 q 156 713 156 779 q 203 585 156 632 q 356 518 250 539 l 493 490 q 703 405 635 461 q 771 250 771 349 q 730 115 771 174 q 613 22 689 56 q 431 -11 536 -11 z "},"Ś":{"ha":833,"x_min":72,"x_max":771,"o":"m 431 -11 q 290 3 354 -11 q 171 44 225 17 q 72 110 117 71 l 100 160 q 197 95 149 121 q 301 58 244 69 q 431 46 358 46 q 640 101 569 46 q 710 249 710 157 q 688 333 710 299 q 617 392 665 368 q 490 432 568 417 l 353 460 q 158 547 222 486 q 94 713 94 608 q 137 858 94 796 q 255 956 179 921 q 428 990 331 990 q 552 976 494 990 q 660 934 610 963 q 749 864 710 906 l 721 814 q 586 906 656 878 q 428 933 517 933 q 285 906 346 933 q 190 829 224 879 q 156 713 156 779 q 203 585 156 632 q 356 518 250 539 l 493 490 q 703 405 635 461 q 771 250 771 349 q 730 115 771 174 q 613 22 689 56 q 431 -11 536 -11 m 396 1063 l 560 1299 l 638 1299 l 449 1063 l 396 1063 z "},"Ṥ":{"ha":833,"x_min":72,"x_max":771,"o":"m 431 -11 q 290 3 354 -11 q 171 44 225 17 q 72 110 117 71 l 100 160 q 197 95 149 121 q 301 58 244 69 q 431 46 358 46 q 640 101 569 46 q 710 249 710 157 q 688 333 710 299 q 617 392 665 368 q 490 432 568 417 l 353 460 q 158 547 222 486 q 94 713 94 608 q 137 858 94 796 q 255 956 179 921 q 428 990 331 990 q 552 976 494 990 q 660 934 610 963 q 749 864 710 906 l 721 814 q 586 906 656 878 q 428 933 517 933 q 285 906 346 933 q 190 829 224 879 q 156 713 156 779 q 203 585 156 632 q 356 518 250 539 l 493 490 q 703 405 635 461 q 771 250 771 349 q 730 115 771 174 q 613 22 689 56 q 431 -11 536 -11 m 338 1314 l 338 1397 l 422 1397 l 422 1314 l 338 1314 m 396 1063 l 560 1299 l 638 1299 l 449 1063 l 396 1063 z "},"Š":{"ha":833,"x_min":72,"x_max":771,"o":"m 431 -11 q 290 3 354 -11 q 171 44 225 17 q 72 110 117 71 l 100 160 q 197 95 149 121 q 301 58 244 69 q 431 46 358 46 q 640 101 569 46 q 710 249 710 157 q 688 333 710 299 q 617 392 665 368 q 490 432 568 417 l 353 460 q 158 547 222 486 q 94 713 94 608 q 137 858 94 796 q 255 956 179 921 q 428 990 331 990 q 552 976 494 990 q 660 934 610 963 q 749 864 710 906 l 721 814 q 586 906 656 878 q 428 933 517 933 q 285 906 346 933 q 190 829 224 879 q 156 713 156 779 q 203 585 156 632 q 356 518 250 539 l 493 490 q 703 405 635 461 q 771 250 771 349 q 730 115 771 174 q 613 22 689 56 q 431 -11 536 -11 m 389 1063 l 221 1299 l 272 1299 l 422 1115 l 572 1299 l 624 1299 l 456 1063 l 389 1063 z "},"Ṧ":{"ha":833,"x_min":72,"x_max":771,"o":"m 431 -11 q 290 3 354 -11 q 171 44 225 17 q 72 110 117 71 l 100 160 q 197 95 149 121 q 301 58 244 69 q 431 46 358 46 q 640 101 569 46 q 710 249 710 157 q 688 333 710 299 q 617 392 665 368 q 490 432 568 417 l 353 460 q 158 547 222 486 q 94 713 94 608 q 137 858 94 796 q 255 956 179 921 q 428 990 331 990 q 552 976 494 990 q 660 934 610 963 q 749 864 710 906 l 721 814 q 586 906 656 878 q 428 933 517 933 q 285 906 346 933 q 190 829 224 879 q 156 713 156 779 q 203 585 156 632 q 356 518 250 539 l 493 490 q 703 405 635 461 q 771 250 771 349 q 730 115 771 174 q 613 22 689 56 q 431 -11 536 -11 m 389 1063 l 238 1285 l 286 1285 l 422 1117 l 558 1285 l 607 1285 l 456 1063 l 389 1063 m 381 1356 l 381 1439 l 465 1439 l 465 1356 l 381 1356 z "},"Ş":{"ha":833,"x_min":72,"x_max":771,"o":"m 431 -11 q 290 3 354 -11 q 171 44 225 17 q 72 110 117 71 l 100 160 q 197 95 149 121 q 301 58 244 69 q 431 46 358 46 q 640 101 569 46 q 710 249 710 157 q 688 333 710 299 q 617 392 665 368 q 490 432 568 417 l 353 460 q 158 547 222 486 q 94 713 94 608 q 137 858 94 796 q 255 956 179 921 q 428 990 331 990 q 552 976 494 990 q 660 934 610 963 q 749 864 710 906 l 721 814 q 586 906 656 878 q 428 933 517 933 q 285 906 346 933 q 190 829 224 879 q 156 713 156 779 q 203 585 156 632 q 356 518 250 539 l 493 490 q 703 405 635 461 q 771 250 771 349 q 730 115 771 174 q 613 22 689 56 q 431 -11 536 -11 m 438 -264 q 377 -257 406 -264 q 329 -239 349 -250 l 342 -192 q 389 -209 368 -204 q 443 -214 410 -214 q 505 -199 481 -214 q 529 -154 529 -183 q 516 -122 529 -133 q 475 -110 503 -110 q 444 -112 460 -110 q 404 -124 428 -115 l 383 -106 l 404 28 l 457 28 l 439 -76 l 414 -74 q 447 -67 431 -69 q 476 -64 463 -64 q 531 -74 507 -64 q 570 -105 556 -85 q 585 -154 585 -125 q 566 -211 585 -186 q 515 -250 547 -236 q 438 -264 482 -264 z "},"Ŝ":{"ha":833,"x_min":72,"x_max":771,"o":"m 431 -11 q 290 3 354 -11 q 171 44 225 17 q 72 110 117 71 l 100 160 q 197 95 149 121 q 301 58 244 69 q 431 46 358 46 q 640 101 569 46 q 710 249 710 157 q 688 333 710 299 q 617 392 665 368 q 490 432 568 417 l 353 460 q 158 547 222 486 q 94 713 94 608 q 137 858 94 796 q 255 956 179 921 q 428 990 331 990 q 552 976 494 990 q 660 934 610 963 q 749 864 710 906 l 721 814 q 586 906 656 878 q 428 933 517 933 q 285 906 346 933 q 190 829 224 879 q 156 713 156 779 q 203 585 156 632 q 356 518 250 539 l 493 490 q 703 405 635 461 q 771 250 771 349 q 730 115 771 174 q 613 22 689 56 q 431 -11 536 -11 m 221 1063 l 389 1299 l 456 1299 l 624 1063 l 572 1063 l 422 1246 l 272 1063 l 221 1063 z "},"Ș":{"ha":833,"x_min":72,"x_max":771,"o":"m 431 -11 q 290 3 354 -11 q 171 44 225 17 q 72 110 117 71 l 100 160 q 197 95 149 121 q 301 58 244 69 q 431 46 358 46 q 640 101 569 46 q 710 249 710 157 q 688 333 710 299 q 617 392 665 368 q 490 432 568 417 l 353 460 q 158 547 222 486 q 94 713 94 608 q 137 858 94 796 q 255 956 179 921 q 428 990 331 990 q 552 976 494 990 q 660 934 610 963 q 749 864 710 906 l 721 814 q 586 906 656 878 q 428 933 517 933 q 285 906 346 933 q 190 829 224 879 q 156 713 156 779 q 203 585 156 632 q 356 518 250 539 l 493 490 q 703 405 635 461 q 771 250 771 349 q 730 115 771 174 q 613 22 689 56 q 431 -11 536 -11 m 414 -360 l 378 -332 q 420 -265 410 -296 q 431 -200 431 -235 l 451 -210 l 382 -210 l 382 -119 l 479 -119 l 479 -194 q 463 -284 479 -242 q 414 -360 446 -326 z "},"Ṡ":{"ha":833,"x_min":72,"x_max":771,"o":"m 431 -11 q 290 3 354 -11 q 171 44 225 17 q 72 110 117 71 l 100 160 q 197 95 149 121 q 301 58 244 69 q 431 46 358 46 q 640 101 569 46 q 710 249 710 157 q 688 333 710 299 q 617 392 665 368 q 490 432 568 417 l 353 460 q 158 547 222 486 q 94 713 94 608 q 137 858 94 796 q 255 956 179 921 q 428 990 331 990 q 552 976 494 990 q 660 934 610 963 q 749 864 710 906 l 721 814 q 586 906 656 878 q 428 933 517 933 q 285 906 346 933 q 190 829 224 879 q 156 713 156 779 q 203 585 156 632 q 356 518 250 539 l 493 490 q 703 405 635 461 q 771 250 771 349 q 730 115 771 174 q 613 22 689 56 q 431 -11 536 -11 m 379 1136 l 379 1224 l 465 1224 l 465 1136 l 379 1136 z "},"Ṣ":{"ha":833,"x_min":72,"x_max":771,"o":"m 431 -11 q 290 3 354 -11 q 171 44 225 17 q 72 110 117 71 l 100 160 q 197 95 149 121 q 301 58 244 69 q 431 46 358 46 q 640 101 569 46 q 710 249 710 157 q 688 333 710 299 q 617 392 665 368 q 490 432 568 417 l 353 460 q 158 547 222 486 q 94 713 94 608 q 137 858 94 796 q 255 956 179 921 q 428 990 331 990 q 552 976 494 990 q 660 934 610 963 q 749 864 710 906 l 721 814 q 586 906 656 878 q 428 933 517 933 q 285 906 346 933 q 190 829 224 879 q 156 713 156 779 q 203 585 156 632 q 356 518 250 539 l 493 490 q 703 405 635 461 q 771 250 771 349 q 730 115 771 174 q 613 22 689 56 q 431 -11 536 -11 m 386 -239 l 386 -151 l 475 -151 l 475 -239 l 386 -239 z "},"Ṩ":{"ha":833,"x_min":72,"x_max":771,"o":"m 431 -11 q 290 3 354 -11 q 171 44 225 17 q 72 110 117 71 l 100 160 q 197 95 149 121 q 301 58 244 69 q 431 46 358 46 q 640 101 569 46 q 710 249 710 157 q 688 333 710 299 q 617 392 665 368 q 490 432 568 417 l 353 460 q 158 547 222 486 q 94 713 94 608 q 137 858 94 796 q 255 956 179 921 q 428 990 331 990 q 552 976 494 990 q 660 934 610 963 q 749 864 710 906 l 721 814 q 586 906 656 878 q 428 933 517 933 q 285 906 346 933 q 190 829 224 879 q 156 713 156 779 q 203 585 156 632 q 356 518 250 539 l 493 490 q 703 405 635 461 q 771 250 771 349 q 730 115 771 174 q 613 22 689 56 q 431 -11 536 -11 m 386 -239 l 386 -151 l 475 -151 l 475 -239 l 386 -239 m 379 1136 l 379 1224 l 465 1224 l 465 1136 l 379 1136 z "},"ẞ":{"ha":968,"x_min":133,"x_max":869,"o":"m 574 -11 q 419 13 489 -11 q 300 85 349 38 l 331 133 q 443 65 385 85 q 574 44 501 44 q 749 101 689 44 q 808 258 808 158 q 747 411 808 357 q 558 465 685 465 l 354 465 l 354 519 l 521 519 q 645 544 593 519 q 726 615 697 568 q 756 728 756 661 q 689 882 756 829 q 499 935 622 935 q 270 863 349 935 q 192 649 192 792 l 192 0 l 133 0 l 133 653 q 177 839 133 764 q 303 952 221 914 q 497 990 385 990 q 666 959 594 990 q 777 871 738 928 q 817 735 817 814 q 794 622 817 674 q 731 537 772 571 q 633 490 690 503 l 633 510 q 806 431 742 496 q 869 258 869 367 q 834 112 869 172 q 733 20 799 51 q 574 -11 667 -11 z "},"T":{"ha":814,"x_min":4,"x_max":810,"o":"m 378 0 l 378 925 l 4 925 l 4 979 l 810 979 l 810 925 l 436 925 l 436 0 l 378 0 z "},"Ŧ":{"ha":814,"x_min":4,"x_max":810,"o":"m 378 0 l 378 925 l 4 925 l 4 979 l 810 979 l 810 925 l 436 925 l 436 0 l 378 0 m 175 472 l 175 524 l 639 524 l 639 472 l 175 472 z "},"Ť":{"ha":814,"x_min":4,"x_max":810,"o":"m 378 0 l 378 925 l 4 925 l 4 979 l 810 979 l 810 925 l 436 925 l 436 0 l 378 0 m 374 1063 l 206 1299 l 257 1299 l 407 1115 l 557 1299 l 608 1299 l 440 1063 l 374 1063 z "},"Ţ":{"ha":814,"x_min":4,"x_max":810,"o":"m 378 0 l 378 925 l 4 925 l 4 979 l 810 979 l 810 925 l 436 925 l 436 0 l 378 0 m 414 -264 q 353 -257 382 -264 q 306 -239 325 -250 l 318 -192 q 365 -209 344 -204 q 419 -214 386 -214 q 481 -199 457 -214 q 506 -154 506 -183 q 492 -122 506 -133 q 451 -110 479 -110 q 420 -112 436 -110 q 381 -124 404 -115 l 360 -106 l 381 28 l 433 28 l 415 -76 l 390 -74 q 423 -67 407 -69 q 453 -64 439 -64 q 508 -74 483 -64 q 547 -105 532 -85 q 561 -154 561 -125 q 542 -211 561 -186 q 491 -250 524 -236 q 414 -264 458 -264 z "},"Ț":{"ha":814,"x_min":4,"x_max":810,"o":"m 378 0 l 378 925 l 4 925 l 4 979 l 810 979 l 810 925 l 436 925 l 436 0 l 378 0 m 390 -360 l 354 -332 q 397 -265 386 -296 q 407 -200 407 -235 l 428 -210 l 358 -210 l 358 -119 l 456 -119 l 456 -194 q 439 -284 456 -242 q 390 -360 422 -326 z "},"Ṭ":{"ha":814,"x_min":4,"x_max":810,"o":"m 378 0 l 378 925 l 4 925 l 4 979 l 810 979 l 810 925 l 436 925 l 436 0 l 378 0 m 363 -239 l 363 -151 l 451 -151 l 451 -239 l 363 -239 z "},"Ṯ":{"ha":814,"x_min":4,"x_max":810,"o":"m 378 0 l 378 925 l 4 925 l 4 979 l 810 979 l 810 925 l 436 925 l 436 0 l 378 0 m 213 -206 l 213 -153 l 601 -153 l 601 -206 l 213 -206 z "},"U":{"ha":1000,"x_min":126,"x_max":874,"o":"m 500 -11 q 222 88 317 -11 q 126 376 126 188 l 126 979 l 185 979 l 185 385 q 265 130 185 214 q 500 46 344 46 q 736 130 657 46 q 815 385 815 214 l 815 979 l 874 979 l 874 376 q 778 88 874 188 q 500 -11 683 -11 z "},"Ú":{"ha":1000,"x_min":126,"x_max":874,"o":"m 500 -11 q 222 88 317 -11 q 126 376 126 188 l 126 979 l 185 979 l 185 385 q 265 130 185 214 q 500 46 344 46 q 736 130 657 46 q 815 385 815 214 l 815 979 l 874 979 l 874 376 q 778 88 874 188 q 500 -11 683 -11 m 474 1063 l 638 1299 l 715 1299 l 526 1063 l 474 1063 z "},"Ŭ":{"ha":1000,"x_min":126,"x_max":874,"o":"m 500 -11 q 222 88 317 -11 q 126 376 126 188 l 126 979 l 185 979 l 185 385 q 265 130 185 214 q 500 46 344 46 q 736 130 657 46 q 815 385 815 214 l 815 979 l 874 979 l 874 376 q 778 88 874 188 q 500 -11 683 -11 m 500 1056 q 351 1117 411 1056 q 282 1288 292 1179 l 328 1293 q 381 1155 335 1204 q 500 1106 426 1106 q 620 1155 574 1106 q 672 1293 667 1204 l 718 1288 q 649 1117 708 1179 q 500 1056 589 1056 z "},"Û":{"ha":1000,"x_min":126,"x_max":874,"o":"m 500 -11 q 222 88 317 -11 q 126 376 126 188 l 126 979 l 185 979 l 185 385 q 265 130 185 214 q 500 46 344 46 q 736 130 657 46 q 815 385 815 214 l 815 979 l 874 979 l 874 376 q 778 88 874 188 q 500 -11 683 -11 m 299 1063 l 467 1299 l 533 1299 l 701 1063 l 650 1063 l 500 1246 l 350 1063 l 299 1063 z "},"Ȕ":{"ha":1000,"x_min":126,"x_max":874,"o":"m 500 -11 q 222 88 317 -11 q 126 376 126 188 l 126 979 l 185 979 l 185 385 q 265 130 185 214 q 500 46 344 46 q 736 130 657 46 q 815 385 815 214 l 815 979 l 874 979 l 874 376 q 778 88 874 188 q 500 -11 683 -11 m 557 1063 l 403 1299 l 475 1299 l 594 1063 l 557 1063 m 406 1063 l 253 1299 l 325 1299 l 443 1063 l 406 1063 z "},"Ü":{"ha":1000,"x_min":126,"x_max":874,"o":"m 500 -11 q 222 88 317 -11 q 126 376 126 188 l 126 979 l 185 979 l 185 385 q 265 130 185 214 q 500 46 344 46 q 736 130 657 46 q 815 385 815 214 l 815 979 l 874 979 l 874 376 q 778 88 874 188 q 500 -11 683 -11 m 569 1139 l 569 1222 l 654 1222 l 654 1139 l 569 1139 m 346 1139 l 346 1222 l 431 1222 l 431 1139 l 346 1139 z "},"Ụ":{"ha":1000,"x_min":126,"x_max":874,"o":"m 500 -11 q 222 88 317 -11 q 126 376 126 188 l 126 979 l 185 979 l 185 385 q 265 130 185 214 q 500 46 344 46 q 736 130 657 46 q 815 385 815 214 l 815 979 l 874 979 l 874 376 q 778 88 874 188 q 500 -11 683 -11 m 456 -239 l 456 -151 l 544 -151 l 544 -239 l 456 -239 z "},"Ù":{"ha":1000,"x_min":126,"x_max":874,"o":"m 500 -11 q 222 88 317 -11 q 126 376 126 188 l 126 979 l 185 979 l 185 385 q 265 130 185 214 q 500 46 344 46 q 736 130 657 46 q 815 385 815 214 l 815 979 l 874 979 l 874 376 q 778 88 874 188 q 500 -11 683 -11 m 474 1063 l 285 1299 l 363 1299 l 526 1063 l 474 1063 z "},"Ủ":{"ha":1000,"x_min":126,"x_max":874,"o":"m 500 -11 q 222 88 317 -11 q 126 376 126 188 l 126 979 l 185 979 l 185 385 q 265 130 185 214 q 500 46 344 46 q 736 130 657 46 q 815 385 815 214 l 815 979 l 874 979 l 874 376 q 778 88 874 188 q 500 -11 683 -11 m 474 1063 l 474 1082 q 488 1131 474 1113 q 522 1163 503 1150 q 555 1189 540 1176 q 569 1219 569 1201 q 552 1246 569 1236 q 497 1256 535 1256 q 455 1251 476 1256 q 407 1233 433 1246 l 394 1279 q 444 1299 417 1292 q 503 1306 472 1306 q 594 1283 561 1306 q 626 1222 626 1260 q 611 1176 626 1193 q 576 1147 596 1158 q 542 1119 557 1135 q 526 1076 526 1104 l 526 1063 l 474 1063 z "},"Ư":{"ha":1000,"x_min":126,"x_max":1039,"o":"m 500 -11 q 222 88 317 -11 q 126 376 126 188 l 126 979 l 185 979 l 185 385 q 265 130 185 214 q 500 46 344 46 q 736 130 657 46 q 815 385 815 214 l 815 979 l 874 979 l 874 376 q 778 88 874 188 q 500 -11 683 -11 m 838 926 l 817 944 l 817 979 q 920 999 885 981 q 969 1056 956 1018 q 983 1146 983 1093 l 983 1163 l 1039 1163 l 1039 1135 q 1016 1024 1039 1069 q 948 954 993 979 q 838 926 903 929 z "},"Ứ":{"ha":1000,"x_min":126,"x_max":1039,"o":"m 500 -11 q 222 88 317 -11 q 126 376 126 188 l 126 979 l 185 979 l 185 385 q 265 130 185 214 q 500 46 344 46 q 736 130 657 46 q 815 385 815 214 l 815 979 l 874 979 l 874 376 q 778 88 874 188 q 500 -11 683 -11 m 838 926 l 817 944 l 817 979 q 920 999 885 981 q 969 1056 956 1018 q 983 1146 983 1093 l 983 1163 l 1039 1163 l 1039 1135 q 1016 1024 1039 1069 q 948 954 993 979 q 838 926 903 929 m 474 1063 l 638 1299 l 715 1299 l 526 1063 l 474 1063 z "},"Ự":{"ha":1000,"x_min":126,"x_max":1039,"o":"m 500 -11 q 222 88 317 -11 q 126 376 126 188 l 126 979 l 185 979 l 185 385 q 265 130 185 214 q 500 46 344 46 q 736 130 657 46 q 815 385 815 214 l 815 979 l 874 979 l 874 376 q 778 88 874 188 q 500 -11 683 -11 m 838 926 l 817 944 l 817 979 q 920 999 885 981 q 969 1056 956 1018 q 983 1146 983 1093 l 983 1163 l 1039 1163 l 1039 1135 q 1016 1024 1039 1069 q 948 954 993 979 q 838 926 903 929 m 456 -239 l 456 -151 l 544 -151 l 544 -239 l 456 -239 z "},"Ừ":{"ha":1000,"x_min":126,"x_max":1039,"o":"m 500 -11 q 222 88 317 -11 q 126 376 126 188 l 126 979 l 185 979 l 185 385 q 265 130 185 214 q 500 46 344 46 q 736 130 657 46 q 815 385 815 214 l 815 979 l 874 979 l 874 376 q 778 88 874 188 q 500 -11 683 -11 m 838 926 l 817 944 l 817 979 q 920 999 885 981 q 969 1056 956 1018 q 983 1146 983 1093 l 983 1163 l 1039 1163 l 1039 1135 q 1016 1024 1039 1069 q 948 954 993 979 q 838 926 903 929 m 474 1063 l 285 1299 l 363 1299 l 526 1063 l 474 1063 z "},"Ử":{"ha":1000,"x_min":126,"x_max":1039,"o":"m 500 -11 q 222 88 317 -11 q 126 376 126 188 l 126 979 l 185 979 l 185 385 q 265 130 185 214 q 500 46 344 46 q 736 130 657 46 q 815 385 815 214 l 815 979 l 874 979 l 874 376 q 778 88 874 188 q 500 -11 683 -11 m 838 926 l 817 944 l 817 979 q 920 999 885 981 q 969 1056 956 1018 q 983 1146 983 1093 l 983 1163 l 1039 1163 l 1039 1135 q 1016 1024 1039 1069 q 948 954 993 979 q 838 926 903 929 m 474 1063 l 474 1082 q 488 1131 474 1113 q 522 1163 503 1150 q 555 1189 540 1176 q 569 1219 569 1201 q 552 1246 569 1236 q 497 1256 535 1256 q 455 1251 476 1256 q 407 1233 433 1246 l 394 1279 q 444 1299 417 1292 q 503 1306 472 1306 q 594 1283 561 1306 q 626 1222 626 1260 q 611 1176 626 1193 q 576 1147 596 1158 q 542 1119 557 1135 q 526 1076 526 1104 l 526 1063 l 474 1063 z "},"Ữ":{"ha":1000,"x_min":126,"x_max":1039,"o":"m 500 -11 q 222 88 317 -11 q 126 376 126 188 l 126 979 l 185 979 l 185 385 q 265 130 185 214 q 500 46 344 46 q 736 130 657 46 q 815 385 815 214 l 815 979 l 874 979 l 874 376 q 778 88 874 188 q 500 -11 683 -11 m 838 926 l 817 944 l 817 979 q 920 999 885 981 q 969 1056 956 1018 q 983 1146 983 1093 l 983 1163 l 1039 1163 l 1039 1135 q 1016 1024 1039 1069 q 948 954 993 979 q 838 926 903 929 m 286 1100 l 242 1103 q 268 1194 249 1157 q 319 1251 288 1232 q 390 1271 350 1271 q 452 1255 422 1271 q 517 1207 482 1239 q 570 1166 549 1179 q 614 1153 592 1153 q 680 1184 656 1153 q 714 1274 704 1215 l 758 1271 q 733 1180 753 1218 q 682 1122 713 1142 q 611 1103 651 1103 q 547 1120 576 1103 q 483 1167 517 1138 q 428 1208 451 1196 q 386 1221 406 1221 q 320 1190 344 1221 q 286 1100 296 1158 z "},"Ű":{"ha":1000,"x_min":126,"x_max":874,"o":"m 500 -11 q 222 88 317 -11 q 126 376 126 188 l 126 979 l 185 979 l 185 385 q 265 130 185 214 q 500 46 344 46 q 736 130 657 46 q 815 385 815 214 l 815 979 l 874 979 l 874 376 q 778 88 874 188 q 500 -11 683 -11 m 406 1063 l 525 1299 l 597 1299 l 443 1063 l 406 1063 m 557 1063 l 675 1299 l 747 1299 l 594 1063 l 557 1063 z "},"Ȗ":{"ha":1000,"x_min":126,"x_max":874,"o":"m 500 -11 q 222 88 317 -11 q 126 376 126 188 l 126 979 l 185 979 l 185 385 q 265 130 185 214 q 500 46 344 46 q 736 130 657 46 q 815 385 815 214 l 815 979 l 874 979 l 874 376 q 778 88 874 188 q 500 -11 683 -11 m 328 1056 l 282 1061 q 351 1231 292 1169 q 500 1293 411 1293 q 649 1231 589 1293 q 718 1061 708 1169 l 672 1056 q 620 1194 667 1146 q 500 1243 574 1243 q 381 1194 426 1243 q 328 1056 335 1146 z "},"Ū":{"ha":1000,"x_min":126,"x_max":874,"o":"m 500 -11 q 222 88 317 -11 q 126 376 126 188 l 126 979 l 185 979 l 185 385 q 265 130 185 214 q 500 46 344 46 q 736 130 657 46 q 815 385 815 214 l 815 979 l 874 979 l 874 376 q 778 88 874 188 q 500 -11 683 -11 m 285 1142 l 285 1194 l 715 1194 l 715 1142 l 285 1142 z "},"Ṻ":{"ha":1000,"x_min":126,"x_max":874,"o":"m 500 -11 q 222 88 317 -11 q 126 376 126 188 l 126 979 l 185 979 l 185 385 q 265 130 185 214 q 500 46 344 46 q 736 130 657 46 q 815 385 815 214 l 815 979 l 874 979 l 874 376 q 778 88 874 188 q 500 -11 683 -11 m 306 1119 l 306 1172 l 694 1172 l 694 1119 l 306 1119 m 346 1257 l 346 1340 l 431 1340 l 431 1257 l 346 1257 m 569 1257 l 569 1340 l 654 1340 l 654 1257 l 569 1257 z "},"Ų":{"ha":1000,"x_min":126,"x_max":874,"o":"m 500 -11 q 222 88 317 -11 q 126 376 126 188 l 126 979 l 185 979 l 185 385 q 265 130 185 214 q 500 46 344 46 q 736 130 657 46 q 815 385 815 214 l 815 979 l 874 979 l 874 376 q 778 88 874 188 q 500 -11 683 -11 m 556 -264 q 462 -229 499 -264 q 425 -136 425 -194 q 458 -35 425 -83 q 550 43 490 13 l 579 0 q 535 -26 558 -8 q 496 -71 513 -44 q 479 -131 479 -97 q 503 -194 479 -174 q 563 -214 528 -214 q 599 -210 581 -214 q 636 -196 617 -206 l 654 -240 q 614 -257 640 -250 q 556 -264 588 -264 z "},"Ů":{"ha":1000,"x_min":126,"x_max":874,"o":"m 500 -11 q 222 88 317 -11 q 126 376 126 188 l 126 979 l 185 979 l 185 385 q 265 130 185 214 q 500 46 344 46 q 736 130 657 46 q 815 385 815 214 l 815 979 l 874 979 l 874 376 q 778 88 874 188 q 500 -11 683 -11 m 500 1056 q 422 1076 457 1056 q 365 1132 386 1097 q 344 1208 344 1167 q 365 1285 344 1251 q 422 1340 386 1319 q 500 1361 457 1361 q 579 1340 544 1361 q 635 1285 614 1319 q 656 1208 656 1251 q 635 1132 656 1167 q 579 1076 614 1097 q 500 1056 544 1056 m 500 1100 q 578 1131 549 1100 q 608 1208 608 1163 q 578 1285 608 1254 q 500 1317 549 1317 q 422 1285 453 1317 q 392 1208 392 1254 q 422 1131 392 1163 q 500 1100 453 1100 z "},"Ũ":{"ha":1000,"x_min":126,"x_max":874,"o":"m 500 -11 q 222 88 317 -11 q 126 376 126 188 l 126 979 l 185 979 l 185 385 q 265 130 185 214 q 500 46 344 46 q 736 130 657 46 q 815 385 815 214 l 815 979 l 874 979 l 874 376 q 778 88 874 188 q 500 -11 683 -11 m 272 1100 l 228 1103 q 276 1227 238 1183 q 376 1271 315 1271 q 440 1256 408 1271 q 518 1207 472 1240 q 585 1165 563 1176 q 628 1153 607 1153 q 694 1184 669 1153 q 728 1274 718 1215 l 772 1271 q 724 1147 763 1190 q 625 1103 686 1103 q 561 1118 594 1103 q 478 1169 528 1133 q 415 1210 439 1199 q 372 1221 392 1221 q 306 1190 331 1221 q 272 1100 282 1158 z "},"Ṹ":{"ha":1000,"x_min":126,"x_max":874,"o":"m 500 -11 q 222 88 317 -11 q 126 376 126 188 l 126 979 l 185 979 l 185 385 q 265 130 185 214 q 500 46 344 46 q 736 130 657 46 q 815 385 815 214 l 815 979 l 874 979 l 874 376 q 778 88 874 188 q 500 -11 683 -11 m 475 1210 l 611 1418 l 686 1418 l 525 1210 l 475 1210 m 589 1067 q 541 1078 564 1067 q 486 1114 518 1089 q 442 1144 458 1138 q 413 1150 426 1150 q 366 1130 382 1150 q 343 1064 350 1110 l 297 1067 q 317 1141 301 1111 q 356 1185 332 1171 q 413 1200 381 1200 q 457 1190 436 1200 q 508 1157 478 1181 q 556 1125 539 1133 q 588 1117 572 1117 q 635 1137 619 1117 q 657 1203 650 1157 l 703 1200 q 667 1100 697 1133 q 589 1067 636 1067 z "},"V":{"ha":926,"x_min":11,"x_max":915,"o":"m 432 0 l 11 979 l 74 979 l 481 33 l 449 33 l 854 979 l 915 979 l 494 0 l 432 0 z "},"W":{"ha":1515,"x_min":53,"x_max":1463,"o":"m 392 0 l 53 979 l 114 979 l 442 26 l 400 26 l 729 979 l 783 979 l 1113 26 l 1074 26 l 1403 979 l 1463 979 l 1124 0 l 1064 0 l 743 932 l 771 932 l 449 0 l 392 0 z "},"Ẃ":{"ha":1515,"x_min":53,"x_max":1463,"o":"m 392 0 l 53 979 l 114 979 l 442 26 l 400 26 l 729 979 l 783 979 l 1113 26 l 1074 26 l 1403 979 l 1463 979 l 1124 0 l 1064 0 l 743 932 l 771 932 l 449 0 l 392 0 m 731 1063 l 894 1299 l 972 1299 l 783 1063 l 731 1063 z "},"Ŵ":{"ha":1515,"x_min":53,"x_max":1463,"o":"m 392 0 l 53 979 l 114 979 l 442 26 l 400 26 l 729 979 l 783 979 l 1113 26 l 1074 26 l 1403 979 l 1463 979 l 1124 0 l 1064 0 l 743 932 l 771 932 l 449 0 l 392 0 m 556 1063 l 724 1299 l 790 1299 l 958 1063 l 907 1063 l 757 1246 l 607 1063 l 556 1063 z "},"Ẅ":{"ha":1515,"x_min":53,"x_max":1463,"o":"m 392 0 l 53 979 l 114 979 l 442 26 l 400 26 l 729 979 l 783 979 l 1113 26 l 1074 26 l 1403 979 l 1463 979 l 1124 0 l 1064 0 l 743 932 l 771 932 l 449 0 l 392 0 m 826 1139 l 826 1222 l 911 1222 l 911 1139 l 826 1139 m 603 1139 l 603 1222 l 688 1222 l 688 1139 l 603 1139 z "},"Ẁ":{"ha":1515,"x_min":53,"x_max":1463,"o":"m 392 0 l 53 979 l 114 979 l 442 26 l 400 26 l 729 979 l 783 979 l 1113 26 l 1074 26 l 1403 979 l 1463 979 l 1124 0 l 1064 0 l 743 932 l 771 932 l 449 0 l 392 0 m 731 1063 l 542 1299 l 619 1299 l 783 1063 l 731 1063 z "},"X":{"ha":876,"x_min":33,"x_max":843,"o":"m 33 0 l 410 510 l 410 496 l 54 979 l 124 979 l 449 538 l 432 538 l 753 979 l 822 979 l 467 496 l 467 510 l 843 0 l 772 0 l 424 475 l 453 475 l 104 0 l 33 0 z "},"Y":{"ha":801,"x_min":-1,"x_max":803,"o":"m 371 0 l 371 510 l 386 456 l -1 979 l 67 979 l 413 511 l 392 511 l 738 979 l 803 979 l 415 456 l 429 510 l 429 0 l 371 0 z "},"Ý":{"ha":801,"x_min":-1,"x_max":803,"o":"m 371 0 l 371 510 l 386 456 l -1 979 l 67 979 l 413 511 l 392 511 l 738 979 l 803 979 l 415 456 l 429 510 l 429 0 l 371 0 m 374 1063 l 538 1299 l 615 1299 l 426 1063 l 374 1063 z "},"Ŷ":{"ha":801,"x_min":-1,"x_max":803,"o":"m 371 0 l 371 510 l 386 456 l -1 979 l 67 979 l 413 511 l 392 511 l 738 979 l 803 979 l 415 456 l 429 510 l 429 0 l 371 0 m 199 1063 l 367 1299 l 433 1299 l 601 1063 l 550 1063 l 400 1246 l 250 1063 l 199 1063 z "},"Ÿ":{"ha":801,"x_min":-1,"x_max":803,"o":"m 371 0 l 371 510 l 386 456 l -1 979 l 67 979 l 413 511 l 392 511 l 738 979 l 803 979 l 415 456 l 429 510 l 429 0 l 371 0 m 469 1139 l 469 1222 l 554 1222 l 554 1139 l 469 1139 m 246 1139 l 246 1222 l 331 1222 l 331 1139 l 246 1139 z "},"Ẏ":{"ha":801,"x_min":-1,"x_max":803,"o":"m 371 0 l 371 510 l 386 456 l -1 979 l 67 979 l 413 511 l 392 511 l 738 979 l 803 979 l 415 456 l 429 510 l 429 0 l 371 0 m 357 1136 l 357 1224 l 443 1224 l 443 1136 l 357 1136 z "},"Ỵ":{"ha":801,"x_min":-1,"x_max":803,"o":"m 371 0 l 371 510 l 386 456 l -1 979 l 67 979 l 413 511 l 392 511 l 738 979 l 803 979 l 415 456 l 429 510 l 429 0 l 371 0 m 356 -239 l 356 -151 l 444 -151 l 444 -239 l 356 -239 z "},"Ỳ":{"ha":801,"x_min":-1,"x_max":803,"o":"m 371 0 l 371 510 l 386 456 l -1 979 l 67 979 l 413 511 l 392 511 l 738 979 l 803 979 l 415 456 l 429 510 l 429 0 l 371 0 m 374 1063 l 185 1299 l 263 1299 l 426 1063 l 374 1063 z "},"Ƴ":{"ha":843,"x_min":-1,"x_max":896,"o":"m 371 0 l 371 510 l 386 456 l -1 979 l 67 979 l 413 511 l 393 511 l 663 893 q 740 967 699 944 q 828 989 781 989 q 864 987 850 989 q 896 978 878 985 l 896 926 q 867 935 882 932 q 831 938 851 938 q 766 922 796 938 q 707 865 736 906 l 415 456 l 429 510 l 429 0 l 371 0 z "},"Ỷ":{"ha":801,"x_min":-1,"x_max":803,"o":"m 371 0 l 371 510 l 386 456 l -1 979 l 67 979 l 413 511 l 392 511 l 738 979 l 803 979 l 415 456 l 429 510 l 429 0 l 371 0 m 374 1063 l 374 1082 q 388 1131 374 1113 q 422 1163 403 1150 q 455 1189 440 1176 q 469 1219 469 1201 q 452 1246 469 1236 q 397 1256 435 1256 q 355 1251 376 1256 q 307 1233 333 1246 l 294 1279 q 344 1299 317 1292 q 403 1306 372 1306 q 494 1283 461 1306 q 526 1222 526 1260 q 511 1176 526 1193 q 476 1147 496 1158 q 442 1119 457 1135 q 426 1076 426 1104 l 426 1063 l 374 1063 z "},"Ȳ":{"ha":801,"x_min":-1,"x_max":803,"o":"m 371 0 l 371 510 l 386 456 l -1 979 l 67 979 l 413 511 l 392 511 l 738 979 l 803 979 l 415 456 l 429 510 l 429 0 l 371 0 m 185 1142 l 185 1194 l 615 1194 l 615 1142 l 185 1142 z "},"Ỹ":{"ha":801,"x_min":-1,"x_max":803,"o":"m 371 0 l 371 510 l 386 456 l -1 979 l 67 979 l 413 511 l 392 511 l 738 979 l 803 979 l 415 456 l 429 510 l 429 0 l 371 0 m 172 1100 l 128 1103 q 176 1227 138 1183 q 276 1271 215 1271 q 340 1256 308 1271 q 418 1207 372 1240 q 485 1165 463 1176 q 528 1153 507 1153 q 594 1184 569 1153 q 628 1274 618 1215 l 672 1271 q 624 1147 663 1190 q 525 1103 586 1103 q 461 1118 494 1103 q 378 1169 428 1133 q 315 1210 339 1199 q 272 1221 292 1221 q 206 1190 231 1221 q 172 1100 182 1158 z "},"Z":{"ha":799,"x_min":68,"x_max":767,"o":"m 68 0 l 68 43 l 693 957 l 693 925 l 68 925 l 68 979 l 747 979 l 747 936 l 122 22 l 122 54 l 767 54 l 767 0 l 68 0 z "},"Ź":{"ha":799,"x_min":68,"x_max":767,"o":"m 68 0 l 68 43 l 693 957 l 693 925 l 68 925 l 68 979 l 747 979 l 747 936 l 122 22 l 122 54 l 767 54 l 767 0 l 68 0 m 390 1063 l 554 1299 l 632 1299 l 443 1063 l 390 1063 z "},"Ž":{"ha":799,"x_min":68,"x_max":767,"o":"m 68 0 l 68 43 l 693 957 l 693 925 l 68 925 l 68 979 l 747 979 l 747 936 l 122 22 l 122 54 l 767 54 l 767 0 l 68 0 m 383 1063 l 215 1299 l 267 1299 l 417 1115 l 567 1299 l 618 1299 l 450 1063 l 383 1063 z "},"Ż":{"ha":799,"x_min":68,"x_max":767,"o":"m 68 0 l 68 43 l 693 957 l 693 925 l 68 925 l 68 979 l 747 979 l 747 936 l 122 22 l 122 54 l 767 54 l 767 0 l 68 0 m 374 1136 l 374 1224 l 460 1224 l 460 1136 l 374 1136 z "},"Ẓ":{"ha":799,"x_min":68,"x_max":767,"o":"m 68 0 l 68 43 l 693 957 l 693 925 l 68 925 l 68 979 l 747 979 l 747 936 l 122 22 l 122 54 l 767 54 l 767 0 l 68 0 m 374 -239 l 374 -151 l 463 -151 l 463 -239 l 374 -239 z "},"a":{"ha":714,"x_min":89,"x_max":599,"o":"m 321 -11 q 203 15 256 -11 q 119 87 150 42 q 89 188 89 132 q 126 305 89 263 q 252 365 163 347 q 499 382 342 382 l 556 382 l 556 331 l 501 331 q 331 324 399 331 q 224 302 263 318 q 169 260 185 286 q 153 193 153 233 q 199 84 153 126 q 325 42 246 42 q 437 73 389 42 q 513 158 485 104 q 540 279 540 211 l 540 438 q 501 583 540 538 q 376 629 463 629 q 259 611 314 629 q 144 553 204 593 l 117 603 q 195 646 153 628 q 283 674 238 664 q 374 683 329 683 q 500 657 450 683 q 574 576 550 631 q 599 438 599 522 l 599 0 l 542 0 l 542 168 l 557 168 q 510 72 543 113 q 428 10 476 32 q 321 -11 381 -11 z "},"á":{"ha":714,"x_min":89,"x_max":599,"o":"m 321 -11 q 203 15 256 -11 q 119 87 150 42 q 89 188 89 132 q 126 305 89 263 q 252 365 163 347 q 499 382 342 382 l 556 382 l 556 331 l 501 331 q 331 324 399 331 q 224 302 263 318 q 169 260 185 286 q 153 193 153 233 q 199 84 153 126 q 325 42 246 42 q 437 73 389 42 q 513 158 485 104 q 540 279 540 211 l 540 438 q 501 583 540 538 q 376 629 463 629 q 259 611 314 629 q 144 553 204 593 l 117 603 q 195 646 153 628 q 283 674 238 664 q 374 683 329 683 q 500 657 450 683 q 574 576 550 631 q 599 438 599 522 l 599 0 l 542 0 l 542 168 l 557 168 q 510 72 543 113 q 428 10 476 32 q 321 -11 381 -11 m 343 763 l 488 1040 l 563 1040 l 393 763 l 343 763 z "},"ă":{"ha":714,"x_min":89,"x_max":599,"o":"m 321 -11 q 203 15 256 -11 q 119 87 150 42 q 89 188 89 132 q 126 305 89 263 q 252 365 163 347 q 499 382 342 382 l 556 382 l 556 331 l 501 331 q 331 324 399 331 q 224 302 263 318 q 169 260 185 286 q 153 193 153 233 q 199 84 153 126 q 325 42 246 42 q 437 73 389 42 q 513 158 485 104 q 540 279 540 211 l 540 438 q 501 583 540 538 q 376 629 463 629 q 259 611 314 629 q 144 553 204 593 l 117 603 q 195 646 153 628 q 283 674 238 664 q 374 683 329 683 q 500 657 450 683 q 574 576 550 631 q 599 438 599 522 l 599 0 l 542 0 l 542 168 l 557 168 q 510 72 543 113 q 428 10 476 32 q 321 -11 381 -11 m 368 760 q 267 791 311 760 q 199 881 224 822 q 168 1019 174 939 l 214 1025 q 260 866 219 922 q 368 810 300 810 q 477 866 438 810 q 522 1025 517 922 l 568 1019 q 538 881 564 939 q 469 791 513 822 q 368 760 426 760 z "},"ắ":{"ha":714,"x_min":89,"x_max":599,"o":"m 321 -11 q 203 15 256 -11 q 119 87 150 42 q 89 188 89 132 q 126 305 89 263 q 252 365 163 347 q 499 382 342 382 l 556 382 l 556 331 l 501 331 q 331 324 399 331 q 224 302 263 318 q 169 260 185 286 q 153 193 153 233 q 199 84 153 126 q 325 42 246 42 q 437 73 389 42 q 513 158 485 104 q 540 279 540 211 l 540 438 q 501 583 540 538 q 376 629 463 629 q 259 611 314 629 q 144 553 204 593 l 117 603 q 195 646 153 628 q 283 674 238 664 q 374 683 329 683 q 500 657 450 683 q 574 576 550 631 q 599 438 599 522 l 599 0 l 542 0 l 542 168 l 557 168 q 510 72 543 113 q 428 10 476 32 q 321 -11 381 -11 m 368 760 q 228 814 282 760 q 168 964 175 868 l 214 969 q 260 851 219 893 q 368 810 300 810 q 477 851 438 810 q 522 969 517 893 l 568 964 q 508 814 561 868 q 368 760 454 760 m 335 903 l 471 1111 l 546 1111 l 385 903 l 335 903 z "},"ặ":{"ha":714,"x_min":89,"x_max":599,"o":"m 321 -11 q 203 15 256 -11 q 119 87 150 42 q 89 188 89 132 q 126 305 89 263 q 252 365 163 347 q 499 382 342 382 l 556 382 l 556 331 l 501 331 q 331 324 399 331 q 224 302 263 318 q 169 260 185 286 q 153 193 153 233 q 199 84 153 126 q 325 42 246 42 q 437 73 389 42 q 513 158 485 104 q 540 279 540 211 l 540 438 q 501 583 540 538 q 376 629 463 629 q 259 611 314 629 q 144 553 204 593 l 117 603 q 195 646 153 628 q 283 674 238 664 q 374 683 329 683 q 500 657 450 683 q 574 576 550 631 q 599 438 599 522 l 599 0 l 542 0 l 542 168 l 557 168 q 510 72 543 113 q 428 10 476 32 q 321 -11 381 -11 m 319 -239 l 319 -151 l 408 -151 l 408 -239 l 319 -239 m 368 760 q 267 791 311 760 q 199 881 224 822 q 168 1019 174 939 l 214 1025 q 260 866 219 922 q 368 810 300 810 q 477 866 438 810 q 522 1025 517 922 l 568 1019 q 538 881 564 939 q 469 791 513 822 q 368 760 426 760 z "},"ằ":{"ha":714,"x_min":89,"x_max":599,"o":"m 321 -11 q 203 15 256 -11 q 119 87 150 42 q 89 188 89 132 q 126 305 89 263 q 252 365 163 347 q 499 382 342 382 l 556 382 l 556 331 l 501 331 q 331 324 399 331 q 224 302 263 318 q 169 260 185 286 q 153 193 153 233 q 199 84 153 126 q 325 42 246 42 q 437 73 389 42 q 513 158 485 104 q 540 279 540 211 l 540 438 q 501 583 540 538 q 376 629 463 629 q 259 611 314 629 q 144 553 204 593 l 117 603 q 195 646 153 628 q 283 674 238 664 q 374 683 329 683 q 500 657 450 683 q 574 576 550 631 q 599 438 599 522 l 599 0 l 542 0 l 542 168 l 557 168 q 510 72 543 113 q 428 10 476 32 q 321 -11 381 -11 m 368 760 q 228 814 282 760 q 168 964 175 868 l 214 969 q 260 851 219 893 q 368 810 300 810 q 477 851 438 810 q 522 969 517 893 l 568 964 q 508 814 561 868 q 368 760 454 760 m 351 903 l 190 1111 l 265 1111 l 401 903 l 351 903 z "},"ẳ":{"ha":714,"x_min":89,"x_max":599,"o":"m 321 -11 q 203 15 256 -11 q 119 87 150 42 q 89 188 89 132 q 126 305 89 263 q 252 365 163 347 q 499 382 342 382 l 556 382 l 556 331 l 501 331 q 331 324 399 331 q 224 302 263 318 q 169 260 185 286 q 153 193 153 233 q 199 84 153 126 q 325 42 246 42 q 437 73 389 42 q 513 158 485 104 q 540 279 540 211 l 540 438 q 501 583 540 538 q 376 629 463 629 q 259 611 314 629 q 144 553 204 593 l 117 603 q 195 646 153 628 q 283 674 238 664 q 374 683 329 683 q 500 657 450 683 q 574 576 550 631 q 599 438 599 522 l 599 0 l 542 0 l 542 168 l 557 168 q 510 72 543 113 q 428 10 476 32 q 321 -11 381 -11 m 368 760 q 228 814 282 760 q 168 964 175 868 l 214 969 q 260 851 219 893 q 368 810 300 810 q 477 851 438 810 q 522 969 517 893 l 568 964 q 508 815 561 869 q 368 760 454 760 m 344 903 q 358 956 344 936 q 391 987 372 975 q 424 1010 410 999 q 438 1040 438 1022 q 420 1065 438 1058 q 365 1071 403 1071 q 326 1067 347 1071 q 278 1054 304 1064 l 265 1094 q 315 1111 288 1106 q 371 1117 342 1117 q 460 1097 429 1117 q 492 1044 492 1078 q 476 999 492 1015 q 442 972 461 983 q 407 944 422 960 q 392 903 392 929 l 344 903 z "},"ẵ":{"ha":714,"x_min":89,"x_max":599,"o":"m 321 -11 q 203 15 256 -11 q 119 87 150 42 q 89 188 89 132 q 126 305 89 263 q 252 365 163 347 q 499 382 342 382 l 556 382 l 556 331 l 501 331 q 331 324 399 331 q 224 302 263 318 q 169 260 185 286 q 153 193 153 233 q 199 84 153 126 q 325 42 246 42 q 437 73 389 42 q 513 158 485 104 q 540 279 540 211 l 540 438 q 501 583 540 538 q 376 629 463 629 q 259 611 314 629 q 144 553 204 593 l 117 603 q 195 646 153 628 q 283 674 238 664 q 374 683 329 683 q 500 657 450 683 q 574 576 550 631 q 599 438 599 522 l 599 0 l 542 0 l 542 168 l 557 168 q 510 72 543 113 q 428 10 476 32 q 321 -11 381 -11 m 368 760 q 239 799 292 760 q 168 908 186 839 l 214 914 q 269 837 229 864 q 368 810 310 810 q 467 837 426 810 q 522 914 507 864 l 568 908 q 497 800 550 840 q 368 760 444 760 m 211 979 l 165 982 q 185 1056 169 1026 q 224 1101 200 1086 q 281 1115 249 1115 q 329 1104 307 1115 q 381 1069 351 1093 q 426 1039 411 1046 q 456 1032 442 1032 q 503 1052 488 1032 q 525 1118 518 1072 l 571 1115 q 535 1015 565 1049 q 457 982 506 982 q 408 994 431 982 q 349 1033 385 1006 q 317 1055 335 1044 q 281 1065 300 1065 q 234 1045 250 1065 q 211 979 218 1025 z "},"ǎ":{"ha":714,"x_min":89,"x_max":599,"o":"m 321 -11 q 203 15 256 -11 q 119 87 150 42 q 89 188 89 132 q 126 305 89 263 q 252 365 163 347 q 499 382 342 382 l 556 382 l 556 331 l 501 331 q 331 324 399 331 q 224 302 263 318 q 169 260 185 286 q 153 193 153 233 q 199 84 153 126 q 325 42 246 42 q 437 73 389 42 q 513 158 485 104 q 540 279 540 211 l 540 438 q 501 583 540 538 q 376 629 463 629 q 259 611 314 629 q 144 553 204 593 l 117 603 q 195 646 153 628 q 283 674 238 664 q 374 683 329 683 q 500 657 450 683 q 574 576 550 631 q 599 438 599 522 l 599 0 l 542 0 l 542 168 l 557 168 q 510 72 543 113 q 428 10 476 32 q 321 -11 381 -11 m 335 763 l 183 1040 l 232 1040 l 368 817 l 504 1040 l 553 1040 l 401 763 l 335 763 z "},"â":{"ha":714,"x_min":89,"x_max":599,"o":"m 321 -11 q 203 15 256 -11 q 119 87 150 42 q 89 188 89 132 q 126 305 89 263 q 252 365 163 347 q 499 382 342 382 l 556 382 l 556 331 l 501 331 q 331 324 399 331 q 224 302 263 318 q 169 260 185 286 q 153 193 153 233 q 199 84 153 126 q 325 42 246 42 q 437 73 389 42 q 513 158 485 104 q 540 279 540 211 l 540 438 q 501 583 540 538 q 376 629 463 629 q 259 611 314 629 q 144 553 204 593 l 117 603 q 195 646 153 628 q 283 674 238 664 q 374 683 329 683 q 500 657 450 683 q 574 576 550 631 q 599 438 599 522 l 599 0 l 542 0 l 542 168 l 557 168 q 510 72 543 113 q 428 10 476 32 q 321 -11 381 -11 m 183 763 l 335 1040 l 401 1040 l 553 763 l 504 763 l 368 986 l 232 763 l 183 763 z "},"ấ":{"ha":714,"x_min":89,"x_max":678,"o":"m 321 -11 q 203 15 256 -11 q 119 87 150 42 q 89 188 89 132 q 126 305 89 263 q 252 365 163 347 q 499 382 342 382 l 556 382 l 556 331 l 501 331 q 331 324 399 331 q 224 302 263 318 q 169 260 185 286 q 153 193 153 233 q 199 84 153 126 q 325 42 246 42 q 437 73 389 42 q 513 158 485 104 q 540 279 540 211 l 540 438 q 501 583 540 538 q 376 629 463 629 q 259 611 314 629 q 144 553 204 593 l 117 603 q 195 646 153 628 q 283 674 238 664 q 374 683 329 683 q 500 657 450 683 q 574 576 550 631 q 599 438 599 522 l 599 0 l 542 0 l 542 168 l 557 168 q 510 72 543 113 q 428 10 476 32 q 321 -11 381 -11 m 183 763 l 335 985 l 401 985 l 553 763 l 506 763 l 368 933 l 231 763 l 183 763 m 481 903 l 603 1111 l 678 1111 l 531 903 l 481 903 z "},"ậ":{"ha":714,"x_min":89,"x_max":599,"o":"m 321 -11 q 203 15 256 -11 q 119 87 150 42 q 89 188 89 132 q 126 305 89 263 q 252 365 163 347 q 499 382 342 382 l 556 382 l 556 331 l 501 331 q 331 324 399 331 q 224 302 263 318 q 169 260 185 286 q 153 193 153 233 q 199 84 153 126 q 325 42 246 42 q 437 73 389 42 q 513 158 485 104 q 540 279 540 211 l 540 438 q 501 583 540 538 q 376 629 463 629 q 259 611 314 629 q 144 553 204 593 l 117 603 q 195 646 153 628 q 283 674 238 664 q 374 683 329 683 q 500 657 450 683 q 574 576 550 631 q 599 438 599 522 l 599 0 l 542 0 l 542 168 l 557 168 q 510 72 543 113 q 428 10 476 32 q 321 -11 381 -11 m 319 -239 l 319 -151 l 408 -151 l 408 -239 l 319 -239 m 183 763 l 335 1040 l 401 1040 l 553 763 l 504 763 l 368 986 l 232 763 l 183 763 z "},"ầ":{"ha":714,"x_min":89,"x_max":599,"o":"m 321 -11 q 203 15 256 -11 q 119 87 150 42 q 89 188 89 132 q 126 305 89 263 q 252 365 163 347 q 499 382 342 382 l 556 382 l 556 331 l 501 331 q 331 324 399 331 q 224 302 263 318 q 169 260 185 286 q 153 193 153 233 q 199 84 153 126 q 325 42 246 42 q 437 73 389 42 q 513 158 485 104 q 540 279 540 211 l 540 438 q 501 583 540 538 q 376 629 463 629 q 259 611 314 629 q 144 553 204 593 l 117 603 q 195 646 153 628 q 283 674 238 664 q 374 683 329 683 q 500 657 450 683 q 574 576 550 631 q 599 438 599 522 l 599 0 l 542 0 l 542 168 l 557 168 q 510 72 543 113 q 428 10 476 32 q 321 -11 381 -11 m 183 763 l 335 985 l 401 985 l 553 763 l 506 763 l 368 933 l 231 763 l 183 763 m 538 903 l 390 1111 l 465 1111 l 588 903 l 538 903 z "},"ẩ":{"ha":714,"x_min":89,"x_max":644,"o":"m 321 -11 q 203 15 256 -11 q 119 87 150 42 q 89 188 89 132 q 126 305 89 263 q 252 365 163 347 q 499 382 342 382 l 556 382 l 556 331 l 501 331 q 331 324 399 331 q 224 302 263 318 q 169 260 185 286 q 153 193 153 233 q 199 84 153 126 q 325 42 246 42 q 437 73 389 42 q 513 158 485 104 q 540 279 540 211 l 540 438 q 501 583 540 538 q 376 629 463 629 q 259 611 314 629 q 144 553 204 593 l 117 603 q 195 646 153 628 q 283 674 238 664 q 374 683 329 683 q 500 657 450 683 q 574 576 550 631 q 599 438 599 522 l 599 0 l 542 0 l 542 168 l 557 168 q 510 72 543 113 q 428 10 476 32 q 321 -11 381 -11 m 183 763 l 335 985 l 401 985 l 553 763 l 506 763 l 368 933 l 231 763 l 183 763 m 497 903 q 511 956 497 936 q 544 987 525 975 q 576 1010 563 999 q 590 1040 590 1022 q 573 1065 590 1058 q 518 1071 556 1071 q 478 1067 500 1071 q 431 1054 457 1064 l 418 1094 q 467 1111 440 1106 q 524 1117 494 1117 q 613 1097 582 1117 q 644 1044 644 1078 q 629 999 644 1015 q 594 972 614 983 q 560 944 575 960 q 544 903 544 929 l 497 903 z "},"ẫ":{"ha":714,"x_min":89,"x_max":599,"o":"m 321 -11 q 203 15 256 -11 q 119 87 150 42 q 89 188 89 132 q 126 305 89 263 q 252 365 163 347 q 499 382 342 382 l 556 382 l 556 331 l 501 331 q 331 324 399 331 q 224 302 263 318 q 169 260 185 286 q 153 193 153 233 q 199 84 153 126 q 325 42 246 42 q 437 73 389 42 q 513 158 485 104 q 540 279 540 211 l 540 438 q 501 583 540 538 q 376 629 463 629 q 259 611 314 629 q 144 553 204 593 l 117 603 q 195 646 153 628 q 283 674 238 664 q 374 683 329 683 q 500 657 450 683 q 574 576 550 631 q 599 438 599 522 l 599 0 l 542 0 l 542 168 l 557 168 q 510 72 543 113 q 428 10 476 32 q 321 -11 381 -11 m 183 763 l 335 943 l 401 943 l 553 763 l 506 763 l 368 896 l 231 763 l 183 763 m 211 979 l 165 982 q 185 1056 169 1026 q 224 1101 200 1086 q 281 1115 249 1115 q 329 1104 307 1115 q 381 1069 351 1093 q 426 1039 411 1046 q 456 1032 442 1032 q 503 1052 488 1032 q 525 1118 518 1072 l 571 1115 q 535 1015 565 1049 q 457 982 506 982 q 408 994 431 982 q 349 1033 385 1006 q 317 1055 335 1044 q 281 1065 300 1065 q 234 1045 250 1065 q 211 979 218 1025 z "},"ȁ":{"ha":714,"x_min":89,"x_max":599,"o":"m 321 -11 q 203 15 256 -11 q 119 87 150 42 q 89 188 89 132 q 126 305 89 263 q 252 365 163 347 q 499 382 342 382 l 556 382 l 556 331 l 501 331 q 331 324 399 331 q 224 302 263 318 q 169 260 185 286 q 153 193 153 233 q 199 84 153 126 q 325 42 246 42 q 437 73 389 42 q 513 158 485 104 q 540 279 540 211 l 540 438 q 501 583 540 538 q 376 629 463 629 q 259 611 314 629 q 144 553 204 593 l 117 603 q 195 646 153 628 q 283 674 238 664 q 374 683 329 683 q 500 657 450 683 q 574 576 550 631 q 599 438 599 522 l 599 0 l 542 0 l 542 168 l 557 168 q 510 72 543 113 q 428 10 476 32 q 321 -11 381 -11 m 425 763 l 315 1040 l 382 1040 l 463 763 l 425 763 m 274 763 l 164 1040 l 231 1040 l 311 763 l 274 763 z "},"ä":{"ha":714,"x_min":89,"x_max":599,"o":"m 321 -11 q 203 15 256 -11 q 119 87 150 42 q 89 188 89 132 q 126 305 89 263 q 252 365 163 347 q 499 382 342 382 l 556 382 l 556 331 l 501 331 q 331 324 399 331 q 224 302 263 318 q 169 260 185 286 q 153 193 153 233 q 199 84 153 126 q 325 42 246 42 q 437 73 389 42 q 513 158 485 104 q 540 279 540 211 l 540 438 q 501 583 540 538 q 376 629 463 629 q 259 611 314 629 q 144 553 204 593 l 117 603 q 195 646 153 628 q 283 674 238 664 q 374 683 329 683 q 500 657 450 683 q 574 576 550 631 q 599 438 599 522 l 599 0 l 542 0 l 542 168 l 557 168 q 510 72 543 113 q 428 10 476 32 q 321 -11 381 -11 m 438 861 l 438 944 l 522 944 l 522 861 l 438 861 m 214 861 l 214 944 l 299 944 l 299 861 l 214 861 z "},"ȧ":{"ha":714,"x_min":89,"x_max":599,"o":"m 321 -11 q 203 15 256 -11 q 119 87 150 42 q 89 188 89 132 q 126 305 89 263 q 252 365 163 347 q 499 382 342 382 l 556 382 l 556 331 l 501 331 q 331 324 399 331 q 224 302 263 318 q 169 260 185 286 q 153 193 153 233 q 199 84 153 126 q 325 42 246 42 q 437 73 389 42 q 513 158 485 104 q 540 279 540 211 l 540 438 q 501 583 540 538 q 376 629 463 629 q 259 611 314 629 q 144 553 204 593 l 117 603 q 195 646 153 628 q 283 674 238 664 q 374 683 329 683 q 500 657 450 683 q 574 576 550 631 q 599 438 599 522 l 599 0 l 542 0 l 542 168 l 557 168 q 510 72 543 113 q 428 10 476 32 q 321 -11 381 -11 m 324 860 l 324 947 l 413 947 l 413 860 l 324 860 z "},"ạ":{"ha":714,"x_min":89,"x_max":599,"o":"m 321 -11 q 203 15 256 -11 q 119 87 150 42 q 89 188 89 132 q 126 305 89 263 q 252 365 163 347 q 499 382 342 382 l 556 382 l 556 331 l 501 331 q 331 324 399 331 q 224 302 263 318 q 169 260 185 286 q 153 193 153 233 q 199 84 153 126 q 325 42 246 42 q 437 73 389 42 q 513 158 485 104 q 540 279 540 211 l 540 438 q 501 583 540 538 q 376 629 463 629 q 259 611 314 629 q 144 553 204 593 l 117 603 q 195 646 153 628 q 283 674 238 664 q 374 683 329 683 q 500 657 450 683 q 574 576 550 631 q 599 438 599 522 l 599 0 l 542 0 l 542 168 l 557 168 q 510 72 543 113 q 428 10 476 32 q 321 -11 381 -11 m 319 -239 l 319 -151 l 408 -151 l 408 -239 l 319 -239 z "},"à":{"ha":714,"x_min":89,"x_max":599,"o":"m 321 -11 q 203 15 256 -11 q 119 87 150 42 q 89 188 89 132 q 126 305 89 263 q 252 365 163 347 q 499 382 342 382 l 556 382 l 556 331 l 501 331 q 331 324 399 331 q 224 302 263 318 q 169 260 185 286 q 153 193 153 233 q 199 84 153 126 q 325 42 246 42 q 437 73 389 42 q 513 158 485 104 q 540 279 540 211 l 540 438 q 501 583 540 538 q 376 629 463 629 q 259 611 314 629 q 144 553 204 593 l 117 603 q 195 646 153 628 q 283 674 238 664 q 374 683 329 683 q 500 657 450 683 q 574 576 550 631 q 599 438 599 522 l 599 0 l 542 0 l 542 168 l 557 168 q 510 72 543 113 q 428 10 476 32 q 321 -11 381 -11 m 343 763 l 174 1040 l 249 1040 l 393 763 l 343 763 z "},"ả":{"ha":714,"x_min":89,"x_max":599,"o":"m 321 -11 q 203 15 256 -11 q 119 87 150 42 q 89 188 89 132 q 126 305 89 263 q 252 365 163 347 q 499 382 342 382 l 556 382 l 556 331 l 501 331 q 331 324 399 331 q 224 302 263 318 q 169 260 185 286 q 153 193 153 233 q 199 84 153 126 q 325 42 246 42 q 437 73 389 42 q 513 158 485 104 q 540 279 540 211 l 540 438 q 501 583 540 538 q 376 629 463 629 q 259 611 314 629 q 144 553 204 593 l 117 603 q 195 646 153 628 q 283 674 238 664 q 374 683 329 683 q 500 657 450 683 q 574 576 550 631 q 599 438 599 522 l 599 0 l 542 0 l 542 168 l 557 168 q 510 72 543 113 q 428 10 476 32 q 321 -11 381 -11 m 343 763 l 343 790 q 358 847 343 825 q 390 884 372 868 q 423 916 408 900 q 438 954 438 932 q 420 986 438 975 q 365 997 403 997 q 323 992 344 997 q 275 975 301 988 l 263 1019 q 313 1041 285 1035 q 371 1047 340 1047 q 462 1024 429 1047 q 494 957 494 1000 q 479 902 494 922 q 444 867 464 882 q 408 833 424 851 q 393 783 393 814 l 393 763 l 343 763 z "},"ȃ":{"ha":714,"x_min":89,"x_max":599,"o":"m 321 -11 q 203 15 256 -11 q 119 87 150 42 q 89 188 89 132 q 126 305 89 263 q 252 365 163 347 q 499 382 342 382 l 556 382 l 556 331 l 501 331 q 331 324 399 331 q 224 302 263 318 q 169 260 185 286 q 153 193 153 233 q 199 84 153 126 q 325 42 246 42 q 437 73 389 42 q 513 158 485 104 q 540 279 540 211 l 540 438 q 501 583 540 538 q 376 629 463 629 q 259 611 314 629 q 144 553 204 593 l 117 603 q 195 646 153 628 q 283 674 238 664 q 374 683 329 683 q 500 657 450 683 q 574 576 550 631 q 599 438 599 522 l 599 0 l 542 0 l 542 168 l 557 168 q 510 72 543 113 q 428 10 476 32 q 321 -11 381 -11 m 214 760 l 168 765 q 199 905 174 847 q 267 994 224 963 q 368 1025 311 1025 q 469 994 426 1025 q 538 905 513 963 q 568 765 564 847 l 522 760 q 477 919 517 863 q 368 975 438 975 q 260 919 300 975 q 214 760 219 863 z "},"ā":{"ha":714,"x_min":89,"x_max":599,"o":"m 321 -11 q 203 15 256 -11 q 119 87 150 42 q 89 188 89 132 q 126 305 89 263 q 252 365 163 347 q 499 382 342 382 l 556 382 l 556 331 l 501 331 q 331 324 399 331 q 224 302 263 318 q 169 260 185 286 q 153 193 153 233 q 199 84 153 126 q 325 42 246 42 q 437 73 389 42 q 513 158 485 104 q 540 279 540 211 l 540 438 q 501 583 540 538 q 376 629 463 629 q 259 611 314 629 q 144 553 204 593 l 117 603 q 195 646 153 628 q 283 674 238 664 q 374 683 329 683 q 500 657 450 683 q 574 576 550 631 q 599 438 599 522 l 599 0 l 542 0 l 542 168 l 557 168 q 510 72 543 113 q 428 10 476 32 q 321 -11 381 -11 m 174 879 l 174 932 l 563 932 l 563 879 l 174 879 z "},"ą":{"ha":714,"x_min":89,"x_max":674,"o":"m 321 -11 q 203 15 256 -11 q 119 87 150 42 q 89 188 89 132 q 126 305 89 263 q 252 365 163 347 q 499 382 342 382 l 556 382 l 556 331 l 501 331 q 331 324 399 331 q 224 302 263 318 q 169 260 185 286 q 153 193 153 233 q 199 84 153 126 q 325 42 246 42 q 437 73 389 42 q 513 158 485 104 q 540 279 540 211 l 540 438 q 501 583 540 538 q 376 629 463 629 q 259 611 314 629 q 144 553 204 593 l 117 603 q 195 646 153 628 q 283 674 238 664 q 374 683 329 683 q 500 657 450 683 q 574 576 550 631 q 599 438 599 522 l 599 0 l 542 0 l 542 168 l 557 168 q 510 72 543 113 q 428 10 476 32 q 321 -11 381 -11 m 575 -264 q 481 -229 518 -264 q 444 -136 444 -194 q 477 -35 444 -83 q 569 43 510 13 l 599 0 q 555 -26 578 -8 q 515 -71 532 -44 q 499 -131 499 -97 q 523 -194 499 -174 q 582 -214 547 -214 q 618 -210 600 -214 q 656 -196 636 -206 l 674 -240 q 633 -257 660 -250 q 575 -264 607 -264 z "},"å":{"ha":714,"x_min":89,"x_max":599,"o":"m 321 -11 q 203 15 256 -11 q 119 87 150 42 q 89 188 89 132 q 126 305 89 263 q 252 365 163 347 q 499 382 342 382 l 556 382 l 556 331 l 501 331 q 331 324 399 331 q 224 302 263 318 q 169 260 185 286 q 153 193 153 233 q 199 84 153 126 q 325 42 246 42 q 437 73 389 42 q 513 158 485 104 q 540 279 540 211 l 540 438 q 501 583 540 538 q 376 629 463 629 q 259 611 314 629 q 144 553 204 593 l 117 603 q 195 646 153 628 q 283 674 238 664 q 374 683 329 683 q 500 657 450 683 q 574 576 550 631 q 599 438 599 522 l 599 0 l 542 0 l 542 168 l 557 168 q 510 72 543 113 q 428 10 476 32 q 321 -11 381 -11 m 368 760 q 290 781 325 760 q 233 836 254 801 q 213 913 213 871 q 233 990 213 956 q 290 1044 254 1024 q 368 1065 325 1065 q 447 1044 413 1065 q 503 990 482 1024 q 524 913 524 956 q 503 836 524 871 q 447 781 482 801 q 368 760 413 760 m 368 804 q 447 835 417 804 q 476 913 476 867 q 447 990 476 958 q 368 1021 417 1021 q 290 990 321 1021 q 260 913 260 958 q 290 835 260 867 q 368 804 321 804 z "},"ǻ":{"ha":714,"x_min":89,"x_max":653,"o":"m 321 -11 q 203 15 256 -11 q 119 87 150 42 q 89 188 89 132 q 126 305 89 263 q 252 365 163 347 q 499 382 342 382 l 556 382 l 556 331 l 501 331 q 331 324 399 331 q 224 302 263 318 q 169 260 185 286 q 153 193 153 233 q 199 84 153 126 q 325 42 246 42 q 437 73 389 42 q 513 158 485 104 q 540 279 540 211 l 540 438 q 501 583 540 538 q 376 629 463 629 q 259 611 314 629 q 144 553 204 593 l 117 603 q 195 646 153 628 q 283 674 238 664 q 374 683 329 683 q 500 657 450 683 q 574 576 550 631 q 599 438 599 522 l 599 0 l 542 0 l 542 168 l 557 168 q 510 72 543 113 q 428 10 476 32 q 321 -11 381 -11 m 368 760 q 290 781 325 760 q 233 836 254 801 q 213 913 213 871 q 233 990 213 956 q 290 1044 254 1024 q 368 1065 325 1065 q 419 1058 396 1065 q 463 1035 443 1050 l 568 1133 l 653 1133 l 496 1001 q 517 960 510 983 q 524 913 524 938 q 503 836 524 871 q 447 781 482 801 q 368 760 413 760 m 368 804 q 447 835 417 804 q 476 913 476 867 q 447 990 476 958 q 368 1021 417 1021 q 290 990 321 1021 q 260 913 260 958 q 290 835 260 867 q 368 804 321 804 z "},"ã":{"ha":714,"x_min":89,"x_max":601,"o":"m 321 -11 q 203 15 256 -11 q 119 87 150 42 q 89 188 89 132 q 126 305 89 263 q 252 365 163 347 q 499 382 342 382 l 556 382 l 556 331 l 501 331 q 331 324 399 331 q 224 302 263 318 q 169 260 185 286 q 153 193 153 233 q 199 84 153 126 q 325 42 246 42 q 437 73 389 42 q 513 158 485 104 q 540 279 540 211 l 540 438 q 501 583 540 538 q 376 629 463 629 q 259 611 314 629 q 144 553 204 593 l 117 603 q 195 646 153 628 q 283 674 238 664 q 374 683 329 683 q 500 657 450 683 q 574 576 550 631 q 599 438 599 522 l 599 0 l 542 0 l 542 168 l 557 168 q 510 72 543 113 q 428 10 476 32 q 321 -11 381 -11 m 179 826 l 135 829 q 178 953 143 910 q 268 997 213 997 q 323 981 297 997 q 382 932 349 965 q 431 890 413 901 q 468 879 450 879 q 526 910 504 879 q 557 1000 549 942 l 601 997 q 558 873 593 917 q 469 829 524 829 q 416 845 442 829 q 354 894 390 861 q 306 935 324 924 q 268 947 288 947 q 210 916 232 947 q 179 826 188 885 z "},"æ":{"ha":1190,"x_min":89,"x_max":1124,"o":"m 324 -11 q 204 15 257 -11 q 120 87 151 42 q 89 188 89 132 q 127 305 89 263 q 255 364 165 347 q 499 381 344 381 l 561 381 l 561 329 l 501 329 q 288 318 364 329 q 183 277 213 307 q 153 193 153 247 q 200 84 153 126 q 328 42 247 42 q 444 74 394 42 q 520 162 493 106 q 547 289 547 218 l 547 433 q 506 583 547 536 q 379 629 465 629 q 260 612 315 629 q 144 554 204 594 l 117 603 q 195 646 153 628 q 284 674 238 664 q 376 683 331 683 q 537 635 482 683 q 606 492 592 586 l 578 492 q 684 634 613 585 q 856 683 756 683 q 999 644 939 683 q 1092 534 1060 606 q 1124 361 1124 463 l 1124 329 l 594 329 l 594 381 l 1092 381 l 1069 365 q 1044 506 1069 447 q 971 598 1019 565 q 850 631 922 631 q 673 553 739 631 q 607 347 607 475 l 607 338 q 673 121 607 199 q 861 43 739 43 q 976 64 922 43 q 1085 131 1031 85 l 1113 83 q 1002 15 1069 40 q 867 -11 935 -11 q 724 15 786 -11 q 620 94 661 42 q 561 222 579 146 l 586 222 q 540 99 575 151 q 449 17 504 46 q 324 -11 394 -11 z "},"ǽ":{"ha":1190,"x_min":89,"x_max":1124,"o":"m 324 -11 q 204 15 257 -11 q 120 87 151 42 q 89 188 89 132 q 127 305 89 263 q 255 364 165 347 q 499 381 344 381 l 561 381 l 561 329 l 501 329 q 288 318 364 329 q 183 277 213 307 q 153 193 153 247 q 200 84 153 126 q 328 42 247 42 q 444 74 394 42 q 520 162 493 106 q 547 289 547 218 l 547 433 q 506 583 547 536 q 379 629 465 629 q 260 612 315 629 q 144 554 204 594 l 117 603 q 195 646 153 628 q 284 674 238 664 q 376 683 331 683 q 537 635 482 683 q 606 492 592 586 l 578 492 q 684 634 613 585 q 856 683 756 683 q 999 644 939 683 q 1092 534 1060 606 q 1124 361 1124 463 l 1124 329 l 594 329 l 594 381 l 1092 381 l 1069 365 q 1044 506 1069 447 q 971 598 1019 565 q 850 631 922 631 q 673 553 739 631 q 607 347 607 475 l 607 338 q 673 121 607 199 q 861 43 739 43 q 976 64 922 43 q 1085 131 1031 85 l 1113 83 q 1002 15 1069 40 q 867 -11 935 -11 q 724 15 786 -11 q 620 94 661 42 q 561 222 579 146 l 586 222 q 540 99 575 151 q 449 17 504 46 q 324 -11 394 -11 m 553 763 l 697 1040 l 772 1040 l 603 763 l 553 763 z "},"b":{"ha":789,"x_min":118,"x_max":715,"o":"m 417 -11 q 252 40 319 -11 q 161 175 185 90 l 176 175 l 176 0 l 118 0 l 118 979 l 176 979 l 176 497 l 161 497 q 252 633 185 583 q 417 683 319 683 q 576 641 508 683 q 679 521 643 599 q 715 336 715 443 q 678 152 715 231 q 575 31 642 74 q 417 -11 508 -11 m 415 43 q 591 120 526 43 q 656 336 656 197 q 591 552 656 475 q 415 629 526 629 q 240 552 306 629 q 175 336 175 475 q 240 120 175 197 q 415 43 306 43 z "},"ɓ":{"ha":789,"x_min":118,"x_max":715,"o":"m 417 -11 q 252 40 319 -11 q 161 175 185 90 l 176 175 l 176 0 l 118 0 l 118 783 q 141 897 118 851 q 208 967 164 943 q 315 990 251 990 q 350 988 335 990 q 381 981 365 986 l 372 929 q 343 936 354 935 q 318 938 332 938 q 212 899 247 938 q 176 786 176 860 l 176 497 l 161 497 q 252 633 185 583 q 417 683 319 683 q 576 641 508 683 q 679 521 643 599 q 715 336 715 443 q 678 152 715 231 q 575 31 642 74 q 417 -11 508 -11 m 415 43 q 591 120 526 43 q 656 336 656 197 q 591 552 656 475 q 415 629 526 629 q 240 552 306 629 q 175 336 175 475 q 240 120 175 197 q 415 43 306 43 z "},"c":{"ha":632,"x_min":74,"x_max":597,"o":"m 381 -11 q 216 33 285 -11 q 110 157 147 78 q 74 342 74 236 q 110 524 74 447 q 216 642 147 600 q 381 683 285 683 q 500 659 442 683 q 597 592 558 635 l 569 546 q 475 610 525 590 q 379 629 425 629 q 197 554 261 629 q 133 340 133 479 q 197 122 133 201 q 379 43 261 43 q 475 63 425 43 q 569 126 525 82 l 597 81 q 499 13 558 38 q 381 -11 439 -11 z "},"ć":{"ha":632,"x_min":74,"x_max":597,"o":"m 381 -11 q 216 33 285 -11 q 110 157 147 78 q 74 342 74 236 q 110 524 74 447 q 216 642 147 600 q 381 683 285 683 q 500 659 442 683 q 597 592 558 635 l 569 546 q 475 610 525 590 q 379 629 425 629 q 197 554 261 629 q 133 340 133 479 q 197 122 133 201 q 379 43 261 43 q 475 63 425 43 q 569 126 525 82 l 597 81 q 499 13 558 38 q 381 -11 439 -11 m 354 763 l 499 1040 l 574 1040 l 404 763 l 354 763 z "},"č":{"ha":632,"x_min":74,"x_max":597,"o":"m 381 -11 q 216 33 285 -11 q 110 157 147 78 q 74 342 74 236 q 110 524 74 447 q 216 642 147 600 q 381 683 285 683 q 500 659 442 683 q 597 592 558 635 l 569 546 q 475 610 525 590 q 379 629 425 629 q 197 554 261 629 q 133 340 133 479 q 197 122 133 201 q 379 43 261 43 q 475 63 425 43 q 569 126 525 82 l 597 81 q 499 13 558 38 q 381 -11 439 -11 m 346 763 l 194 1040 l 243 1040 l 379 817 l 515 1040 l 564 1040 l 413 763 l 346 763 z "},"ç":{"ha":632,"x_min":74,"x_max":597,"o":"m 381 -11 q 216 33 285 -11 q 110 157 147 78 q 74 342 74 236 q 110 524 74 447 q 216 642 147 600 q 381 683 285 683 q 500 659 442 683 q 597 592 558 635 l 569 546 q 475 610 525 590 q 379 629 425 629 q 197 554 261 629 q 133 340 133 479 q 197 122 133 201 q 379 43 261 43 q 475 63 425 43 q 569 126 525 82 l 597 81 q 499 13 558 38 q 381 -11 439 -11 m 386 -264 q 326 -257 354 -264 q 278 -239 297 -250 l 290 -192 q 338 -209 317 -204 q 392 -214 358 -214 q 453 -199 429 -214 q 478 -154 478 -183 q 465 -122 478 -133 q 424 -110 451 -110 q 392 -112 408 -110 q 353 -124 376 -115 l 332 -106 l 353 28 l 406 28 l 388 -76 l 363 -74 q 395 -67 379 -69 q 425 -64 411 -64 q 480 -74 456 -64 q 519 -105 504 -85 q 533 -154 533 -125 q 515 -211 533 -186 q 463 -250 496 -236 q 386 -264 431 -264 z "},"ḉ":{"ha":632,"x_min":74,"x_max":597,"o":"m 381 -11 q 216 33 285 -11 q 110 157 147 78 q 74 342 74 236 q 110 524 74 447 q 216 642 147 600 q 381 683 285 683 q 500 659 442 683 q 597 592 558 635 l 569 546 q 475 610 525 590 q 379 629 425 629 q 197 554 261 629 q 133 340 133 479 q 197 122 133 201 q 379 43 261 43 q 475 63 425 43 q 569 126 525 82 l 597 81 q 499 13 558 38 q 381 -11 439 -11 m 386 -264 q 326 -257 354 -264 q 278 -239 297 -250 l 290 -192 q 338 -209 317 -204 q 392 -214 358 -214 q 453 -199 429 -214 q 478 -154 478 -183 q 465 -122 478 -133 q 424 -110 451 -110 q 392 -112 408 -110 q 353 -124 376 -115 l 332 -106 l 353 28 l 406 28 l 388 -76 l 363 -74 q 395 -67 379 -69 q 425 -64 411 -64 q 480 -74 456 -64 q 519 -105 504 -85 q 533 -154 533 -125 q 515 -211 533 -186 q 463 -250 496 -236 q 386 -264 431 -264 m 354 763 l 499 1040 l 574 1040 l 404 763 l 354 763 z "},"ĉ":{"ha":632,"x_min":74,"x_max":597,"o":"m 381 -11 q 216 33 285 -11 q 110 157 147 78 q 74 342 74 236 q 110 524 74 447 q 216 642 147 600 q 381 683 285 683 q 500 659 442 683 q 597 592 558 635 l 569 546 q 475 610 525 590 q 379 629 425 629 q 197 554 261 629 q 133 340 133 479 q 197 122 133 201 q 379 43 261 43 q 475 63 425 43 q 569 126 525 82 l 597 81 q 499 13 558 38 q 381 -11 439 -11 m 194 763 l 346 1040 l 413 1040 l 564 763 l 515 763 l 379 986 l 243 763 l 194 763 z "},"ċ":{"ha":632,"x_min":74,"x_max":597,"o":"m 381 -11 q 216 33 285 -11 q 110 157 147 78 q 74 342 74 236 q 110 524 74 447 q 216 642 147 600 q 381 683 285 683 q 500 659 442 683 q 597 592 558 635 l 569 546 q 475 610 525 590 q 379 629 425 629 q 197 554 261 629 q 133 340 133 479 q 197 122 133 201 q 379 43 261 43 q 475 63 425 43 q 569 126 525 82 l 597 81 q 499 13 558 38 q 381 -11 439 -11 m 335 860 l 335 947 l 424 947 l 424 860 l 335 860 z "},"d":{"ha":789,"x_min":74,"x_max":671,"o":"m 372 -11 q 215 31 282 -11 q 110 152 147 74 q 74 336 74 231 q 110 521 74 443 q 213 641 146 599 q 372 683 281 683 q 538 633 469 683 q 628 497 606 583 l 613 497 l 613 979 l 671 979 l 671 0 l 613 0 l 613 175 l 628 175 q 538 40 606 90 q 372 -11 469 -11 m 374 43 q 549 120 485 43 q 614 336 614 197 q 549 552 614 475 q 374 629 485 629 q 199 552 264 629 q 133 336 133 475 q 199 120 133 197 q 374 43 264 43 z "},"ð":{"ha":751,"x_min":74,"x_max":678,"o":"m 374 -11 q 215 28 283 -11 q 110 140 147 68 q 74 310 74 213 q 112 479 74 407 q 218 591 150 551 q 378 631 286 631 q 552 573 485 631 q 646 397 619 515 l 619 397 q 563 669 621 551 q 389 861 506 788 l 424 864 l 186 764 l 167 810 l 361 892 l 361 878 q 292 913 329 897 q 213 940 254 928 l 229 986 q 330 949 282 969 q 415 904 378 928 l 394 906 l 586 986 l 606 940 l 440 871 l 444 885 q 574 759 522 832 q 651 594 625 686 q 678 390 678 503 q 644 169 678 258 q 542 34 610 79 q 374 -11 474 -11 m 372 43 q 549 115 483 43 q 614 310 614 186 q 549 505 614 433 q 374 576 485 576 q 198 505 263 576 q 133 310 133 433 q 197 113 133 183 q 372 43 260 43 z "},"ď":{"ha":789,"x_min":74,"x_max":808,"o":"m 372 -11 q 215 31 282 -11 q 110 152 147 74 q 74 336 74 231 q 110 521 74 443 q 213 641 146 599 q 372 683 281 683 q 538 633 469 683 q 628 497 606 583 l 613 497 l 613 979 l 671 979 l 671 0 l 613 0 l 613 175 l 628 175 q 538 40 606 90 q 372 -11 469 -11 m 374 43 q 549 120 485 43 q 614 336 614 197 q 549 552 614 475 q 374 629 485 629 q 199 552 264 629 q 133 336 133 475 q 199 120 133 197 q 374 43 264 43 m 740 718 l 740 979 l 808 979 l 778 718 l 740 718 z "},"đ":{"ha":789,"x_min":74,"x_max":803,"o":"m 372 -11 q 215 31 282 -11 q 110 152 147 74 q 74 336 74 231 q 110 521 74 443 q 213 641 146 599 q 372 683 281 683 q 538 633 469 683 q 628 497 606 583 l 613 497 l 613 781 l 339 781 l 339 831 l 613 831 l 613 979 l 671 979 l 671 831 l 803 831 l 803 781 l 671 781 l 671 0 l 613 0 l 613 175 l 628 175 q 538 40 606 90 q 372 -11 469 -11 m 374 43 q 549 120 485 43 q 614 336 614 197 q 549 552 614 475 q 374 629 485 629 q 246 594 300 629 q 163 494 192 560 q 133 336 133 429 q 199 120 133 197 q 374 43 264 43 z "},"ḍ":{"ha":789,"x_min":74,"x_max":671,"o":"m 372 -11 q 215 31 282 -11 q 110 152 147 74 q 74 336 74 231 q 110 521 74 443 q 213 641 146 599 q 372 683 281 683 q 538 633 469 683 q 628 497 606 583 l 613 497 l 613 979 l 671 979 l 671 0 l 613 0 l 613 175 l 628 175 q 538 40 606 90 q 372 -11 469 -11 m 374 43 q 549 120 485 43 q 614 336 614 197 q 549 552 614 475 q 374 629 485 629 q 199 552 264 629 q 133 336 133 475 q 199 120 133 197 q 374 43 264 43 m 353 -239 l 353 -151 l 442 -151 l 442 -239 l 353 -239 z "},"ɗ":{"ha":789,"x_min":74,"x_max":875,"o":"m 372 -11 q 215 31 282 -11 q 110 152 147 74 q 74 336 74 231 q 110 521 74 443 q 213 641 146 599 q 372 683 281 683 q 538 633 469 683 q 628 497 606 583 l 613 497 l 613 783 q 635 897 613 851 q 702 967 658 943 q 810 990 746 990 q 844 988 829 990 q 875 981 860 986 l 867 929 q 838 936 849 935 q 813 938 826 938 q 706 899 742 938 q 671 786 671 860 l 671 0 l 613 0 l 613 175 l 628 175 q 538 40 606 90 q 372 -11 469 -11 m 374 43 q 549 120 485 43 q 614 336 614 197 q 549 552 614 475 q 374 629 485 629 q 199 552 264 629 q 133 336 133 475 q 199 120 133 197 q 374 43 264 43 z "},"ḏ":{"ha":789,"x_min":74,"x_max":671,"o":"m 372 -11 q 215 31 282 -11 q 110 152 147 74 q 74 336 74 231 q 110 521 74 443 q 213 641 146 599 q 372 683 281 683 q 538 633 469 683 q 628 497 606 583 l 613 497 l 613 979 l 671 979 l 671 0 l 613 0 l 613 175 l 628 175 q 538 40 606 90 q 372 -11 469 -11 m 374 43 q 549 120 485 43 q 614 336 614 197 q 549 552 614 475 q 374 629 485 629 q 199 552 264 629 q 133 336 133 475 q 199 120 133 197 q 374 43 264 43 m 203 -206 l 203 -153 l 592 -153 l 592 -206 l 203 -206 z "},"ǆ":{"ha":1419,"x_min":74,"x_max":1374,"o":"m 372 -11 q 215 31 282 -11 q 110 152 147 74 q 74 336 74 231 q 110 521 74 443 q 213 641 146 599 q 372 683 281 683 q 538 633 469 683 q 628 497 606 583 l 613 497 l 613 979 l 671 979 l 671 0 l 613 0 l 613 175 l 628 175 q 538 40 606 90 q 372 -11 469 -11 m 374 43 q 549 120 485 43 q 614 336 614 197 q 549 552 614 475 q 374 629 485 629 q 199 552 264 629 q 133 336 133 475 q 199 120 133 197 q 374 43 264 43 m 872 0 l 872 42 l 1301 640 l 1301 622 l 872 622 l 872 672 l 1358 672 l 1358 631 l 928 31 l 928 50 l 1374 50 l 1374 0 l 872 0 m 1082 763 l 931 1040 l 979 1040 l 1115 817 l 1251 1040 l 1300 1040 l 1149 763 l 1082 763 z "},"e":{"ha":726,"x_min":74,"x_max":660,"o":"m 397 -11 q 225 31 297 -11 q 113 149 153 72 q 74 333 74 226 q 113 517 74 439 q 223 640 153 596 q 385 683 293 683 q 533 644 472 683 q 627 534 594 606 q 660 361 660 463 l 660 325 l 111 325 l 111 376 l 629 376 l 606 360 q 550 558 606 486 q 383 631 494 631 q 247 592 303 631 q 162 489 190 554 q 133 340 133 424 l 133 333 q 164 176 133 242 q 253 77 194 111 q 394 43 313 43 q 512 63 457 43 q 621 131 567 83 l 649 83 q 538 15 606 40 q 397 -11 469 -11 z "},"é":{"ha":726,"x_min":74,"x_max":660,"o":"m 397 -11 q 225 31 297 -11 q 113 149 153 72 q 74 333 74 226 q 113 517 74 439 q 223 640 153 596 q 385 683 293 683 q 533 644 472 683 q 627 534 594 606 q 660 361 660 463 l 660 325 l 111 325 l 111 376 l 629 376 l 606 360 q 550 558 606 486 q 383 631 494 631 q 247 592 303 631 q 162 489 190 554 q 133 340 133 424 l 133 333 q 164 176 133 242 q 253 77 194 111 q 394 43 313 43 q 512 63 457 43 q 621 131 567 83 l 649 83 q 538 15 606 40 q 397 -11 469 -11 m 360 763 l 504 1040 l 579 1040 l 410 763 l 360 763 z "},"ĕ":{"ha":726,"x_min":74,"x_max":660,"o":"m 397 -11 q 225 31 297 -11 q 113 149 153 72 q 74 333 74 226 q 113 517 74 439 q 223 640 153 596 q 385 683 293 683 q 533 644 472 683 q 627 534 594 606 q 660 361 660 463 l 660 325 l 111 325 l 111 376 l 629 376 l 606 360 q 550 558 606 486 q 383 631 494 631 q 247 592 303 631 q 162 489 190 554 q 133 340 133 424 l 133 333 q 164 176 133 242 q 253 77 194 111 q 394 43 313 43 q 512 63 457 43 q 621 131 567 83 l 649 83 q 538 15 606 40 q 397 -11 469 -11 m 385 760 q 284 791 328 760 q 215 881 240 822 q 185 1019 190 939 l 231 1025 q 276 866 236 922 q 385 810 317 810 q 494 866 454 810 q 539 1025 533 922 l 585 1019 q 555 881 581 939 q 486 791 529 822 q 385 760 443 760 z "},"ě":{"ha":726,"x_min":74,"x_max":660,"o":"m 397 -11 q 225 31 297 -11 q 113 149 153 72 q 74 333 74 226 q 113 517 74 439 q 223 640 153 596 q 385 683 293 683 q 533 644 472 683 q 627 534 594 606 q 660 361 660 463 l 660 325 l 111 325 l 111 376 l 629 376 l 606 360 q 550 558 606 486 q 383 631 494 631 q 247 592 303 631 q 162 489 190 554 q 133 340 133 424 l 133 333 q 164 176 133 242 q 253 77 194 111 q 394 43 313 43 q 512 63 457 43 q 621 131 567 83 l 649 83 q 538 15 606 40 q 397 -11 469 -11 m 351 763 l 200 1040 l 249 1040 l 385 817 l 521 1040 l 569 1040 l 418 763 l 351 763 z "},"ḝ":{"ha":726,"x_min":74,"x_max":660,"o":"m 397 -11 q 225 31 297 -11 q 113 149 153 72 q 74 333 74 226 q 113 517 74 439 q 223 640 153 596 q 385 683 293 683 q 533 644 472 683 q 627 534 594 606 q 660 361 660 463 l 660 325 l 111 325 l 111 376 l 629 376 l 606 360 q 550 558 606 486 q 383 631 494 631 q 247 592 303 631 q 162 489 190 554 q 133 340 133 424 l 133 333 q 164 176 133 242 q 253 77 194 111 q 394 43 313 43 q 512 63 457 43 q 621 131 567 83 l 649 83 q 538 15 606 40 q 397 -11 469 -11 m 392 -264 q 331 -257 360 -264 q 283 -239 303 -250 l 296 -192 q 343 -209 322 -204 q 397 -214 364 -214 q 459 -199 435 -214 q 483 -154 483 -183 q 470 -122 483 -133 q 429 -110 457 -110 q 398 -112 414 -110 q 358 -124 382 -115 l 338 -106 l 358 28 l 411 28 l 393 -76 l 368 -74 q 401 -67 385 -69 q 431 -64 417 -64 q 485 -74 461 -64 q 524 -105 510 -85 q 539 -154 539 -125 q 520 -211 539 -186 q 469 -250 501 -236 q 392 -264 436 -264 m 385 760 q 284 791 328 760 q 215 881 240 822 q 185 1019 190 939 l 231 1025 q 276 866 236 922 q 385 810 317 810 q 494 866 454 810 q 539 1025 533 922 l 585 1019 q 555 881 581 939 q 486 791 529 822 q 385 760 443 760 z "},"ê":{"ha":726,"x_min":74,"x_max":660,"o":"m 397 -11 q 225 31 297 -11 q 113 149 153 72 q 74 333 74 226 q 113 517 74 439 q 223 640 153 596 q 385 683 293 683 q 533 644 472 683 q 627 534 594 606 q 660 361 660 463 l 660 325 l 111 325 l 111 376 l 629 376 l 606 360 q 550 558 606 486 q 383 631 494 631 q 247 592 303 631 q 162 489 190 554 q 133 340 133 424 l 133 333 q 164 176 133 242 q 253 77 194 111 q 394 43 313 43 q 512 63 457 43 q 621 131 567 83 l 649 83 q 538 15 606 40 q 397 -11 469 -11 m 200 763 l 351 1040 l 418 1040 l 569 763 l 521 763 l 385 986 l 249 763 l 200 763 z "},"ế":{"ha":726,"x_min":74,"x_max":694,"o":"m 397 -11 q 225 31 297 -11 q 113 149 153 72 q 74 333 74 226 q 113 517 74 439 q 223 640 153 596 q 385 683 293 683 q 533 644 472 683 q 627 534 594 606 q 660 361 660 463 l 660 325 l 111 325 l 111 376 l 629 376 l 606 360 q 550 558 606 486 q 383 631 494 631 q 247 592 303 631 q 162 489 190 554 q 133 340 133 424 l 133 333 q 164 176 133 242 q 253 77 194 111 q 394 43 313 43 q 512 63 457 43 q 621 131 567 83 l 649 83 q 538 15 606 40 q 397 -11 469 -11 m 200 763 l 351 985 l 418 985 l 569 763 l 522 763 l 385 933 l 247 763 l 200 763 m 497 903 l 619 1111 l 694 1111 l 547 903 l 497 903 z "},"ệ":{"ha":726,"x_min":74,"x_max":660,"o":"m 397 -11 q 225 31 297 -11 q 113 149 153 72 q 74 333 74 226 q 113 517 74 439 q 223 640 153 596 q 385 683 293 683 q 533 644 472 683 q 627 534 594 606 q 660 361 660 463 l 660 325 l 111 325 l 111 376 l 629 376 l 606 360 q 550 558 606 486 q 383 631 494 631 q 247 592 303 631 q 162 489 190 554 q 133 340 133 424 l 133 333 q 164 176 133 242 q 253 77 194 111 q 394 43 313 43 q 512 63 457 43 q 621 131 567 83 l 649 83 q 538 15 606 40 q 397 -11 469 -11 m 340 -239 l 340 -151 l 429 -151 l 429 -239 l 340 -239 m 200 763 l 351 1040 l 418 1040 l 569 763 l 521 763 l 385 986 l 249 763 l 200 763 z "},"ề":{"ha":726,"x_min":74,"x_max":660,"o":"m 397 -11 q 225 31 297 -11 q 113 149 153 72 q 74 333 74 226 q 113 517 74 439 q 223 640 153 596 q 385 683 293 683 q 533 644 472 683 q 627 534 594 606 q 660 361 660 463 l 660 325 l 111 325 l 111 376 l 629 376 l 606 360 q 550 558 606 486 q 383 631 494 631 q 247 592 303 631 q 162 489 190 554 q 133 340 133 424 l 133 333 q 164 176 133 242 q 253 77 194 111 q 394 43 313 43 q 512 63 457 43 q 621 131 567 83 l 649 83 q 538 15 606 40 q 397 -11 469 -11 m 200 763 l 351 985 l 418 985 l 569 763 l 522 763 l 385 933 l 247 763 l 200 763 m 554 903 l 407 1111 l 482 1111 l 604 903 l 554 903 z "},"ể":{"ha":726,"x_min":74,"x_max":661,"o":"m 397 -11 q 225 31 297 -11 q 113 149 153 72 q 74 333 74 226 q 113 517 74 439 q 223 640 153 596 q 385 683 293 683 q 533 644 472 683 q 627 534 594 606 q 660 361 660 463 l 660 325 l 111 325 l 111 376 l 629 376 l 606 360 q 550 558 606 486 q 383 631 494 631 q 247 592 303 631 q 162 489 190 554 q 133 340 133 424 l 133 333 q 164 176 133 242 q 253 77 194 111 q 394 43 313 43 q 512 63 457 43 q 621 131 567 83 l 649 83 q 538 15 606 40 q 397 -11 469 -11 m 200 763 l 351 985 l 418 985 l 569 763 l 522 763 l 385 933 l 247 763 l 200 763 m 514 903 q 528 956 514 936 q 560 987 542 975 q 593 1010 579 999 q 607 1040 607 1022 q 590 1065 607 1058 q 535 1071 572 1071 q 495 1067 517 1071 q 447 1054 474 1064 l 435 1094 q 484 1111 457 1106 q 540 1117 511 1117 q 630 1097 599 1117 q 661 1044 661 1078 q 646 999 661 1015 q 611 972 631 983 q 576 944 592 960 q 561 903 561 929 l 514 903 z "},"ễ":{"ha":726,"x_min":74,"x_max":660,"o":"m 397 -11 q 225 31 297 -11 q 113 149 153 72 q 74 333 74 226 q 113 517 74 439 q 223 640 153 596 q 385 683 293 683 q 533 644 472 683 q 627 534 594 606 q 660 361 660 463 l 660 325 l 111 325 l 111 376 l 629 376 l 606 360 q 550 558 606 486 q 383 631 494 631 q 247 592 303 631 q 162 489 190 554 q 133 340 133 424 l 133 333 q 164 176 133 242 q 253 77 194 111 q 394 43 313 43 q 512 63 457 43 q 621 131 567 83 l 649 83 q 538 15 606 40 q 397 -11 469 -11 m 200 763 l 351 943 l 418 943 l 569 763 l 522 763 l 385 896 l 247 763 l 200 763 m 228 979 l 182 982 q 201 1056 186 1026 q 241 1101 217 1086 q 297 1115 265 1115 q 346 1104 324 1115 q 397 1069 368 1093 q 443 1039 428 1046 q 472 1032 458 1032 q 519 1052 504 1032 q 542 1118 535 1072 l 588 1115 q 552 1015 582 1049 q 474 982 522 982 q 424 994 447 982 q 365 1033 401 1006 q 334 1055 351 1044 q 297 1065 317 1065 q 251 1045 267 1065 q 228 979 235 1025 z "},"ȅ":{"ha":726,"x_min":74,"x_max":660,"o":"m 397 -11 q 225 31 297 -11 q 113 149 153 72 q 74 333 74 226 q 113 517 74 439 q 223 640 153 596 q 385 683 293 683 q 533 644 472 683 q 627 534 594 606 q 660 361 660 463 l 660 325 l 111 325 l 111 376 l 629 376 l 606 360 q 550 558 606 486 q 383 631 494 631 q 247 592 303 631 q 162 489 190 554 q 133 340 133 424 l 133 333 q 164 176 133 242 q 253 77 194 111 q 394 43 313 43 q 512 63 457 43 q 621 131 567 83 l 649 83 q 538 15 606 40 q 397 -11 469 -11 m 442 763 l 332 1040 l 399 1040 l 479 763 l 442 763 m 290 763 l 181 1040 l 247 1040 l 328 763 l 290 763 z "},"ë":{"ha":726,"x_min":74,"x_max":660,"o":"m 397 -11 q 225 31 297 -11 q 113 149 153 72 q 74 333 74 226 q 113 517 74 439 q 223 640 153 596 q 385 683 293 683 q 533 644 472 683 q 627 534 594 606 q 660 361 660 463 l 660 325 l 111 325 l 111 376 l 629 376 l 606 360 q 550 558 606 486 q 383 631 494 631 q 247 592 303 631 q 162 489 190 554 q 133 340 133 424 l 133 333 q 164 176 133 242 q 253 77 194 111 q 394 43 313 43 q 512 63 457 43 q 621 131 567 83 l 649 83 q 538 15 606 40 q 397 -11 469 -11 m 454 861 l 454 944 l 539 944 l 539 861 l 454 861 m 231 861 l 231 944 l 315 944 l 315 861 l 231 861 z "},"ė":{"ha":726,"x_min":74,"x_max":660,"o":"m 397 -11 q 225 31 297 -11 q 113 149 153 72 q 74 333 74 226 q 113 517 74 439 q 223 640 153 596 q 385 683 293 683 q 533 644 472 683 q 627 534 594 606 q 660 361 660 463 l 660 325 l 111 325 l 111 376 l 629 376 l 606 360 q 550 558 606 486 q 383 631 494 631 q 247 592 303 631 q 162 489 190 554 q 133 340 133 424 l 133 333 q 164 176 133 242 q 253 77 194 111 q 394 43 313 43 q 512 63 457 43 q 621 131 567 83 l 649 83 q 538 15 606 40 q 397 -11 469 -11 m 340 860 l 340 947 l 429 947 l 429 860 l 340 860 z "},"ẹ":{"ha":726,"x_min":74,"x_max":660,"o":"m 397 -11 q 225 31 297 -11 q 113 149 153 72 q 74 333 74 226 q 113 517 74 439 q 223 640 153 596 q 385 683 293 683 q 533 644 472 683 q 627 534 594 606 q 660 361 660 463 l 660 325 l 111 325 l 111 376 l 629 376 l 606 360 q 550 558 606 486 q 383 631 494 631 q 247 592 303 631 q 162 489 190 554 q 133 340 133 424 l 133 333 q 164 176 133 242 q 253 77 194 111 q 394 43 313 43 q 512 63 457 43 q 621 131 567 83 l 649 83 q 538 15 606 40 q 397 -11 469 -11 m 340 -239 l 340 -151 l 429 -151 l 429 -239 l 340 -239 z "},"è":{"ha":726,"x_min":74,"x_max":660,"o":"m 397 -11 q 225 31 297 -11 q 113 149 153 72 q 74 333 74 226 q 113 517 74 439 q 223 640 153 596 q 385 683 293 683 q 533 644 472 683 q 627 534 594 606 q 660 361 660 463 l 660 325 l 111 325 l 111 376 l 629 376 l 606 360 q 550 558 606 486 q 383 631 494 631 q 247 592 303 631 q 162 489 190 554 q 133 340 133 424 l 133 333 q 164 176 133 242 q 253 77 194 111 q 394 43 313 43 q 512 63 457 43 q 621 131 567 83 l 649 83 q 538 15 606 40 q 397 -11 469 -11 m 360 763 l 190 1040 l 265 1040 l 410 763 l 360 763 z "},"ẻ":{"ha":726,"x_min":74,"x_max":660,"o":"m 397 -11 q 225 31 297 -11 q 113 149 153 72 q 74 333 74 226 q 113 517 74 439 q 223 640 153 596 q 385 683 293 683 q 533 644 472 683 q 627 534 594 606 q 660 361 660 463 l 660 325 l 111 325 l 111 376 l 629 376 l 606 360 q 550 558 606 486 q 383 631 494 631 q 247 592 303 631 q 162 489 190 554 q 133 340 133 424 l 133 333 q 164 176 133 242 q 253 77 194 111 q 394 43 313 43 q 512 63 457 43 q 621 131 567 83 l 649 83 q 538 15 606 40 q 397 -11 469 -11 m 360 763 l 360 790 q 374 847 360 825 q 407 884 389 868 q 440 916 425 900 q 454 954 454 932 q 437 986 454 975 q 382 997 419 997 q 340 992 361 997 q 292 975 318 988 l 279 1019 q 329 1041 301 1035 q 388 1047 357 1047 q 478 1024 446 1047 q 511 957 511 1000 q 496 902 511 922 q 460 867 481 882 q 425 833 440 851 q 410 783 410 814 l 410 763 l 360 763 z "},"ȇ":{"ha":726,"x_min":74,"x_max":660,"o":"m 397 -11 q 225 31 297 -11 q 113 149 153 72 q 74 333 74 226 q 113 517 74 439 q 223 640 153 596 q 385 683 293 683 q 533 644 472 683 q 627 534 594 606 q 660 361 660 463 l 660 325 l 111 325 l 111 376 l 629 376 l 606 360 q 550 558 606 486 q 383 631 494 631 q 247 592 303 631 q 162 489 190 554 q 133 340 133 424 l 133 333 q 164 176 133 242 q 253 77 194 111 q 394 43 313 43 q 512 63 457 43 q 621 131 567 83 l 649 83 q 538 15 606 40 q 397 -11 469 -11 m 231 760 l 185 765 q 215 905 190 847 q 284 994 240 963 q 385 1025 328 1025 q 486 994 443 1025 q 555 905 529 963 q 585 765 581 847 l 539 760 q 494 919 533 863 q 385 975 454 975 q 276 919 317 975 q 231 760 236 863 z "},"ē":{"ha":726,"x_min":74,"x_max":660,"o":"m 397 -11 q 225 31 297 -11 q 113 149 153 72 q 74 333 74 226 q 113 517 74 439 q 223 640 153 596 q 385 683 293 683 q 533 644 472 683 q 627 534 594 606 q 660 361 660 463 l 660 325 l 111 325 l 111 376 l 629 376 l 606 360 q 550 558 606 486 q 383 631 494 631 q 247 592 303 631 q 162 489 190 554 q 133 340 133 424 l 133 333 q 164 176 133 242 q 253 77 194 111 q 394 43 313 43 q 512 63 457 43 q 621 131 567 83 l 649 83 q 538 15 606 40 q 397 -11 469 -11 m 190 879 l 190 932 l 579 932 l 579 879 l 190 879 z "},"ḗ":{"ha":726,"x_min":74,"x_max":660,"o":"m 397 -11 q 225 31 297 -11 q 113 149 153 72 q 74 333 74 226 q 113 517 74 439 q 223 640 153 596 q 385 683 293 683 q 533 644 472 683 q 627 534 594 606 q 660 361 660 463 l 660 325 l 111 325 l 111 376 l 629 376 l 606 360 q 550 558 606 486 q 383 631 494 631 q 247 592 303 631 q 162 489 190 554 q 133 340 133 424 l 133 333 q 164 176 133 242 q 253 77 194 111 q 394 43 313 43 q 512 63 457 43 q 621 131 567 83 l 649 83 q 538 15 606 40 q 397 -11 469 -11 m 190 799 l 190 851 l 579 851 l 579 799 l 190 799 m 360 903 l 496 1111 l 571 1111 l 410 903 l 360 903 z "},"ḕ":{"ha":726,"x_min":74,"x_max":660,"o":"m 397 -11 q 225 31 297 -11 q 113 149 153 72 q 74 333 74 226 q 113 517 74 439 q 223 640 153 596 q 385 683 293 683 q 533 644 472 683 q 627 534 594 606 q 660 361 660 463 l 660 325 l 111 325 l 111 376 l 629 376 l 606 360 q 550 558 606 486 q 383 631 494 631 q 247 592 303 631 q 162 489 190 554 q 133 340 133 424 l 133 333 q 164 176 133 242 q 253 77 194 111 q 394 43 313 43 q 512 63 457 43 q 621 131 567 83 l 649 83 q 538 15 606 40 q 397 -11 469 -11 m 190 799 l 190 851 l 579 851 l 579 799 l 190 799 m 360 903 l 199 1111 l 274 1111 l 410 903 l 360 903 z "},"ę":{"ha":726,"x_min":74,"x_max":660,"o":"m 397 -11 q 225 31 297 -11 q 113 149 153 72 q 74 333 74 226 q 113 517 74 439 q 223 640 153 596 q 385 683 293 683 q 533 644 472 683 q 627 534 594 606 q 660 361 660 463 l 660 325 l 111 325 l 111 376 l 629 376 l 606 360 q 550 558 606 486 q 383 631 494 631 q 247 592 303 631 q 162 489 190 554 q 133 340 133 424 l 133 333 q 164 176 133 242 q 253 77 194 111 q 394 43 313 43 q 512 63 457 43 q 621 131 567 83 l 649 83 q 538 15 606 40 q 397 -11 469 -11 m 451 -264 q 358 -229 394 -264 q 321 -136 321 -194 q 353 -35 321 -83 q 446 43 386 13 l 475 0 q 431 -26 454 -8 q 392 -71 408 -44 q 375 -131 375 -97 q 399 -194 375 -174 q 458 -214 424 -214 q 494 -210 476 -214 q 532 -196 513 -206 l 550 -240 q 510 -257 536 -250 q 451 -264 483 -264 z "},"ẽ":{"ha":726,"x_min":74,"x_max":660,"o":"m 397 -11 q 225 31 297 -11 q 113 149 153 72 q 74 333 74 226 q 113 517 74 439 q 223 640 153 596 q 385 683 293 683 q 533 644 472 683 q 627 534 594 606 q 660 361 660 463 l 660 325 l 111 325 l 111 376 l 629 376 l 606 360 q 550 558 606 486 q 383 631 494 631 q 247 592 303 631 q 162 489 190 554 q 133 340 133 424 l 133 333 q 164 176 133 242 q 253 77 194 111 q 394 43 313 43 q 512 63 457 43 q 621 131 567 83 l 649 83 q 538 15 606 40 q 397 -11 469 -11 m 196 826 l 151 829 q 194 953 160 910 q 285 997 229 997 q 340 981 314 997 q 399 932 365 965 q 448 890 429 901 q 485 879 467 879 q 543 910 521 879 q 574 1000 565 942 l 618 997 q 575 873 610 917 q 486 829 540 829 q 433 845 458 829 q 371 894 407 861 q 322 935 340 924 q 285 947 304 947 q 226 916 249 947 q 196 826 204 885 z "},"ə":{"ha":726,"x_min":67,"x_max":653,"o":"m 350 -11 q 197 27 261 -11 q 100 139 133 65 q 67 315 67 213 l 67 347 l 617 347 l 617 296 l 97 296 l 124 314 q 181 113 124 183 q 351 42 239 42 q 479 76 425 42 q 563 174 533 110 q 593 329 593 239 l 593 338 q 563 494 593 429 q 474 594 532 560 q 332 629 415 629 q 215 608 269 629 q 106 543 160 588 l 78 589 q 189 658 121 633 q 329 683 257 683 q 502 642 429 683 q 614 524 575 600 q 653 340 653 447 q 615 154 653 233 q 508 32 576 75 q 350 -11 440 -11 z "},"ʒ":{"ha":661,"x_min":32,"x_max":613,"o":"m 311 -261 q 150 -238 222 -261 q 32 -175 78 -215 l 60 -128 q 170 -187 110 -168 q 311 -207 231 -207 q 492 -148 431 -207 q 553 24 553 -89 q 494 176 553 122 q 328 231 435 231 l 178 231 l 178 263 l 507 639 l 507 621 l 53 621 l 53 672 l 571 672 l 571 631 l 238 254 l 238 283 l 325 283 q 537 215 461 283 q 613 24 613 147 q 577 -129 613 -65 q 474 -227 542 -193 q 311 -261 407 -261 z "},"ǯ":{"ha":661,"x_min":32,"x_max":613,"o":"m 311 -261 q 150 -238 222 -261 q 32 -175 78 -215 l 60 -128 q 170 -187 110 -168 q 311 -207 231 -207 q 492 -148 431 -207 q 553 24 553 -89 q 494 176 553 122 q 328 231 435 231 l 178 231 l 178 263 l 507 639 l 507 621 l 53 621 l 53 672 l 571 672 l 571 631 l 238 254 l 238 283 l 325 283 q 537 215 461 283 q 613 24 613 147 q 577 -129 613 -65 q 474 -227 542 -193 q 311 -261 407 -261 m 278 763 l 126 1040 l 175 1040 l 311 817 l 447 1040 l 496 1040 l 344 763 l 278 763 z "},"f":{"ha":425,"x_min":11,"x_max":439,"o":"m 146 0 l 146 622 l 11 622 l 11 672 l 160 672 l 146 657 l 146 715 q 206 907 146 842 q 389 979 267 972 l 432 982 l 439 931 l 375 926 q 279 898 317 922 q 223 828 242 874 q 204 715 204 782 l 204 653 l 193 672 l 407 672 l 407 622 l 204 622 l 204 0 l 146 0 z "},"g":{"ha":792,"x_min":74,"x_max":674,"o":"m 403 -261 q 248 -237 319 -261 q 118 -165 176 -212 l 146 -118 q 229 -170 190 -150 q 310 -199 268 -190 q 404 -207 353 -207 q 563 -148 508 -207 q 617 21 617 -89 l 617 206 l 631 206 q 542 66 611 117 q 376 15 472 15 q 215 58 283 15 q 110 176 147 100 q 74 350 74 251 q 110 525 74 450 q 215 642 147 600 q 376 683 283 683 q 542 633 472 683 q 631 493 611 582 l 615 493 l 615 672 l 674 672 l 674 31 q 643 -131 674 -65 q 553 -228 613 -196 q 403 -261 493 -261 m 375 69 q 551 146 486 69 q 617 350 617 222 q 551 553 617 478 q 375 629 486 629 q 199 553 264 629 q 133 350 133 478 q 199 146 133 222 q 375 69 264 69 z "},"ğ":{"ha":792,"x_min":74,"x_max":674,"o":"m 403 -261 q 248 -237 319 -261 q 118 -165 176 -212 l 146 -118 q 229 -170 190 -150 q 310 -199 268 -190 q 404 -207 353 -207 q 563 -148 508 -207 q 617 21 617 -89 l 617 206 l 631 206 q 542 66 611 117 q 376 15 472 15 q 215 58 283 15 q 110 176 147 100 q 74 350 74 251 q 110 525 74 450 q 215 642 147 600 q 376 683 283 683 q 542 633 472 683 q 631 493 611 582 l 615 493 l 615 672 l 674 672 l 674 31 q 643 -131 674 -65 q 553 -228 613 -196 q 403 -261 493 -261 m 375 69 q 551 146 486 69 q 617 350 617 222 q 551 553 617 478 q 375 629 486 629 q 199 553 264 629 q 133 350 133 478 q 199 146 133 222 q 375 69 264 69 m 400 760 q 299 791 343 760 q 231 881 256 822 q 200 1019 206 939 l 246 1025 q 292 866 251 922 q 400 810 332 810 q 509 866 469 810 q 554 1025 549 922 l 600 1019 q 570 881 596 939 q 501 791 544 822 q 400 760 458 760 z "},"ǧ":{"ha":792,"x_min":74,"x_max":674,"o":"m 403 -261 q 248 -237 319 -261 q 118 -165 176 -212 l 146 -118 q 229 -170 190 -150 q 310 -199 268 -190 q 404 -207 353 -207 q 563 -148 508 -207 q 617 21 617 -89 l 617 206 l 631 206 q 542 66 611 117 q 376 15 472 15 q 215 58 283 15 q 110 176 147 100 q 74 350 74 251 q 110 525 74 450 q 215 642 147 600 q 376 683 283 683 q 542 633 472 683 q 631 493 611 582 l 615 493 l 615 672 l 674 672 l 674 31 q 643 -131 674 -65 q 553 -228 613 -196 q 403 -261 493 -261 m 375 69 q 551 146 486 69 q 617 350 617 222 q 551 553 617 478 q 375 629 486 629 q 199 553 264 629 q 133 350 133 478 q 199 146 133 222 q 375 69 264 69 m 367 763 l 215 1040 l 264 1040 l 400 817 l 536 1040 l 585 1040 l 433 763 l 367 763 z "},"ĝ":{"ha":792,"x_min":74,"x_max":674,"o":"m 403 -261 q 248 -237 319 -261 q 118 -165 176 -212 l 146 -118 q 229 -170 190 -150 q 310 -199 268 -190 q 404 -207 353 -207 q 563 -148 508 -207 q 617 21 617 -89 l 617 206 l 631 206 q 542 66 611 117 q 376 15 472 15 q 215 58 283 15 q 110 176 147 100 q 74 350 74 251 q 110 525 74 450 q 215 642 147 600 q 376 683 283 683 q 542 633 472 683 q 631 493 611 582 l 615 493 l 615 672 l 674 672 l 674 31 q 643 -131 674 -65 q 553 -228 613 -196 q 403 -261 493 -261 m 375 69 q 551 146 486 69 q 617 350 617 222 q 551 553 617 478 q 375 629 486 629 q 199 553 264 629 q 133 350 133 478 q 199 146 133 222 q 375 69 264 69 m 215 763 l 367 1040 l 433 1040 l 585 763 l 536 763 l 400 986 l 264 763 l 215 763 z "},"ģ":{"ha":792,"x_min":74,"x_max":674,"o":"m 403 -261 q 248 -237 319 -261 q 118 -165 176 -212 l 146 -118 q 229 -170 190 -150 q 310 -199 268 -190 q 404 -207 353 -207 q 563 -148 508 -207 q 617 21 617 -89 l 617 206 l 631 206 q 542 66 611 117 q 376 15 472 15 q 215 58 283 15 q 110 176 147 100 q 74 350 74 251 q 110 525 74 450 q 215 642 147 600 q 376 683 283 683 q 542 633 472 683 q 631 493 611 582 l 615 493 l 615 672 l 674 672 l 674 31 q 643 -131 674 -65 q 553 -228 613 -196 q 403 -261 493 -261 m 375 69 q 551 146 486 69 q 617 350 617 222 q 551 553 617 478 q 375 629 486 629 q 199 553 264 629 q 133 350 133 478 q 199 146 133 222 q 375 69 264 69 m 351 792 l 351 867 q 368 956 351 914 q 417 1032 385 999 l 453 1004 q 410 938 421 968 q 400 872 400 907 l 379 882 l 449 882 l 449 792 l 351 792 z "},"ġ":{"ha":792,"x_min":74,"x_max":674,"o":"m 403 -261 q 248 -237 319 -261 q 118 -165 176 -212 l 146 -118 q 229 -170 190 -150 q 310 -199 268 -190 q 404 -207 353 -207 q 563 -148 508 -207 q 617 21 617 -89 l 617 206 l 631 206 q 542 66 611 117 q 376 15 472 15 q 215 58 283 15 q 110 176 147 100 q 74 350 74 251 q 110 525 74 450 q 215 642 147 600 q 376 683 283 683 q 542 633 472 683 q 631 493 611 582 l 615 493 l 615 672 l 674 672 l 674 31 q 643 -131 674 -65 q 553 -228 613 -196 q 403 -261 493 -261 m 375 69 q 551 146 486 69 q 617 350 617 222 q 551 553 617 478 q 375 629 486 629 q 199 553 264 629 q 133 350 133 478 q 199 146 133 222 q 375 69 264 69 m 356 860 l 356 947 l 444 947 l 444 860 l 356 860 z "},"ḡ":{"ha":792,"x_min":74,"x_max":674,"o":"m 403 -261 q 248 -237 319 -261 q 118 -165 176 -212 l 146 -118 q 229 -170 190 -150 q 310 -199 268 -190 q 404 -207 353 -207 q 563 -148 508 -207 q 617 21 617 -89 l 617 206 l 631 206 q 542 66 611 117 q 376 15 472 15 q 215 58 283 15 q 110 176 147 100 q 74 350 74 251 q 110 525 74 450 q 215 642 147 600 q 376 683 283 683 q 542 633 472 683 q 631 493 611 582 l 615 493 l 615 672 l 674 672 l 674 31 q 643 -131 674 -65 q 553 -228 613 -196 q 403 -261 493 -261 m 375 69 q 551 146 486 69 q 617 350 617 222 q 551 553 617 478 q 375 629 486 629 q 199 553 264 629 q 133 350 133 478 q 199 146 133 222 q 375 69 264 69 m 206 879 l 206 932 l 594 932 l 594 879 l 206 879 z "},"ǥ":{"ha":792,"x_min":74,"x_max":776,"o":"m 403 -261 q 248 -237 319 -261 q 118 -165 176 -212 l 146 -118 q 229 -169 190 -150 q 310 -197 268 -189 q 404 -206 353 -206 q 535 -172 485 -206 q 604 -72 585 -137 l 625 -87 l 436 -87 l 436 -37 l 617 -37 l 610 -53 q 615 -17 613 -36 q 617 21 617 1 l 617 226 l 631 226 q 542 90 608 138 q 376 43 476 43 q 218 83 286 43 q 112 196 150 124 q 74 364 74 268 q 112 531 74 460 q 218 643 150 603 q 376 683 286 683 q 542 636 476 683 q 631 501 608 589 l 615 501 l 615 672 l 674 672 l 674 31 q 672 -13 674 8 q 667 -53 669 -35 l 663 -37 l 776 -37 l 776 -87 l 633 -87 l 663 -74 q 576 -214 640 -167 q 403 -261 511 -261 m 375 97 q 504 129 450 97 q 587 222 558 161 q 615 364 615 282 q 551 558 615 488 q 375 629 488 629 q 247 597 301 629 q 163 506 192 565 q 133 364 133 447 q 163 221 133 281 q 247 129 192 161 q 375 97 301 97 z "},"h":{"ha":768,"x_min":118,"x_max":653,"o":"m 118 0 l 118 979 l 176 979 l 176 508 l 160 508 q 256 640 188 596 q 413 683 324 683 q 547 655 493 683 q 626 569 600 626 q 653 428 653 513 l 653 0 l 594 0 l 594 422 q 576 539 594 493 q 517 607 557 585 q 413 629 476 629 q 288 599 342 629 q 206 515 235 569 q 176 386 176 460 l 176 0 l 118 0 z "},"ħ":{"ha":768,"x_min":-14,"x_max":653,"o":"m 118 0 l 118 781 l -14 781 l -14 831 l 118 831 l 118 979 l 176 979 l 176 831 l 450 831 l 450 781 l 176 781 l 176 508 l 160 508 q 256 640 188 596 q 413 683 324 683 q 593 619 533 683 q 653 428 653 556 l 653 0 l 594 0 l 594 422 q 576 539 594 493 q 517 607 557 585 q 413 629 476 629 q 288 599 342 629 q 206 515 235 569 q 176 386 176 460 l 176 0 l 118 0 z "},"ḫ":{"ha":768,"x_min":118,"x_max":653,"o":"m 118 0 l 118 979 l 176 979 l 176 508 l 160 508 q 256 640 188 596 q 413 683 324 683 q 547 655 493 683 q 626 569 600 626 q 653 428 653 513 l 653 0 l 594 0 l 594 422 q 576 539 594 493 q 517 607 557 585 q 413 629 476 629 q 288 599 342 629 q 206 515 235 569 q 176 386 176 460 l 176 0 l 118 0 m 385 -299 q 245 -244 299 -299 q 185 -94 192 -190 l 231 -89 q 276 -207 236 -165 q 385 -249 317 -249 q 494 -207 454 -249 q 539 -89 533 -165 l 585 -94 q 524 -244 578 -190 q 385 -299 471 -299 z "},"ȟ":{"ha":768,"x_min":118,"x_max":653,"o":"m 118 0 l 118 979 l 176 979 l 176 508 l 160 508 q 256 640 188 596 q 413 683 324 683 q 547 655 493 683 q 626 569 600 626 q 653 428 653 513 l 653 0 l 594 0 l 594 422 q 576 539 594 493 q 517 607 557 585 q 413 629 476 629 q 288 599 342 629 q 206 515 235 569 q 176 386 176 460 l 176 0 l 118 0 m 353 1063 l 185 1299 l 236 1299 l 386 1115 l 536 1299 l 588 1299 l 419 1063 l 353 1063 z "},"ĥ":{"ha":768,"x_min":118,"x_max":653,"o":"m 118 0 l 118 979 l 176 979 l 176 508 l 160 508 q 256 640 188 596 q 413 683 324 683 q 547 655 493 683 q 626 569 600 626 q 653 428 653 513 l 653 0 l 594 0 l 594 422 q 576 539 594 493 q 517 607 557 585 q 413 629 476 629 q 288 599 342 629 q 206 515 235 569 q 176 386 176 460 l 176 0 l 118 0 m 185 1063 l 353 1299 l 419 1299 l 588 1063 l 536 1063 l 386 1246 l 236 1063 l 185 1063 z "},"ḥ":{"ha":768,"x_min":118,"x_max":653,"o":"m 118 0 l 118 979 l 176 979 l 176 508 l 160 508 q 256 640 188 596 q 413 683 324 683 q 547 655 493 683 q 626 569 600 626 q 653 428 653 513 l 653 0 l 594 0 l 594 422 q 576 539 594 493 q 517 607 557 585 q 413 629 476 629 q 288 599 342 629 q 206 515 235 569 q 176 386 176 460 l 176 0 l 118 0 m 340 -239 l 340 -151 l 429 -151 l 429 -239 l 340 -239 z "},"i":{"ha":294,"x_min":103,"x_max":192,"o":"m 103 860 l 103 947 l 192 947 l 192 860 l 103 860 m 118 0 l 118 672 l 176 672 l 176 0 l 118 0 z "},"ı":{"ha":294,"x_min":118,"x_max":176,"o":"m 118 0 l 118 672 l 176 672 l 176 0 l 118 0 z "},"í":{"ha":294,"x_min":118,"x_max":342,"o":"m 118 0 l 118 672 l 176 672 l 176 0 l 118 0 m 122 763 l 267 1040 l 342 1040 l 172 763 l 122 763 z "},"ĭ":{"ha":294,"x_min":-53,"x_max":347,"o":"m 118 0 l 118 672 l 176 672 l 176 0 l 118 0 m 147 760 q 47 791 90 760 q -22 881 3 822 q -53 1019 -47 939 l -7 1025 q 39 866 -1 922 q 147 810 79 810 q 256 866 217 810 q 301 1025 296 922 l 347 1019 q 317 881 343 939 q 249 791 292 822 q 147 760 206 760 z "},"î":{"ha":294,"x_min":-37,"x_max":332,"o":"m 118 0 l 118 672 l 176 672 l 176 0 l 118 0 m -37 763 l 114 1040 l 181 1040 l 332 763 l 283 763 l 147 986 l 11 763 l -37 763 z "},"ȉ":{"ha":294,"x_min":-57,"x_max":242,"o":"m 118 0 l 118 672 l 176 672 l 176 0 l 118 0 m 204 763 l 94 1040 l 161 1040 l 242 763 l 204 763 m 53 763 l -57 1040 l 10 1040 l 90 763 l 53 763 z "},"ï":{"ha":294,"x_min":-7,"x_max":301,"o":"m 118 0 l 118 672 l 176 672 l 176 0 l 118 0 m 217 861 l 217 944 l 301 944 l 301 861 l 217 861 m -7 861 l -7 944 l 78 944 l 78 861 l -7 861 z "},"ḯ":{"ha":294,"x_min":-7,"x_max":333,"o":"m 118 0 l 118 672 l 176 672 l 176 0 l 118 0 m 122 903 l 258 1111 l 333 1111 l 172 903 l 122 903 m -7 764 l -7 847 l 78 847 l 78 764 l -7 764 m 217 764 l 217 847 l 301 847 l 301 764 l 217 764 z "},"ị":{"ha":294,"x_min":101,"x_max":192,"o":"m 103 860 l 103 947 l 192 947 l 192 860 l 103 860 m 118 0 l 118 672 l 176 672 l 176 0 l 118 0 m 101 -239 l 101 -151 l 190 -151 l 190 -239 l 101 -239 z "},"ì":{"ha":294,"x_min":-47,"x_max":176,"o":"m 118 0 l 118 672 l 176 672 l 176 0 l 118 0 m 122 763 l -47 1040 l 28 1040 l 172 763 l 122 763 z "},"ỉ":{"ha":294,"x_min":42,"x_max":274,"o":"m 118 0 l 118 672 l 176 672 l 176 0 l 118 0 m 122 763 l 122 790 q 137 847 122 825 q 169 884 151 868 q 202 916 188 900 q 217 954 217 932 q 199 986 217 975 q 144 997 182 997 q 102 992 124 997 q 54 975 81 988 l 42 1019 q 92 1041 64 1035 q 150 1047 119 1047 q 241 1024 208 1047 q 274 957 274 1000 q 258 902 274 922 q 223 867 243 882 q 188 833 203 851 q 172 783 172 814 l 172 763 l 122 763 z "},"ȋ":{"ha":294,"x_min":-53,"x_max":347,"o":"m 118 0 l 118 672 l 176 672 l 176 0 l 118 0 m -7 760 l -53 765 q -22 905 -47 847 q 47 994 3 963 q 147 1025 90 1025 q 249 994 206 1025 q 317 905 292 963 q 347 765 343 847 l 301 760 q 256 919 296 863 q 147 975 217 975 q 39 919 79 975 q -7 760 -1 863 z "},"ĳ":{"ha":593,"x_min":103,"x_max":490,"o":"m 103 860 l 103 947 l 192 947 l 192 860 l 103 860 m 118 0 l 118 672 l 176 672 l 176 0 l 118 0 m 401 860 l 401 947 l 490 947 l 490 860 l 401 860 m 218 -268 l 214 -215 l 271 -211 q 379 -160 342 -206 q 417 -31 417 -114 l 417 672 l 475 672 l 475 -29 q 462 -125 475 -83 q 423 -197 449 -167 q 361 -244 397 -226 q 278 -264 325 -261 l 218 -268 z "},"ī":{"ha":294,"x_min":-47,"x_max":342,"o":"m 118 0 l 118 672 l 176 672 l 176 0 l 118 0 m -47 879 l -47 932 l 342 932 l 342 879 l -47 879 z "},"į":{"ha":294,"x_min":22,"x_max":251,"o":"m 118 0 l 118 672 l 176 672 l 176 0 l 118 0 m 103 860 l 103 947 l 192 947 l 192 860 l 103 860 m 153 -264 q 59 -229 96 -264 q 22 -136 22 -194 q 55 -35 22 -83 q 147 43 88 13 l 176 0 q 133 -26 156 -8 q 93 -71 110 -44 q 76 -131 76 -97 q 101 -194 76 -174 q 160 -214 125 -214 q 196 -210 178 -214 q 233 -196 214 -206 l 251 -240 q 211 -257 238 -250 q 153 -264 185 -264 z "},"ĩ":{"ha":294,"x_min":-86,"x_max":381,"o":"m 118 0 l 118 672 l 176 672 l 176 0 l 118 0 m -42 826 l -86 829 q -43 953 -78 910 q 47 997 -8 997 q 102 981 76 997 q 161 932 128 965 q 210 890 192 901 q 247 879 229 879 q 306 910 283 879 q 336 1000 328 942 l 381 997 q 338 873 372 917 q 249 829 303 829 q 195 845 221 829 q 133 894 169 861 q 85 935 103 924 q 47 947 67 947 q -11 916 11 947 q -42 826 -33 885 z "},"j":{"ha":299,"x_min":-81,"x_max":196,"o":"m 107 860 l 107 947 l 196 947 l 196 860 l 107 860 m -76 -268 l -81 -215 l -24 -211 q 85 -160 47 -206 q 122 -31 122 -114 l 122 672 l 181 672 l 181 -29 q 167 -125 181 -83 q 128 -197 154 -167 q 67 -244 103 -226 q -17 -264 31 -261 l -76 -268 z "},"ȷ":{"ha":299,"x_min":-81,"x_max":181,"o":"m -76 -268 l -81 -215 l -24 -211 q 85 -160 47 -206 q 122 -31 122 -114 l 122 672 l 181 672 l 181 -29 q 167 -125 181 -83 q 128 -197 154 -167 q 67 -244 103 -226 q -17 -264 31 -261 l -76 -268 z "},"ĵ":{"ha":299,"x_min":-81,"x_max":336,"o":"m -76 -268 l -81 -215 l -24 -211 q 85 -160 47 -206 q 122 -31 122 -114 l 122 672 l 181 672 l 181 -29 q 167 -125 181 -83 q 128 -197 154 -167 q 67 -244 103 -226 q -17 -264 31 -261 l -76 -268 m -33 763 l 118 1040 l 185 1040 l 336 763 l 288 763 l 151 986 l 15 763 l -33 763 z "},"k":{"ha":650,"x_min":118,"x_max":649,"o":"m 118 0 l 118 979 l 176 979 l 176 361 l 179 361 l 528 672 l 611 672 l 214 321 l 214 371 l 649 0 l 567 0 l 179 329 l 176 329 l 176 0 l 118 0 z "},"ǩ":{"ha":650,"x_min":118,"x_max":649,"o":"m 118 0 l 118 979 l 176 979 l 176 361 l 179 361 l 528 672 l 611 672 l 214 321 l 214 371 l 649 0 l 567 0 l 179 329 l 176 329 l 176 0 l 118 0 m 353 1063 l 185 1299 l 236 1299 l 386 1115 l 536 1299 l 588 1299 l 419 1063 l 353 1063 z "},"ķ":{"ha":650,"x_min":118,"x_max":649,"o":"m 118 0 l 118 979 l 176 979 l 176 361 l 179 361 l 528 672 l 611 672 l 214 321 l 214 371 l 649 0 l 567 0 l 179 329 l 176 329 l 176 0 l 118 0 m 308 -360 l 272 -332 q 315 -265 304 -296 q 325 -200 325 -235 l 346 -210 l 276 -210 l 276 -119 l 374 -119 l 374 -194 q 357 -284 374 -242 q 308 -360 340 -326 z "},"ĸ":{"ha":650,"x_min":118,"x_max":649,"o":"m 118 0 l 118 672 l 176 672 l 176 361 l 179 361 l 528 672 l 611 672 l 214 321 l 214 371 l 649 0 l 567 0 l 179 329 l 176 329 l 176 0 l 118 0 z "},"l":{"ha":382,"x_min":118,"x_max":372,"o":"m 301 -11 q 166 45 214 -11 q 118 203 118 101 l 118 979 l 176 979 l 176 213 q 191 119 176 157 q 235 62 206 81 q 307 43 264 43 q 341 45 325 43 q 372 51 357 47 l 368 -3 q 333 -9 350 -7 q 301 -11 317 -11 z "},"ĺ":{"ha":382,"x_min":118,"x_max":372,"o":"m 301 -11 q 166 45 214 -11 q 118 203 118 101 l 118 979 l 176 979 l 176 213 q 191 119 176 157 q 235 62 206 81 q 307 43 264 43 q 341 45 325 43 q 372 51 357 47 l 368 -3 q 333 -9 350 -7 q 301 -11 317 -11 m 121 1063 l 285 1299 l 363 1299 l 174 1063 l 121 1063 z "},"ľ":{"ha":382,"x_min":118,"x_max":372,"o":"m 301 -11 q 166 45 214 -11 q 118 203 118 101 l 118 979 l 176 979 l 176 213 q 191 119 176 157 q 235 62 206 81 q 307 43 264 43 q 341 45 325 43 q 372 51 357 47 l 368 -3 q 333 -9 350 -7 q 301 -11 317 -11 m 246 718 l 246 979 l 314 979 l 283 718 l 246 718 z "},"ļ":{"ha":382,"x_min":118,"x_max":372,"o":"m 301 -11 q 166 45 214 -11 q 118 203 118 101 l 118 979 l 176 979 l 176 213 q 191 119 176 157 q 235 62 206 81 q 307 43 264 43 q 341 45 325 43 q 372 51 357 47 l 368 -3 q 333 -9 350 -7 q 301 -11 317 -11 m 235 -360 l 199 -332 q 241 -265 231 -296 q 251 -200 251 -235 l 272 -210 l 203 -210 l 203 -119 l 300 -119 l 300 -194 q 283 -284 300 -242 q 235 -360 267 -326 z "},"ŀ":{"ha":382,"x_min":118,"x_max":383,"o":"m 301 -11 q 166 45 214 -11 q 118 203 118 101 l 118 979 l 176 979 l 176 213 q 191 119 176 157 q 235 62 206 81 q 307 43 264 43 q 341 45 325 43 q 372 51 357 47 l 368 -3 q 333 -9 350 -7 q 301 -11 317 -11 m 289 449 l 289 543 l 383 543 l 383 449 l 289 449 z "},"ḷ":{"ha":382,"x_min":118,"x_max":372,"o":"m 301 -11 q 166 45 214 -11 q 118 203 118 101 l 118 979 l 176 979 l 176 213 q 191 119 176 157 q 235 62 206 81 q 307 43 264 43 q 341 45 325 43 q 372 51 357 47 l 368 -3 q 333 -9 350 -7 q 301 -11 317 -11 m 207 -239 l 207 -151 l 296 -151 l 296 -239 l 207 -239 z "},"ǉ":{"ha":681,"x_min":118,"x_max":578,"o":"m 301 -11 q 166 45 214 -11 q 118 203 118 101 l 118 979 l 176 979 l 176 213 q 191 119 176 157 q 235 62 206 81 q 307 43 264 43 q 341 45 325 43 q 372 51 357 47 l 368 -3 q 333 -9 350 -7 q 301 -11 317 -11 m 489 860 l 489 947 l 578 947 l 578 860 l 489 860 m 306 -268 l 301 -215 l 358 -211 q 467 -160 429 -206 q 504 -31 504 -114 l 504 672 l 563 672 l 563 -29 q 549 -125 563 -83 q 510 -197 536 -167 q 449 -244 485 -226 q 365 -264 413 -261 l 306 -268 z "},"ḻ":{"ha":382,"x_min":57,"x_max":446,"o":"m 301 -11 q 166 45 214 -11 q 118 203 118 101 l 118 979 l 176 979 l 176 213 q 191 119 176 157 q 235 62 206 81 q 307 43 264 43 q 341 45 325 43 q 372 51 357 47 l 368 -3 q 333 -9 350 -7 q 301 -11 317 -11 m 57 -206 l 57 -153 l 446 -153 l 446 -206 l 57 -206 z "},"ł":{"ha":382,"x_min":-11,"x_max":372,"o":"m 301 -11 q 166 45 214 -11 q 118 203 118 101 l 118 979 l 176 979 l 176 213 q 191 119 176 157 q 235 62 206 81 q 307 43 264 43 q 341 45 325 43 q 372 51 357 47 l 368 -3 q 333 -9 350 -7 q 301 -11 317 -11 m 17 381 l -11 426 l 306 611 l 333 565 l 17 381 z "},"m":{"ha":1164,"x_min":121,"x_max":1046,"o":"m 121 0 l 121 672 l 178 672 l 178 508 l 163 508 q 212 604 179 565 q 290 663 244 643 q 392 683 336 683 q 535 640 482 683 q 604 507 589 596 l 583 507 q 670 635 606 588 q 825 683 735 683 q 947 655 899 683 q 1021 570 996 626 q 1046 428 1046 514 l 1046 0 l 988 0 l 988 422 q 949 579 988 529 q 822 629 911 629 q 711 599 758 629 q 638 515 664 569 q 613 386 613 460 l 613 0 l 554 0 l 554 422 q 516 579 554 529 q 389 629 478 629 q 278 599 325 629 q 205 515 231 569 q 179 386 179 460 l 179 0 l 121 0 z "},"ṃ":{"ha":1164,"x_min":121,"x_max":1046,"o":"m 121 0 l 121 672 l 178 672 l 178 508 l 163 508 q 212 604 179 565 q 290 663 244 643 q 392 683 336 683 q 535 640 482 683 q 604 507 589 596 l 583 507 q 670 635 606 588 q 825 683 735 683 q 947 655 899 683 q 1021 570 996 626 q 1046 428 1046 514 l 1046 0 l 988 0 l 988 422 q 949 579 988 529 q 822 629 911 629 q 711 599 758 629 q 638 515 664 569 q 613 386 613 460 l 613 0 l 554 0 l 554 422 q 516 579 554 529 q 389 629 478 629 q 278 599 325 629 q 205 515 231 569 q 179 386 179 460 l 179 0 l 121 0 m 539 -239 l 539 -151 l 628 -151 l 628 -239 l 539 -239 z "},"n":{"ha":768,"x_min":118,"x_max":653,"o":"m 118 0 l 118 672 l 175 672 l 175 508 l 160 508 q 256 640 188 596 q 413 683 324 683 q 547 656 493 683 q 626 571 600 628 q 653 428 653 514 l 653 0 l 594 0 l 594 422 q 576 539 594 493 q 517 607 557 585 q 413 629 476 629 q 288 599 342 629 q 206 515 235 569 q 176 386 176 460 l 176 0 l 118 0 z "},"ń":{"ha":768,"x_min":118,"x_max":653,"o":"m 118 0 l 118 672 l 175 672 l 175 508 l 160 508 q 256 640 188 596 q 413 683 324 683 q 547 656 493 683 q 626 571 600 628 q 653 428 653 514 l 653 0 l 594 0 l 594 422 q 576 539 594 493 q 517 607 557 585 q 413 629 476 629 q 288 599 342 629 q 206 515 235 569 q 176 386 176 460 l 176 0 l 118 0 m 360 763 l 504 1040 l 579 1040 l 410 763 l 360 763 z "},"ŉ":{"ha":768,"x_min":-4,"x_max":653,"o":"m 32 799 l -4 826 q 34 888 26 860 q 42 943 42 917 l 68 935 l -3 935 l -3 1032 l 93 1032 l 93 956 q 81 873 93 913 q 32 799 68 833 m 118 0 l 118 672 l 175 672 l 175 508 l 160 508 q 256 640 188 596 q 413 683 324 683 q 547 656 493 683 q 626 571 600 628 q 653 428 653 514 l 653 0 l 594 0 l 594 422 q 576 539 594 493 q 517 607 557 585 q 413 629 476 629 q 288 599 342 629 q 206 515 235 569 q 176 386 176 460 l 176 0 l 118 0 z "},"ň":{"ha":768,"x_min":118,"x_max":653,"o":"m 118 0 l 118 672 l 175 672 l 175 508 l 160 508 q 256 640 188 596 q 413 683 324 683 q 547 656 493 683 q 626 571 600 628 q 653 428 653 514 l 653 0 l 594 0 l 594 422 q 576 539 594 493 q 517 607 557 585 q 413 629 476 629 q 288 599 342 629 q 206 515 235 569 q 176 386 176 460 l 176 0 l 118 0 m 351 763 l 200 1040 l 249 1040 l 385 817 l 521 1040 l 569 1040 l 418 763 l 351 763 z "},"ņ":{"ha":768,"x_min":118,"x_max":653,"o":"m 118 0 l 118 672 l 175 672 l 175 508 l 160 508 q 256 640 188 596 q 413 683 324 683 q 547 656 493 683 q 626 571 600 628 q 653 428 653 514 l 653 0 l 594 0 l 594 422 q 576 539 594 493 q 517 607 557 585 q 413 629 476 629 q 288 599 342 629 q 206 515 235 569 q 176 386 176 460 l 176 0 l 118 0 m 368 -360 l 332 -332 q 374 -265 364 -296 q 385 -200 385 -235 l 406 -210 l 336 -210 l 336 -119 l 433 -119 l 433 -194 q 417 -284 433 -242 q 368 -360 400 -326 z "},"ṅ":{"ha":768,"x_min":118,"x_max":653,"o":"m 118 0 l 118 672 l 175 672 l 175 508 l 160 508 q 256 640 188 596 q 413 683 324 683 q 547 656 493 683 q 626 571 600 628 q 653 428 653 514 l 653 0 l 594 0 l 594 422 q 576 539 594 493 q 517 607 557 585 q 413 629 476 629 q 288 599 342 629 q 206 515 235 569 q 176 386 176 460 l 176 0 l 118 0 m 340 860 l 340 947 l 429 947 l 429 860 l 340 860 z "},"ṇ":{"ha":768,"x_min":118,"x_max":653,"o":"m 118 0 l 118 672 l 175 672 l 175 508 l 160 508 q 256 640 188 596 q 413 683 324 683 q 547 656 493 683 q 626 571 600 628 q 653 428 653 514 l 653 0 l 594 0 l 594 422 q 576 539 594 493 q 517 607 557 585 q 413 629 476 629 q 288 599 342 629 q 206 515 235 569 q 176 386 176 460 l 176 0 l 118 0 m 340 -239 l 340 -151 l 429 -151 l 429 -239 l 340 -239 z "},"ǌ":{"ha":1067,"x_min":118,"x_max":964,"o":"m 118 0 l 118 672 l 175 672 l 175 508 l 160 508 q 256 640 188 596 q 413 683 324 683 q 547 656 493 683 q 626 571 600 628 q 653 428 653 514 l 653 0 l 594 0 l 594 422 q 576 539 594 493 q 517 607 557 585 q 413 629 476 629 q 288 599 342 629 q 206 515 235 569 q 176 386 176 460 l 176 0 l 118 0 m 875 860 l 875 947 l 964 947 l 964 860 l 875 860 m 692 -268 l 688 -215 l 744 -211 q 853 -160 815 -206 q 890 -31 890 -114 l 890 672 l 949 672 l 949 -29 q 935 -125 949 -83 q 897 -197 922 -167 q 835 -244 871 -226 q 751 -264 799 -261 l 692 -268 z "},"ṉ":{"ha":768,"x_min":118,"x_max":653,"o":"m 118 0 l 118 672 l 175 672 l 175 508 l 160 508 q 256 640 188 596 q 413 683 324 683 q 547 656 493 683 q 626 571 600 628 q 653 428 653 514 l 653 0 l 594 0 l 594 422 q 576 539 594 493 q 517 607 557 585 q 413 629 476 629 q 288 599 342 629 q 206 515 235 569 q 176 386 176 460 l 176 0 l 118 0 m 190 -206 l 190 -153 l 579 -153 l 579 -206 l 190 -206 z "},"ñ":{"ha":768,"x_min":118,"x_max":653,"o":"m 118 0 l 118 672 l 175 672 l 175 508 l 160 508 q 256 640 188 596 q 413 683 324 683 q 547 656 493 683 q 626 571 600 628 q 653 428 653 514 l 653 0 l 594 0 l 594 422 q 576 539 594 493 q 517 607 557 585 q 413 629 476 629 q 288 599 342 629 q 206 515 235 569 q 176 386 176 460 l 176 0 l 118 0 m 196 826 l 151 829 q 194 953 160 910 q 285 997 229 997 q 340 981 314 997 q 399 932 365 965 q 448 890 429 901 q 485 879 467 879 q 543 910 521 879 q 574 1000 565 942 l 618 997 q 575 873 610 917 q 486 829 540 829 q 433 845 458 829 q 371 894 407 861 q 322 935 340 924 q 285 947 304 947 q 226 916 249 947 q 196 826 204 885 z "},"ŋ":{"ha":768,"x_min":118,"x_max":653,"o":"m 396 -268 l 392 -215 l 449 -211 q 557 -160 519 -206 q 594 -31 594 -114 l 594 422 q 576 539 594 493 q 517 607 557 585 q 413 629 476 629 q 288 599 342 629 q 206 515 235 569 q 176 386 176 460 l 176 0 l 118 0 l 118 672 l 175 672 l 175 508 l 160 508 q 256 640 188 596 q 413 683 324 683 q 547 656 493 683 q 626 571 600 628 q 653 428 653 514 l 653 -29 q 640 -125 653 -83 q 601 -197 626 -167 q 539 -244 575 -226 q 456 -264 503 -261 l 396 -268 z "},"o":{"ha":747,"x_min":74,"x_max":674,"o":"m 374 -11 q 215 32 282 -11 q 110 153 147 75 q 74 336 74 231 q 110 519 74 442 q 215 640 147 597 q 374 683 282 683 q 533 640 465 683 q 637 519 600 597 q 674 336 674 442 q 637 153 674 231 q 533 32 600 75 q 374 -11 465 -11 m 374 43 q 549 120 485 43 q 614 336 614 197 q 549 552 614 475 q 374 629 485 629 q 199 552 264 629 q 133 336 133 475 q 199 120 133 197 q 374 43 264 43 z "},"ó":{"ha":747,"x_min":74,"x_max":674,"o":"m 374 -11 q 215 32 282 -11 q 110 153 147 75 q 74 336 74 231 q 110 519 74 442 q 215 640 147 597 q 374 683 282 683 q 533 640 465 683 q 637 519 600 597 q 674 336 674 442 q 637 153 674 231 q 533 32 600 75 q 374 -11 465 -11 m 374 43 q 549 120 485 43 q 614 336 614 197 q 549 552 614 475 q 374 629 485 629 q 199 552 264 629 q 133 336 133 475 q 199 120 133 197 q 374 43 264 43 m 349 763 l 493 1040 l 568 1040 l 399 763 l 349 763 z "},"ŏ":{"ha":747,"x_min":74,"x_max":674,"o":"m 374 -11 q 215 32 282 -11 q 110 153 147 75 q 74 336 74 231 q 110 519 74 442 q 215 640 147 597 q 374 683 282 683 q 533 640 465 683 q 637 519 600 597 q 674 336 674 442 q 637 153 674 231 q 533 32 600 75 q 374 -11 465 -11 m 374 43 q 549 120 485 43 q 614 336 614 197 q 549 552 614 475 q 374 629 485 629 q 199 552 264 629 q 133 336 133 475 q 199 120 133 197 q 374 43 264 43 m 374 760 q 273 791 317 760 q 204 881 229 822 q 174 1019 179 939 l 219 1025 q 265 866 225 922 q 374 810 306 810 q 483 866 443 810 q 528 1025 522 922 l 574 1019 q 544 881 569 939 q 475 791 518 822 q 374 760 432 760 z "},"ô":{"ha":747,"x_min":74,"x_max":674,"o":"m 374 -11 q 215 32 282 -11 q 110 153 147 75 q 74 336 74 231 q 110 519 74 442 q 215 640 147 597 q 374 683 282 683 q 533 640 465 683 q 637 519 600 597 q 674 336 674 442 q 637 153 674 231 q 533 32 600 75 q 374 -11 465 -11 m 374 43 q 549 120 485 43 q 614 336 614 197 q 549 552 614 475 q 374 629 485 629 q 199 552 264 629 q 133 336 133 475 q 199 120 133 197 q 374 43 264 43 m 189 763 l 340 1040 l 407 1040 l 558 763 l 510 763 l 374 986 l 238 763 l 189 763 z "},"ố":{"ha":747,"x_min":74,"x_max":683,"o":"m 374 -11 q 215 32 282 -11 q 110 153 147 75 q 74 336 74 231 q 110 519 74 442 q 215 640 147 597 q 374 683 282 683 q 533 640 465 683 q 637 519 600 597 q 674 336 674 442 q 637 153 674 231 q 533 32 600 75 q 374 -11 465 -11 m 374 43 q 549 120 485 43 q 614 336 614 197 q 549 552 614 475 q 374 629 485 629 q 199 552 264 629 q 133 336 133 475 q 199 120 133 197 q 374 43 264 43 m 189 763 l 340 985 l 407 985 l 558 763 l 511 763 l 374 933 l 236 763 l 189 763 m 486 903 l 608 1111 l 683 1111 l 536 903 l 486 903 z "},"ộ":{"ha":747,"x_min":74,"x_max":674,"o":"m 374 -11 q 215 32 282 -11 q 110 153 147 75 q 74 336 74 231 q 110 519 74 442 q 215 640 147 597 q 374 683 282 683 q 533 640 465 683 q 637 519 600 597 q 674 336 674 442 q 637 153 674 231 q 533 32 600 75 q 374 -11 465 -11 m 374 43 q 549 120 485 43 q 614 336 614 197 q 549 552 614 475 q 374 629 485 629 q 199 552 264 629 q 133 336 133 475 q 199 120 133 197 q 374 43 264 43 m 329 -239 l 329 -151 l 418 -151 l 418 -239 l 329 -239 m 189 763 l 340 1040 l 407 1040 l 558 763 l 510 763 l 374 986 l 238 763 l 189 763 z "},"ồ":{"ha":747,"x_min":74,"x_max":674,"o":"m 374 -11 q 215 32 282 -11 q 110 153 147 75 q 74 336 74 231 q 110 519 74 442 q 215 640 147 597 q 374 683 282 683 q 533 640 465 683 q 637 519 600 597 q 674 336 674 442 q 637 153 674 231 q 533 32 600 75 q 374 -11 465 -11 m 374 43 q 549 120 485 43 q 614 336 614 197 q 549 552 614 475 q 374 629 485 629 q 199 552 264 629 q 133 336 133 475 q 199 120 133 197 q 374 43 264 43 m 189 763 l 340 985 l 407 985 l 558 763 l 511 763 l 374 933 l 236 763 l 189 763 m 543 903 l 396 1111 l 471 1111 l 593 903 l 543 903 z "},"ổ":{"ha":747,"x_min":74,"x_max":674,"o":"m 374 -11 q 215 32 282 -11 q 110 153 147 75 q 74 336 74 231 q 110 519 74 442 q 215 640 147 597 q 374 683 282 683 q 533 640 465 683 q 637 519 600 597 q 674 336 674 442 q 637 153 674 231 q 533 32 600 75 q 374 -11 465 -11 m 374 43 q 549 120 485 43 q 614 336 614 197 q 549 552 614 475 q 374 629 485 629 q 199 552 264 629 q 133 336 133 475 q 199 120 133 197 q 374 43 264 43 m 189 763 l 340 985 l 407 985 l 558 763 l 511 763 l 374 933 l 236 763 l 189 763 m 503 903 q 517 956 503 936 q 549 987 531 975 q 582 1010 568 999 q 596 1040 596 1022 q 578 1065 596 1058 q 524 1071 561 1071 q 484 1067 506 1071 q 436 1054 463 1064 l 424 1094 q 473 1111 446 1106 q 529 1117 500 1117 q 619 1097 588 1117 q 650 1044 650 1078 q 635 999 650 1015 q 600 972 619 983 q 565 944 581 960 q 550 903 550 929 l 503 903 z "},"ỗ":{"ha":747,"x_min":74,"x_max":674,"o":"m 374 -11 q 215 32 282 -11 q 110 153 147 75 q 74 336 74 231 q 110 519 74 442 q 215 640 147 597 q 374 683 282 683 q 533 640 465 683 q 637 519 600 597 q 674 336 674 442 q 637 153 674 231 q 533 32 600 75 q 374 -11 465 -11 m 374 43 q 549 120 485 43 q 614 336 614 197 q 549 552 614 475 q 374 629 485 629 q 199 552 264 629 q 133 336 133 475 q 199 120 133 197 q 374 43 264 43 m 189 763 l 340 943 l 407 943 l 558 763 l 511 763 l 374 896 l 236 763 l 189 763 m 217 979 l 171 982 q 190 1056 175 1026 q 230 1101 206 1086 q 286 1115 254 1115 q 335 1104 313 1115 q 386 1069 357 1093 q 432 1039 417 1046 q 461 1032 447 1032 q 508 1052 493 1032 q 531 1118 524 1072 l 576 1115 q 541 1015 571 1049 q 463 982 511 982 q 413 994 436 982 q 354 1033 390 1006 q 323 1055 340 1044 q 286 1065 306 1065 q 240 1045 256 1065 q 217 979 224 1025 z "},"ȍ":{"ha":747,"x_min":74,"x_max":674,"o":"m 374 -11 q 215 32 282 -11 q 110 153 147 75 q 74 336 74 231 q 110 519 74 442 q 215 640 147 597 q 374 683 282 683 q 533 640 465 683 q 637 519 600 597 q 674 336 674 442 q 637 153 674 231 q 533 32 600 75 q 374 -11 465 -11 m 374 43 q 549 120 485 43 q 614 336 614 197 q 549 552 614 475 q 374 629 485 629 q 199 552 264 629 q 133 336 133 475 q 199 120 133 197 q 374 43 264 43 m 431 763 l 321 1040 l 388 1040 l 468 763 l 431 763 m 279 763 l 169 1040 l 236 1040 l 317 763 l 279 763 z "},"ö":{"ha":747,"x_min":74,"x_max":674,"o":"m 374 -11 q 215 32 282 -11 q 110 153 147 75 q 74 336 74 231 q 110 519 74 442 q 215 640 147 597 q 374 683 282 683 q 533 640 465 683 q 637 519 600 597 q 674 336 674 442 q 637 153 674 231 q 533 32 600 75 q 374 -11 465 -11 m 374 43 q 549 120 485 43 q 614 336 614 197 q 549 552 614 475 q 374 629 485 629 q 199 552 264 629 q 133 336 133 475 q 199 120 133 197 q 374 43 264 43 m 443 861 l 443 944 l 528 944 l 528 861 l 443 861 m 219 861 l 219 944 l 304 944 l 304 861 l 219 861 z "},"ȫ":{"ha":747,"x_min":74,"x_max":674,"o":"m 374 -11 q 215 32 282 -11 q 110 153 147 75 q 74 336 74 231 q 110 519 74 442 q 215 640 147 597 q 374 683 282 683 q 533 640 465 683 q 637 519 600 597 q 674 336 674 442 q 637 153 674 231 q 533 32 600 75 q 374 -11 465 -11 m 374 43 q 549 120 485 43 q 614 336 614 197 q 549 552 614 475 q 374 629 485 629 q 199 552 264 629 q 133 336 133 475 q 199 120 133 197 q 374 43 264 43 m 179 981 l 179 1033 l 568 1033 l 568 981 l 179 981 m 219 813 l 219 896 l 304 896 l 304 813 l 219 813 m 443 813 l 443 896 l 528 896 l 528 813 l 443 813 z "},"ȱ":{"ha":747,"x_min":74,"x_max":674,"o":"m 374 -11 q 215 32 282 -11 q 110 153 147 75 q 74 336 74 231 q 110 519 74 442 q 215 640 147 597 q 374 683 282 683 q 533 640 465 683 q 637 519 600 597 q 674 336 674 442 q 637 153 674 231 q 533 32 600 75 q 374 -11 465 -11 m 374 43 q 549 120 485 43 q 614 336 614 197 q 549 552 614 475 q 374 629 485 629 q 199 552 264 629 q 133 336 133 475 q 199 120 133 197 q 374 43 264 43 m 179 981 l 179 1033 l 568 1033 l 568 981 l 179 981 m 332 813 l 332 896 l 417 896 l 417 813 l 332 813 z "},"ọ":{"ha":747,"x_min":74,"x_max":674,"o":"m 374 -11 q 215 32 282 -11 q 110 153 147 75 q 74 336 74 231 q 110 519 74 442 q 215 640 147 597 q 374 683 282 683 q 533 640 465 683 q 637 519 600 597 q 674 336 674 442 q 637 153 674 231 q 533 32 600 75 q 374 -11 465 -11 m 374 43 q 549 120 485 43 q 614 336 614 197 q 549 552 614 475 q 374 629 485 629 q 199 552 264 629 q 133 336 133 475 q 199 120 133 197 q 374 43 264 43 m 329 -239 l 329 -151 l 418 -151 l 418 -239 l 329 -239 z "},"ò":{"ha":747,"x_min":74,"x_max":674,"o":"m 374 -11 q 215 32 282 -11 q 110 153 147 75 q 74 336 74 231 q 110 519 74 442 q 215 640 147 597 q 374 683 282 683 q 533 640 465 683 q 637 519 600 597 q 674 336 674 442 q 637 153 674 231 q 533 32 600 75 q 374 -11 465 -11 m 374 43 q 549 120 485 43 q 614 336 614 197 q 549 552 614 475 q 374 629 485 629 q 199 552 264 629 q 133 336 133 475 q 199 120 133 197 q 374 43 264 43 m 349 763 l 179 1040 l 254 1040 l 399 763 l 349 763 z "},"ỏ":{"ha":747,"x_min":74,"x_max":674,"o":"m 374 -11 q 215 32 282 -11 q 110 153 147 75 q 74 336 74 231 q 110 519 74 442 q 215 640 147 597 q 374 683 282 683 q 533 640 465 683 q 637 519 600 597 q 674 336 674 442 q 637 153 674 231 q 533 32 600 75 q 374 -11 465 -11 m 374 43 q 549 120 485 43 q 614 336 614 197 q 549 552 614 475 q 374 629 485 629 q 199 552 264 629 q 133 336 133 475 q 199 120 133 197 q 374 43 264 43 m 349 763 l 349 790 q 363 847 349 825 q 396 884 378 868 q 428 916 414 900 q 443 954 443 932 q 426 986 443 975 q 371 997 408 997 q 328 992 350 997 q 281 975 307 988 l 268 1019 q 318 1041 290 1035 q 376 1047 346 1047 q 467 1024 435 1047 q 500 957 500 1000 q 485 902 500 922 q 449 867 469 882 q 414 833 429 851 q 399 783 399 814 l 399 763 l 349 763 z "},"ơ":{"ha":747,"x_min":74,"x_max":674,"o":"m 374 -11 q 215 32 282 -11 q 110 153 147 75 q 74 336 74 231 q 110 519 74 442 q 215 640 147 597 q 374 683 282 683 q 533 640 465 683 q 637 519 600 597 q 674 336 674 442 q 637 153 674 231 q 533 32 600 75 q 374 -11 465 -11 m 374 43 q 549 120 485 43 q 614 336 614 197 q 549 552 614 475 q 374 629 485 629 q 199 552 264 629 q 133 336 133 475 q 199 120 133 197 q 374 43 264 43 m 458 619 l 438 638 l 438 672 q 540 692 504 674 q 590 749 576 711 q 604 839 604 786 l 604 856 l 660 856 l 660 828 q 637 717 660 763 q 569 647 614 672 q 458 619 524 622 z "},"ớ":{"ha":747,"x_min":74,"x_max":674,"o":"m 374 -11 q 215 32 282 -11 q 110 153 147 75 q 74 336 74 231 q 110 519 74 442 q 215 640 147 597 q 374 683 282 683 q 533 640 465 683 q 637 519 600 597 q 674 336 674 442 q 637 153 674 231 q 533 32 600 75 q 374 -11 465 -11 m 374 43 q 549 120 485 43 q 614 336 614 197 q 549 552 614 475 q 374 629 485 629 q 199 552 264 629 q 133 336 133 475 q 199 120 133 197 q 374 43 264 43 m 458 619 l 438 638 l 438 672 q 540 692 504 674 q 590 749 576 711 q 604 839 604 786 l 604 856 l 660 856 l 660 828 q 637 717 660 763 q 569 647 614 672 q 458 619 524 622 m 347 763 l 492 1040 l 567 1040 l 397 763 l 347 763 z "},"ợ":{"ha":747,"x_min":74,"x_max":674,"o":"m 374 -11 q 215 32 282 -11 q 110 153 147 75 q 74 336 74 231 q 110 519 74 442 q 215 640 147 597 q 374 683 282 683 q 533 640 465 683 q 637 519 600 597 q 674 336 674 442 q 637 153 674 231 q 533 32 600 75 q 374 -11 465 -11 m 374 43 q 549 120 485 43 q 614 336 614 197 q 549 552 614 475 q 374 629 485 629 q 199 552 264 629 q 133 336 133 475 q 199 120 133 197 q 374 43 264 43 m 458 619 l 438 638 l 438 672 q 540 692 504 674 q 590 749 576 711 q 604 839 604 786 l 604 856 l 660 856 l 660 828 q 637 717 660 763 q 569 647 614 672 q 458 619 524 622 m 328 -239 l 328 -151 l 417 -151 l 417 -239 l 328 -239 z "},"ờ":{"ha":747,"x_min":74,"x_max":674,"o":"m 374 -11 q 215 32 282 -11 q 110 153 147 75 q 74 336 74 231 q 110 519 74 442 q 215 640 147 597 q 374 683 282 683 q 533 640 465 683 q 637 519 600 597 q 674 336 674 442 q 637 153 674 231 q 533 32 600 75 q 374 -11 465 -11 m 374 43 q 549 120 485 43 q 614 336 614 197 q 549 552 614 475 q 374 629 485 629 q 199 552 264 629 q 133 336 133 475 q 199 120 133 197 q 374 43 264 43 m 458 619 l 438 638 l 438 672 q 540 692 504 674 q 590 749 576 711 q 604 839 604 786 l 604 856 l 660 856 l 660 828 q 637 717 660 763 q 569 647 614 672 q 458 619 524 622 m 347 763 l 178 1040 l 253 1040 l 397 763 l 347 763 z "},"ở":{"ha":747,"x_min":74,"x_max":674,"o":"m 374 -11 q 215 32 282 -11 q 110 153 147 75 q 74 336 74 231 q 110 519 74 442 q 215 640 147 597 q 374 683 282 683 q 533 640 465 683 q 637 519 600 597 q 674 336 674 442 q 637 153 674 231 q 533 32 600 75 q 374 -11 465 -11 m 374 43 q 549 120 485 43 q 614 336 614 197 q 549 552 614 475 q 374 629 485 629 q 199 552 264 629 q 133 336 133 475 q 199 120 133 197 q 374 43 264 43 m 458 619 l 438 638 l 438 672 q 540 692 504 674 q 590 749 576 711 q 604 839 604 786 l 604 856 l 660 856 l 660 828 q 637 717 660 763 q 569 647 614 672 q 458 619 524 622 m 347 763 l 347 790 q 362 847 347 825 q 394 884 376 868 q 427 916 413 900 q 442 954 442 932 q 424 986 442 975 q 369 997 407 997 q 327 992 349 997 q 279 975 306 988 l 267 1019 q 317 1041 289 1035 q 375 1047 344 1047 q 466 1024 433 1047 q 499 957 499 1000 q 483 902 499 922 q 448 867 468 882 q 413 833 428 851 q 397 783 397 814 l 397 763 l 347 763 z "},"ỡ":{"ha":747,"x_min":74,"x_max":674,"o":"m 374 -11 q 215 32 282 -11 q 110 153 147 75 q 74 336 74 231 q 110 519 74 442 q 215 640 147 597 q 374 683 282 683 q 533 640 465 683 q 637 519 600 597 q 674 336 674 442 q 637 153 674 231 q 533 32 600 75 q 374 -11 465 -11 m 374 43 q 549 120 485 43 q 614 336 614 197 q 549 552 614 475 q 374 629 485 629 q 199 552 264 629 q 133 336 133 475 q 199 120 133 197 q 374 43 264 43 m 458 619 l 438 638 l 438 672 q 540 692 504 674 q 590 749 576 711 q 604 839 604 786 l 604 856 l 660 856 l 660 828 q 637 717 660 763 q 569 647 614 672 q 458 619 524 622 m 183 826 l 139 829 q 182 953 147 910 q 272 997 217 997 q 324 983 299 997 q 386 932 349 969 q 436 890 418 901 q 472 879 454 879 q 531 910 508 879 q 561 1000 553 942 l 606 997 q 563 873 597 917 q 474 829 528 829 q 417 846 443 829 q 358 894 390 863 q 310 935 328 924 q 272 947 292 947 q 214 916 236 947 q 183 826 192 885 z "}}}
